<svg xmlns:xlink="http://www.w3.org/1999/xlink" width="100ex" height="19.343ex" style="vertical-align: -17.505ex; max-width: 60000px; font-size: 15px;" viewBox="0 -791.3 43055.4 8328" role="img" focusable="false" xmlns="http://www.w3.org/2000/svg">
<defs>
<path stroke-width="1" id="E1-MJMAIN-31" d="M213 578L200 573Q186 568 160 563T102 556H83V602H102Q149 604 189 617T245 641T273 663Q275 666 285 666Q294 666 302 660V361L303 61Q310 54 315 52T339 48T401 46H427V0H416Q395 3 257 3Q121 3 100 0H88V46H114Q136 46 152 46T177 47T193 50T201 52T207 57T213 61V578Z"></path>
<path stroke-width="1" id="E1-MJMAIN-2198" d="M55 675Q55 683 60 689T75 695Q77 695 83 693Q87 691 482 296Q532 246 605 174T717 62T799 -20T859 -80T878 -97Q874 -93 874 -41Q874 64 929 151Q940 168 947 168Q951 168 960 159T970 145Q970 143 956 121T928 54T913 -45Q913 -83 920 -114T936 -163T944 -185Q942 -194 934 -194Q932 -194 914 -186T864 -170T795 -162Q743 -162 698 -176T630 -205T605 -220Q601 -220 592 -211T582 -197Q582 -187 611 -170T691 -138T787 -123Q824 -123 847 -128Q848 -128 778 -57T453 268Q58 664 56 668Q55 670 55 675Z"></path>
<path stroke-width="1" id="E1-MJMAIN-32" d="M109 429Q82 429 66 447T50 491Q50 562 103 614T235 666Q326 666 387 610T449 465Q449 422 429 383T381 315T301 241Q265 210 201 149L142 93L218 92Q375 92 385 97Q392 99 409 186V189H449V186Q448 183 436 95T421 3V0H50V19V31Q50 38 56 46T86 81Q115 113 136 137Q145 147 170 174T204 211T233 244T261 278T284 308T305 340T320 369T333 401T340 431T343 464Q343 527 309 573T212 619Q179 619 154 602T119 569T109 550Q109 549 114 549Q132 549 151 535T170 489Q170 464 154 447T109 429Z"></path>
<path stroke-width="1" id="E1-MJMAIN-2E" d="M78 60Q78 84 95 102T138 120Q162 120 180 104T199 61Q199 36 182 18T139 0T96 17T78 60Z"></path>
<path stroke-width="1" id="E1-MJMAIN-30" d="M96 585Q152 666 249 666Q297 666 345 640T423 548Q460 465 460 320Q460 165 417 83Q397 41 362 16T301 -15T250 -22Q224 -22 198 -16T137 16T82 83Q39 165 39 320Q39 494 96 585ZM321 597Q291 629 250 629Q208 629 178 597Q153 571 145 525T137 333Q137 175 145 125T181 46Q209 16 250 16Q290 16 318 46Q347 76 354 130T362 333Q362 478 354 524T321 597Z"></path>
<path stroke-width="1" id="E1-MJMAIN-39" d="M352 287Q304 211 232 211Q154 211 104 270T44 396Q42 412 42 436V444Q42 537 111 606Q171 666 243 666Q245 666 249 666T257 665H261Q273 665 286 663T323 651T370 619T413 560Q456 472 456 334Q456 194 396 97Q361 41 312 10T208 -22Q147 -22 108 7T68 93T121 149Q143 149 158 135T173 96Q173 78 164 65T148 49T135 44L131 43Q131 41 138 37T164 27T206 22H212Q272 22 313 86Q352 142 352 280V287ZM244 248Q292 248 321 297T351 430Q351 508 343 542Q341 552 337 562T323 588T293 615T246 625Q208 625 181 598Q160 576 154 546T147 441Q147 358 152 329T172 282Q197 248 244 248Z"></path>
</defs>
<g stroke="currentColor" fill="currentColor" stroke-width="0" transform="matrix(1 0 0 -1 0 0)">
 <use xlink:href="#E1-MJMAIN-31" x="21277" y="0"></use>
<g transform="translate(20388,-1200)">
 <use xlink:href="#E1-MJMAIN-2198" x="1277" y="0"></use>
</g>
<g transform="translate(19638,-2519)">
 <use xlink:href="#E1-MJMAIN-32" x="3277" y="0"></use>
</g>
<g transform="translate(18388,-3719)">
 <use xlink:href="#E1-MJMAIN-2198" x="5277" y="0"></use>
</g>
<g transform="translate(17443,-4919)">
 <use xlink:href="#E1-MJMAIN-2E" x="7000" y="0"></use>
 <use xlink:href="#E1-MJMAIN-2E" x="7445" y="0"></use>
 <use xlink:href="#E1-MJMAIN-2E" x="7890" y="0"></use>
</g>
<g transform="translate(16444,-6119)">
 <use xlink:href="#E1-MJMAIN-2198" x="9166" y="0"></use>
</g>
<g transform="translate(15248,-7438)">
<g transform="translate(10555,0)">
 <use xlink:href="#E1-MJMAIN-32"></use>
 <use xlink:href="#E1-MJMAIN-30" x="500" y="0"></use>
 <use xlink:href="#E1-MJMAIN-31" x="1001" y="0"></use>
 <use xlink:href="#E1-MJMAIN-39" x="1501" y="0"></use>
</g>
</g>
</g>
</svg>