<svg xmlns:xlink="http://www.w3.org/1999/xlink" width="5.26ex" height="2.509ex" style="vertical-align: -0.671ex; font-size: 15px;" viewBox="0 -791.3 2264.8 1080.4" role="img" focusable="false" xmlns="http://www.w3.org/2000/svg">
<defs>
<path stroke-width="1" id="E1-MJMAINI-61" d="M418 53Q418 26 438 26Q466 26 494 131Q500 151 504 152Q507 153 516 153H521Q531 153 534 153T540 150T543 144Q543 141 540 126T529 88T509 43T477 5T434 -11Q404 -11 383 3T354 30T347 48H346Q345 47 342 45T337 40Q282 -11 228 -11Q172 -11 137 34T101 146Q101 260 177 351T333 442Q343 442 352 441T369 437T382 431T393 425T402 417T409 410T414 402T419 396Q423 406 436 414T461 422Q475 422 484 413T494 395Q494 384 459 244T420 88Q418 80 418 58V53ZM397 323Q397 344 382 374T333 405Q302 405 271 372Q249 349 235 316T203 215Q184 135 184 108V100V94Q184 54 207 35Q218 26 235 26Q279 26 330 91Q343 109 346 118T372 217Q397 317 397 323Z"></path>
<path stroke-width="1" id="E1-MJMAIN-2C" d="M78 35T78 60T94 103T137 121Q165 121 187 96T210 8Q210 -27 201 -60T180 -117T154 -158T130 -185T117 -194Q113 -194 104 -185T95 -172Q95 -168 106 -156T131 -126T157 -76T173 -3V9L172 8Q170 7 167 6T161 3T152 1T140 0Q113 0 96 17Z"></path>
<path stroke-width="1" id="E1-MJMATHI-62" d="M73 647Q73 657 77 670T89 683Q90 683 161 688T234 694Q246 694 246 685T212 542Q204 508 195 472T180 418L176 399Q176 396 182 402Q231 442 283 442Q345 442 383 396T422 280Q422 169 343 79T173 -11Q123 -11 82 27T40 150V159Q40 180 48 217T97 414Q147 611 147 623T109 637Q104 637 101 637H96Q86 637 83 637T76 640T73 647ZM336 325V331Q336 405 275 405Q258 405 240 397T207 376T181 352T163 330L157 322L136 236Q114 150 114 114Q114 66 138 42Q154 26 178 26Q211 26 245 58Q270 81 285 114T318 219Q336 291 336 325Z"></path>
<path stroke-width="1" id="E1-MJMATHI-63" d="M34 159Q34 268 120 355T306 442Q362 442 394 418T427 355Q427 326 408 306T360 285Q341 285 330 295T319 325T330 359T352 380T366 386H367Q367 388 361 392T340 400T306 404Q276 404 249 390Q228 381 206 359Q162 315 142 235T121 119Q121 73 147 50Q169 26 205 26H209Q321 26 394 111Q403 121 406 121Q410 121 419 112T429 98T420 83T391 55T346 25T282 0T202 -11Q127 -11 81 37T34 159Z"></path>
</defs>
<g stroke="currentColor" fill="currentColor" stroke-width="0" transform="matrix(1 0 0 -1 0 0)">
 <use xlink:href="#E1-MJMAINI-61" x="0" y="0"></use>
 <use xlink:href="#E1-MJMAIN-2C" x="511" y="0"></use>
 <use xlink:href="#E1-MJMATHI-62" x="956" y="0"></use>
 <use xlink:href="#E1-MJMAIN-2C" x="1386" y="0"></use>
 <use xlink:href="#E1-MJMATHI-63" x="1831" y="0"></use>
</g>
</svg>