<svg xmlns:xlink="http://www.w3.org/1999/xlink" width="5.737ex" height="2.509ex" style="vertical-align: -0.671ex; font-size: 15px;" viewBox="0 -791.3 2469.9 1080.4" role="img" focusable="false" xmlns="http://www.w3.org/2000/svg">
<defs>
<path stroke-width="1" id="E1-MJMAINI-41" d="M85 46Q112 48 132 56T161 73T176 92T185 104Q185 106 353 407T524 709Q527 716 551 716Q568 716 572 712Q573 711 574 710Q576 708 594 384Q613 54 617 52H618Q626 46 672 46H689Q696 41 696 36Q696 13 683 0H670Q639 2 557 2Q526 2 500 2T459 2T441 1Q425 1 425 10Q425 12 427 24Q428 27 429 31T430 36T432 40T434 43T437 45T443 46T450 46Q514 46 514 69Q514 74 511 136L506 209H292L260 152Q222 84 222 74Q222 48 264 46Q280 46 280 35Q280 33 278 21Q275 7 272 4T259 0Q256 0 232 1T159 2Q135 2 109 1T78 0Q58 0 58 10Q58 14 61 26T66 40Q68 46 85 46ZM504 260Q503 263 496 407T486 553L466 520Q446 486 402 406L318 256Q318 255 411 255H504V260Z"></path>
<path stroke-width="1" id="E1-MJMAIN-2B" d="M56 237T56 250T70 270H369V420L370 570Q380 583 389 583Q402 583 409 568V270H707Q722 262 722 250T707 230H409V-68Q401 -82 391 -82H389H387Q375 -82 369 -68V230H70Q56 237 56 250Z"></path>
<path stroke-width="1" id="E1-MJMATHI-70" d="M23 287Q24 290 25 295T30 317T40 348T55 381T75 411T101 433T134 442Q209 442 230 378L240 387Q302 442 358 442Q423 442 460 395T497 281Q497 173 421 82T249 -10Q227 -10 210 -4Q199 1 187 11T168 28L161 36Q160 35 139 -51T118 -138Q118 -144 126 -145T163 -148H188Q194 -155 194 -157T191 -175Q188 -187 185 -190T172 -194Q170 -194 161 -194T127 -193T65 -192Q-5 -192 -24 -194H-32Q-39 -187 -39 -183Q-37 -156 -26 -148H-6Q28 -147 33 -136Q36 -130 94 103T155 350Q156 355 156 364Q156 405 131 405Q109 405 94 377T71 316T59 280Q57 278 43 278H29Q23 284 23 287ZM178 102Q200 26 252 26Q282 26 310 49T356 107Q374 141 392 215T411 325V331Q411 405 350 405Q339 405 328 402T306 393T286 380T269 365T254 350T243 336T235 326L232 322Q232 321 229 308T218 264T204 212Q178 106 178 102Z"></path>
</defs>
<g stroke="currentColor" fill="currentColor" stroke-width="0" transform="matrix(1 0 0 -1 0 0)">
 <use xlink:href="#E1-MJMAINI-41" x="0" y="0"></use>
 <use xlink:href="#E1-MJMAIN-2B" x="965" y="0"></use>
 <use xlink:href="#E1-MJMATHI-70" x="1966" y="0"></use>
</g>
</svg>