<svg xmlns:xlink="http://www.w3.org/1999/xlink" width="4.51ex" height="2.843ex" style="vertical-align: -0.838ex; font-size: 15px;" viewBox="0 -863.1 1942 1223.9" role="img" focusable="false" xmlns="http://www.w3.org/2000/svg">
<defs>
<path stroke-width="1" id="E1-MJMAINI-53" d="M198 460Q198 551 269 628T432 705Q516 705 557 644L583 673Q589 679 593 684T600 693T605 698T609 702T611 704T614 705T618 705H620Q633 705 633 698T605 577T573 459L570 456H554Q546 456 543 456T536 457T532 460T531 466Q531 469 533 489T536 532Q536 573 525 600T496 640T462 657T427 662Q369 662 325 612T281 503Q281 475 290 458T318 430T356 415T407 401T463 383Q506 360 522 323T538 258V244Q538 141 465 60T300 -22Q198 -22 152 41L143 31Q137 25 126 12T106 -10T95 -21L92 -22Q88 -22 86 -22Q81 -22 78 -20T74 -16V-14Q74 -11 132 221Q134 227 155 227H171Q177 221 177 215Q177 212 175 205T171 182T169 147Q171 99 195 70T246 33T306 25Q358 25 400 70T453 169Q455 180 455 203V210Q455 263 414 285Q409 288 347 305Q271 328 254 339Q239 350 224 371Q198 409 198 460Z"></path>
<path stroke-width="1" id="E1-MJMAIN-28" d="M94 250Q94 319 104 381T127 488T164 576T202 643T244 695T277 729T302 750H315H319Q333 750 333 741Q333 738 316 720T275 667T226 581T184 443T167 250T184 58T225 -81T274 -167T316 -220T333 -241Q333 -250 318 -250H315H302L274 -226Q180 -141 137 -14T94 250Z"></path>
<path stroke-width="1" id="E1-MJMATHI-6E" d="M21 287Q22 293 24 303T36 341T56 388T89 425T135 442Q171 442 195 424T225 390T231 369Q231 367 232 367L243 378Q304 442 382 442Q436 442 469 415T503 336T465 179T427 52Q427 26 444 26Q450 26 453 27Q482 32 505 65T540 145Q542 153 560 153Q580 153 580 145Q580 144 576 130Q568 101 554 73T508 17T439 -10Q392 -10 371 17T350 73Q350 92 386 193T423 345Q423 404 379 404H374Q288 404 229 303L222 291L189 157Q156 26 151 16Q138 -11 108 -11Q95 -11 87 -5T76 7T74 17Q74 30 112 180T152 343Q153 348 153 366Q153 405 129 405Q91 405 66 305Q60 285 60 284Q58 278 41 278H27Q21 284 21 287Z"></path>
<path stroke-width="1" id="E1-MJMAIN-29" d="M60 749L64 750Q69 750 74 750H86L114 726Q208 641 251 514T294 250Q294 182 284 119T261 12T224 -76T186 -143T145 -194T113 -227T90 -246Q87 -249 86 -250H74Q66 -250 63 -250T58 -247T55 -238Q56 -237 66 -225Q221 -64 221 250T66 725Q56 737 55 738Q55 746 60 749Z"></path>
</defs>
<g stroke="currentColor" fill="currentColor" stroke-width="0" transform="matrix(1 0 0 -1 0 0)">
 <use xlink:href="#E1-MJMAINI-53" x="0" y="0"></use>
 <use xlink:href="#E1-MJMAIN-28" x="562" y="0"></use>
 <use xlink:href="#E1-MJMATHI-6E" x="952" y="0"></use>
 <use xlink:href="#E1-MJMAIN-29" x="1552" y="0"></use>
</g>
</svg>