<svg xmlns:xlink="http://www.w3.org/1999/xlink" width="1.988ex" height="2.509ex" style="vertical-align: -0.671ex; font-size: 15px;" viewBox="0 -791.3 855.8 1080.4" role="img" focusable="false" xmlns="http://www.w3.org/2000/svg">
<defs>
<path stroke-width="1" id="E1-MJMAINI-68" d="M398 44Q398 26 414 26Q431 26 451 43Q477 71 496 136Q499 148 501 150T515 153H521Q531 153 534 153T541 150T544 143Q544 133 534 105T496 41T432 -8Q424 -10 408 -10Q370 -10 348 12T326 72Q326 93 342 135Q397 288 397 349Q397 367 396 372Q386 405 357 405Q283 405 228 310Q217 290 212 274T180 152Q153 42 148 26T135 3Q121 -11 102 -11Q89 -11 80 -3T69 19L216 616Q216 629 209 632T170 637H149Q143 643 143 645T145 664Q150 683 158 683Q163 683 223 688T300 694Q312 694 312 685Q312 674 277 539Q241 395 241 393Q242 394 249 399T259 407T271 415T285 424T300 431T318 437T338 440T362 442Q423 442 449 410T475 338Q475 290 437 178T398 44Z"></path>
<path stroke-width="1" id="E1-MJMATHI-69" d="M184 600Q184 624 203 642T247 661Q265 661 277 649T290 619Q290 596 270 577T226 557Q211 557 198 567T184 600ZM21 287Q21 295 30 318T54 369T98 420T158 442Q197 442 223 419T250 357Q250 340 236 301T196 196T154 83Q149 61 149 51Q149 26 166 26Q175 26 185 29T208 43T235 78T260 137Q263 149 265 151T282 153Q302 153 302 143Q302 135 293 112T268 61T223 11T161 -11Q129 -11 102 10T74 74Q74 91 79 106T122 220Q160 321 166 341T173 380Q173 404 156 404H154Q124 404 99 371T61 287Q60 286 59 284T58 281T56 279T53 278T49 278T41 278H27Q21 284 21 287Z"></path>
</defs>
<g stroke="currentColor" fill="currentColor" stroke-width="0" transform="matrix(1 0 0 -1 0 0)">
 <use xlink:href="#E1-MJMAINI-68" x="0" y="0"></use>
 <use transform="scale(0.707)" xlink:href="#E1-MJMATHI-69" x="723" y="-213"></use>
</g>
</svg>