<svg xmlns:xlink="http://www.w3.org/1999/xlink" width="12.522ex" height="3.009ex" style="vertical-align: -0.838ex; font-size: 15px;" viewBox="0 -934.9 5391.2 1295.7" role="img" focusable="false" xmlns="http://www.w3.org/2000/svg">
<defs>
<path stroke-width="1" id="E1-MJMATHI-58" d="M42 0H40Q26 0 26 11Q26 15 29 27Q33 41 36 43T55 46Q141 49 190 98Q200 108 306 224T411 342Q302 620 297 625Q288 636 234 637H206Q200 643 200 645T202 664Q206 677 212 683H226Q260 681 347 681Q380 681 408 681T453 682T473 682Q490 682 490 671Q490 670 488 658Q484 643 481 640T465 637Q434 634 411 620L488 426L541 485Q646 598 646 610Q646 628 622 635Q617 635 609 637Q594 637 594 648Q594 650 596 664Q600 677 606 683H618Q619 683 643 683T697 681T738 680Q828 680 837 683H845Q852 676 852 672Q850 647 840 637H824Q790 636 763 628T722 611T698 593L687 584Q687 585 592 480L505 384Q505 383 536 304T601 142T638 56Q648 47 699 46Q734 46 734 37Q734 35 732 23Q728 7 725 4T711 1Q708 1 678 1T589 2Q528 2 496 2T461 1Q444 1 444 10Q444 11 446 25Q448 35 450 39T455 44T464 46T480 47T506 54Q523 62 523 64Q522 64 476 181L429 299Q241 95 236 84Q232 76 232 72Q232 53 261 47Q262 47 267 47T273 46Q276 46 277 46T280 45T283 42T284 35Q284 26 282 19Q279 6 276 4T261 1Q258 1 243 1T201 2T142 2Q64 2 42 0Z"></path>
<path stroke-width="1" id="E1-MJMAIN-223C" d="M55 166Q55 241 101 304T222 367Q260 367 296 349T362 304T421 252T484 208T554 189Q616 189 655 236T694 338Q694 350 698 358T708 367Q722 367 722 334Q722 260 677 197T562 134H554Q517 134 481 152T414 196T355 248T292 293T223 311Q179 311 145 286Q109 257 96 218T80 156T69 133Q55 133 55 166Z"></path>
<path stroke-width="1" id="E1-MJCAL-4E" d="M343 705Q358 705 358 698Q360 696 370 658T411 524T484 319Q536 174 590 82L595 73L615 152Q646 274 683 407Q729 571 752 637T799 727Q852 780 937 788Q939 788 947 788T958 789H962Q979 789 979 765Q979 722 951 692Q942 683 924 683Q888 681 859 672T818 654T803 639Q784 608 708 322T631 15Q631 14 630 15Q630 17 629 15Q628 14 628 12Q621 -4 601 -17T560 -31Q550 -31 546 -28T530 -7Q484 67 458 123T398 272Q352 392 314 514L306 535V534Q306 533 296 488T272 379T234 239T185 100T127 -7T61 -50Q34 -50 4 -34T-27 8Q-27 33 -12 61T18 90Q21 90 36 77T87 57H92Q109 57 123 78T162 173Q206 299 232 417T265 599T276 667Q284 681 304 693T343 705Z"></path>
<path stroke-width="1" id="E1-MJMAIN-28" d="M94 250Q94 319 104 381T127 488T164 576T202 643T244 695T277 729T302 750H315H319Q333 750 333 741Q333 738 316 720T275 667T226 581T184 443T167 250T184 58T225 -81T274 -167T316 -220T333 -241Q333 -250 318 -250H315H302L274 -226Q180 -141 137 -14T94 250Z"></path>
<path stroke-width="1" id="E1-MJMAIN-30" d="M96 585Q152 666 249 666Q297 666 345 640T423 548Q460 465 460 320Q460 165 417 83Q397 41 362 16T301 -15T250 -22Q224 -22 198 -16T137 16T82 83Q39 165 39 320Q39 494 96 585ZM321 597Q291 629 250 629Q208 629 178 597Q153 571 145 525T137 333Q137 175 145 125T181 46Q209 16 250 16Q290 16 318 46Q347 76 354 130T362 333Q362 478 354 524T321 597Z"></path>
<path stroke-width="1" id="E1-MJMAIN-2C" d="M78 35T78 60T94 103T137 121Q165 121 187 96T210 8Q210 -27 201 -60T180 -117T154 -158T130 -185T117 -194Q113 -194 104 -185T95 -172Q95 -168 106 -156T131 -126T157 -76T173 -3V9L172 8Q170 7 167 6T161 3T152 1T140 0Q113 0 96 17Z"></path>
<path stroke-width="1" id="E1-MJMAIN-31" d="M213 578L200 573Q186 568 160 563T102 556H83V602H102Q149 604 189 617T245 641T273 663Q275 666 285 666Q294 666 302 660V361L303 61Q310 54 315 52T339 48T401 46H427V0H416Q395 3 257 3Q121 3 100 0H88V46H114Q136 46 152 46T177 47T193 50T201 52T207 57T213 61V578Z"></path>
<path stroke-width="1" id="E1-MJMAIN-29" d="M60 749L64 750Q69 750 74 750H86L114 726Q208 641 251 514T294 250Q294 182 284 119T261 12T224 -76T186 -143T145 -194T113 -227T90 -246Q87 -249 86 -250H74Q66 -250 63 -250T58 -247T55 -238Q56 -237 66 -225Q221 -64 221 250T66 725Q56 737 55 738Q55 746 60 749Z"></path>
</defs>
<g stroke="currentColor" fill="currentColor" stroke-width="0" transform="matrix(1 0 0 -1 0 0)">
 <use xlink:href="#E1-MJMATHI-58" x="0" y="0"></use>
 <use xlink:href="#E1-MJMAIN-223C" x="1130" y="0"></use>
 <use xlink:href="#E1-MJCAL-4E" x="2186" y="0"></use>
 <use xlink:href="#E1-MJMAIN-28" x="3166" y="0"></use>
 <use xlink:href="#E1-MJMAIN-30" x="3555" y="0"></use>
 <use xlink:href="#E1-MJMAIN-2C" x="4056" y="0"></use>
 <use xlink:href="#E1-MJMAIN-31" x="4501" y="0"></use>
 <use xlink:href="#E1-MJMAIN-29" x="5001" y="0"></use>
</g>
</svg>