<svg xmlns:xlink="http://www.w3.org/1999/xlink" width="1.701ex" height="2.176ex" style="vertical-align: -0.338ex; margin-right: -0.065ex; font-size: 15px;" viewBox="0 -791.3 732.5 936.9" role="img" focusable="false" xmlns="http://www.w3.org/2000/svg">
<defs>
<path stroke-width="1" id="E1-MJMAINI-42" d="M57 11Q57 38 69 45L74 46Q78 46 85 46T99 46Q134 47 145 50T162 62Q164 66 233 344T303 626Q303 627 302 629V631Q296 637 241 637H223Q217 642 217 645T219 664Q223 677 229 683H411L593 682L605 680Q616 678 628 675T660 662T694 639T720 601T732 547Q732 519 726 503Q710 452 662 414T556 360L545 357L556 355Q604 346 641 312T678 221Q678 155 622 92T482 8Q459 2 439 2T256 0H154H105Q74 0 66 2T57 11ZM629 549Q628 550 629 557T627 576T619 600T601 622T570 636Q564 637 490 637Q472 637 454 637T424 636T411 636Q399 635 395 622T364 500Q333 377 332 376Q332 374 408 374L485 375L495 377Q547 390 588 437T629 549ZM504 336Q500 337 410 337Q323 337 322 336Q322 334 305 263T270 122T252 51Q252 47 337 46Q346 46 361 46T384 45Q425 45 455 55T515 95Q574 156 574 235Q574 276 555 304T504 336Z"></path>
</defs>
<g stroke="currentColor" fill="currentColor" stroke-width="0" transform="matrix(1 0 0 -1 0 0)">
 <use xlink:href="#E1-MJMAINI-42" x="0" y="0"></use>
</g>
</svg>