<svg xmlns:xlink="http://www.w3.org/1999/xlink" width="54.508ex" height="23.343ex" style="vertical-align: -12.838ex; font-size: 15px;" viewBox="0 -4522.8 23468.7 10050.3" role="img" focusable="false" xmlns="http://www.w3.org/2000/svg">
<defs>
<path stroke-width="1" id="E1-MJMAIN-5B" d="M118 -250V750H255V710H158V-210H255V-250H118Z"></path>
<path stroke-width="1" id="E1-MJMAIN-30" d="M96 585Q152 666 249 666Q297 666 345 640T423 548Q460 465 460 320Q460 165 417 83Q397 41 362 16T301 -15T250 -22Q224 -22 198 -16T137 16T82 83Q39 165 39 320Q39 494 96 585ZM321 597Q291 629 250 629Q208 629 178 597Q153 571 145 525T137 333Q137 175 145 125T181 46Q209 16 250 16Q290 16 318 46Q347 76 354 130T362 333Q362 478 354 524T321 597Z"></path>
<path stroke-width="1" id="E1-MJMAIN-31" d="M213 578L200 573Q186 568 160 563T102 556H83V602H102Q149 604 189 617T245 641T273 663Q275 666 285 666Q294 666 302 660V361L303 61Q310 54 315 52T339 48T401 46H427V0H416Q395 3 257 3Q121 3 100 0H88V46H114Q136 46 152 46T177 47T193 50T201 52T207 57T213 61V578Z"></path>
<path stroke-width="1" id="E1-MJMAIN-36" d="M42 313Q42 476 123 571T303 666Q372 666 402 630T432 550Q432 525 418 510T379 495Q356 495 341 509T326 548Q326 592 373 601Q351 623 311 626Q240 626 194 566Q147 500 147 364L148 360Q153 366 156 373Q197 433 263 433H267Q313 433 348 414Q372 400 396 374T435 317Q456 268 456 210V192Q456 169 451 149Q440 90 387 34T253 -22Q225 -22 199 -14T143 16T92 75T56 172T42 313ZM257 397Q227 397 205 380T171 335T154 278T148 216Q148 133 160 97T198 39Q222 21 251 21Q302 21 329 59Q342 77 347 104T352 209Q352 289 347 316T329 361Q302 397 257 397Z"></path>
<path stroke-width="1" id="E1-MJMAIN-5D" d="M22 710V750H159V-250H22V-210H119V710H22Z"></path>
<path stroke-width="1" id="E1-MJSZ4-23A1" d="M319 -645V1154H666V1070H403V-645H319Z"></path>
<path stroke-width="1" id="E1-MJSZ4-23A3" d="M319 -644V1155H403V-560H666V-644H319Z"></path>
<path stroke-width="1" id="E1-MJSZ4-23A2" d="M319 0V602H403V0H319Z"></path>
<path stroke-width="1" id="E1-MJSZ4-23A4" d="M0 1070V1154H347V-645H263V1070H0Z"></path>
<path stroke-width="1" id="E1-MJSZ4-23A6" d="M263 -560V1155H347V-644H0V-560H263Z"></path>
<path stroke-width="1" id="E1-MJSZ4-23A5" d="M263 0V602H347V0H263Z"></path>
<path stroke-width="1" id="E1-MJSZ4-E152" d="M-24 327L-18 333H-1Q11 333 15 333T22 329T27 322T35 308T54 284Q115 203 225 162T441 120Q454 120 457 117T460 95V60V28Q460 8 457 4T442 0Q355 0 260 36Q75 118 -16 278L-24 292V327Z"></path>
<path stroke-width="1" id="E1-MJSZ4-E153" d="M-10 60V95Q-10 113 -7 116T9 120Q151 120 250 171T396 284Q404 293 412 305T424 324T431 331Q433 333 451 333H468L474 327V292L466 278Q375 118 190 36Q95 0 8 0Q-5 0 -7 3T-10 24V60Z"></path>
<path stroke-width="1" id="E1-MJSZ4-E151" d="M-10 60Q-10 104 -10 111T-5 118Q-1 120 10 120Q96 120 190 84Q375 2 466 -158L474 -172V-207L468 -213H451H447Q437 -213 434 -213T428 -209T423 -202T414 -187T396 -163Q331 -82 224 -41T9 0Q-4 0 -7 3T-10 25V60Z"></path>
<path stroke-width="1" id="E1-MJSZ4-E150" d="M-18 -213L-24 -207V-172L-16 -158Q75 2 260 84Q334 113 415 119Q418 119 427 119T440 120Q454 120 457 117T460 98V60V25Q460 7 457 4T441 0Q308 0 193 -55T25 -205Q21 -211 18 -212T-1 -213H-18Z"></path>
<path stroke-width="1" id="E1-MJSZ4-E154" d="M-10 0V120H410V0H-10Z"></path>
<path stroke-width="1" id="E1-MJMAIN-3A" d="M78 370Q78 394 95 412T138 430Q162 430 180 414T199 371Q199 346 182 328T139 310T96 327T78 370ZM78 60Q78 84 95 102T138 120Q162 120 180 104T199 61Q199 36 182 18T139 0T96 17T78 60Z"></path>
<path stroke-width="1" id="E1-MJMAIN-3D" d="M56 347Q56 360 70 367H707Q722 359 722 347Q722 336 708 328L390 327H72Q56 332 56 347ZM56 153Q56 168 72 173H708Q722 163 722 153Q722 140 707 133H70Q56 140 56 153Z"></path>
<path stroke-width="1" id="E1-MJMATHI-41" d="M208 74Q208 50 254 46Q272 46 272 35Q272 34 270 22Q267 8 264 4T251 0Q249 0 239 0T205 1T141 2Q70 2 50 0H42Q35 7 35 11Q37 38 48 46H62Q132 49 164 96Q170 102 345 401T523 704Q530 716 547 716H555H572Q578 707 578 706L606 383Q634 60 636 57Q641 46 701 46Q726 46 726 36Q726 34 723 22Q720 7 718 4T704 0Q701 0 690 0T651 1T578 2Q484 2 455 0H443Q437 6 437 9T439 27Q443 40 445 43L449 46H469Q523 49 533 63L521 213H283L249 155Q208 86 208 74ZM516 260Q516 271 504 416T490 562L463 519Q447 492 400 412L310 260L413 259Q516 259 516 260Z"></path>
<path stroke-width="1" id="E1-MJMATHI-50" d="M287 628Q287 635 230 637Q206 637 199 638T192 648Q192 649 194 659Q200 679 203 681T397 683Q587 682 600 680Q664 669 707 631T751 530Q751 453 685 389Q616 321 507 303Q500 302 402 301H307L277 182Q247 66 247 59Q247 55 248 54T255 50T272 48T305 46H336Q342 37 342 35Q342 19 335 5Q330 0 319 0Q316 0 282 1T182 2Q120 2 87 2T51 1Q33 1 33 11Q33 13 36 25Q40 41 44 43T67 46Q94 46 127 49Q141 52 146 61Q149 65 218 339T287 628ZM645 554Q645 567 643 575T634 597T609 619T560 635Q553 636 480 637Q463 637 445 637T416 636T404 636Q391 635 386 627Q384 621 367 550T332 412T314 344Q314 342 395 342H407H430Q542 342 590 392Q617 419 631 471T645 554Z"></path>
<path stroke-width="1" id="E1-MJMAIN-28" d="M94 250Q94 319 104 381T127 488T164 576T202 643T244 695T277 729T302 750H315H319Q333 750 333 741Q333 738 316 720T275 667T226 581T184 443T167 250T184 58T225 -81T274 -167T316 -220T333 -241Q333 -250 318 -250H315H302L274 -226Q180 -141 137 -14T94 250Z"></path>
<path stroke-width="1" id="E1-MJMATHI-6E" d="M21 287Q22 293 24 303T36 341T56 388T89 425T135 442Q171 442 195 424T225 390T231 369Q231 367 232 367L243 378Q304 442 382 442Q436 442 469 415T503 336T465 179T427 52Q427 26 444 26Q450 26 453 27Q482 32 505 65T540 145Q542 153 560 153Q580 153 580 145Q580 144 576 130Q568 101 554 73T508 17T439 -10Q392 -10 371 17T350 73Q350 92 386 193T423 345Q423 404 379 404H374Q288 404 229 303L222 291L189 157Q156 26 151 16Q138 -11 108 -11Q95 -11 87 -5T76 7T74 17Q74 30 112 180T152 343Q153 348 153 366Q153 405 129 405Q91 405 66 305Q60 285 60 284Q58 278 41 278H27Q21 284 21 287Z"></path>
<path stroke-width="1" id="E1-MJMAIN-2212" d="M84 237T84 250T98 270H679Q694 262 694 250T679 230H98Q84 237 84 250Z"></path>
<path stroke-width="1" id="E1-MJMAIN-29" d="M60 749L64 750Q69 750 74 750H86L114 726Q208 641 251 514T294 250Q294 182 284 119T261 12T224 -76T186 -143T145 -194T113 -227T90 -246Q87 -249 86 -250H74Q66 -250 63 -250T58 -247T55 -238Q56 -237 66 -225Q221 -64 221 250T66 725Q56 737 55 738Q55 746 60 749Z"></path>
<path stroke-width="1" id="E1-MJMAIN-35" d="M164 157Q164 133 148 117T109 101H102Q148 22 224 22Q294 22 326 82Q345 115 345 210Q345 313 318 349Q292 382 260 382H254Q176 382 136 314Q132 307 129 306T114 304Q97 304 95 310Q93 314 93 485V614Q93 664 98 664Q100 666 102 666Q103 666 123 658T178 642T253 634Q324 634 389 662Q397 666 402 666Q410 666 410 648V635Q328 538 205 538Q174 538 149 544L139 546V374Q158 388 169 396T205 412T256 420Q337 420 393 355T449 201Q449 109 385 44T229 -22Q148 -22 99 32T50 154Q50 178 61 192T84 210T107 214Q132 214 148 197T164 157Z"></path>
<path stroke-width="1" id="E1-MJMAIN-34" d="M462 0Q444 3 333 3Q217 3 199 0H190V46H221Q241 46 248 46T265 48T279 53T286 61Q287 63 287 115V165H28V211L179 442Q332 674 334 675Q336 677 355 677H373L379 671V211H471V165H379V114Q379 73 379 66T385 54Q393 47 442 46H471V0H462ZM293 211V545L74 212L183 211H293Z"></path>
<path stroke-width="1" id="E1-MJMAIN-33" d="M127 463Q100 463 85 480T69 524Q69 579 117 622T233 665Q268 665 277 664Q351 652 390 611T430 522Q430 470 396 421T302 350L299 348Q299 347 308 345T337 336T375 315Q457 262 457 175Q457 96 395 37T238 -22Q158 -22 100 21T42 130Q42 158 60 175T105 193Q133 193 151 175T169 130Q169 119 166 110T159 94T148 82T136 74T126 70T118 67L114 66Q165 21 238 21Q293 21 321 74Q338 107 338 175V195Q338 290 274 322Q259 328 213 329L171 330L168 332Q166 335 166 348Q166 366 174 366Q202 366 232 371Q266 376 294 413T322 525V533Q322 590 287 612Q265 626 240 626Q208 626 181 615T143 592T132 580H135Q138 579 143 578T153 573T165 566T175 555T183 540T186 520Q186 498 172 481T127 463Z"></path>
<path stroke-width="1" id="E1-MJMAIN-32" d="M109 429Q82 429 66 447T50 491Q50 562 103 614T235 666Q326 666 387 610T449 465Q449 422 429 383T381 315T301 241Q265 210 201 149L142 93L218 92Q375 92 385 97Q392 99 409 186V189H449V186Q448 183 436 95T421 3V0H50V19V31Q50 38 56 46T86 81Q115 113 136 137Q145 147 170 174T204 211T233 244T261 278T284 308T305 340T320 369T333 401T340 431T343 464Q343 527 309 573T212 619Q179 619 154 602T119 569T109 550Q109 549 114 549Q132 549 151 535T170 489Q170 464 154 447T109 429Z"></path>
</defs>
<g stroke="currentColor" fill="currentColor" stroke-width="0" transform="matrix(1 0 0 -1 0 0)">
<g transform="translate(0,4424)">
 <use xlink:href="#E1-MJSZ4-23A1" x="0" y="-1155"></use>
<g transform="translate(0,-6590.321849482373) scale(1,8.02540936895916)">
 <use xlink:href="#E1-MJSZ4-23A2"></use>
</g>
 <use xlink:href="#E1-MJSZ4-23A3" x="0" y="-7705"></use>
</g>
<g transform="translate(834,0)">
<g transform="translate(-11,0)">
 <use xlink:href="#E1-MJMAIN-30" x="106" y="3624"></use>
 <use xlink:href="#E1-MJMAIN-30" x="106" y="2224"></use>
 <use xlink:href="#E1-MJMAIN-30" x="106" y="824"></use>
 <use xlink:href="#E1-MJMAIN-30" x="106" y="-576"></use>
 <use xlink:href="#E1-MJMAIN-30" x="106" y="-1976"></use>
<g transform="translate(0,-3493)">
<g transform="translate(120,0)">
<rect stroke="none" width="473" height="60" x="0" y="220"></rect>
 <use transform="scale(0.707)" xlink:href="#E1-MJMAIN-31" x="84" y="629"></use>
 <use transform="scale(0.707)" xlink:href="#E1-MJMAIN-36" x="84" y="-589"></use>
</g>
</g>
</g>
<g transform="translate(1703,0)">
 <use xlink:href="#E1-MJMAIN-31" x="106" y="3624"></use>
 <use xlink:href="#E1-MJMAIN-30" x="106" y="2224"></use>
 <use xlink:href="#E1-MJMAIN-30" x="106" y="824"></use>
 <use xlink:href="#E1-MJMAIN-30" x="106" y="-576"></use>
 <use xlink:href="#E1-MJMAIN-30" x="106" y="-1976"></use>
<g transform="translate(0,-3493)">
<g transform="translate(120,0)">
<rect stroke="none" width="473" height="60" x="0" y="220"></rect>
 <use transform="scale(0.707)" xlink:href="#E1-MJMAIN-31" x="84" y="629"></use>
 <use transform="scale(0.707)" xlink:href="#E1-MJMAIN-36" x="84" y="-589"></use>
</g>
</g>
</g>
<g transform="translate(3417,0)">
 <use xlink:href="#E1-MJMAIN-30" x="106" y="3624"></use>
 <use xlink:href="#E1-MJMAIN-31" x="106" y="2224"></use>
 <use xlink:href="#E1-MJMAIN-30" x="106" y="824"></use>
 <use xlink:href="#E1-MJMAIN-30" x="106" y="-576"></use>
 <use xlink:href="#E1-MJMAIN-30" x="106" y="-1976"></use>
<g transform="translate(0,-3493)">
<g transform="translate(120,0)">
<rect stroke="none" width="473" height="60" x="0" y="220"></rect>
 <use transform="scale(0.707)" xlink:href="#E1-MJMAIN-31" x="84" y="629"></use>
 <use transform="scale(0.707)" xlink:href="#E1-MJMAIN-36" x="84" y="-589"></use>
</g>
</g>
</g>
<g transform="translate(5131,0)">
 <use xlink:href="#E1-MJMAIN-30" x="106" y="3624"></use>
 <use xlink:href="#E1-MJMAIN-30" x="106" y="2224"></use>
 <use xlink:href="#E1-MJMAIN-31" x="106" y="824"></use>
 <use xlink:href="#E1-MJMAIN-30" x="106" y="-576"></use>
 <use xlink:href="#E1-MJMAIN-30" x="106" y="-1976"></use>
<g transform="translate(0,-3493)">
<g transform="translate(120,0)">
<rect stroke="none" width="473" height="60" x="0" y="220"></rect>
 <use transform="scale(0.707)" xlink:href="#E1-MJMAIN-31" x="84" y="629"></use>
 <use transform="scale(0.707)" xlink:href="#E1-MJMAIN-36" x="84" y="-589"></use>
</g>
</g>
</g>
<g transform="translate(6845,0)">
 <use xlink:href="#E1-MJMAIN-30" x="106" y="3624"></use>
 <use xlink:href="#E1-MJMAIN-30" x="106" y="2224"></use>
 <use xlink:href="#E1-MJMAIN-30" x="106" y="824"></use>
 <use xlink:href="#E1-MJMAIN-31" x="106" y="-576"></use>
 <use xlink:href="#E1-MJMAIN-30" x="106" y="-1976"></use>
<g transform="translate(0,-3493)">
<g transform="translate(120,0)">
<rect stroke="none" width="473" height="60" x="0" y="220"></rect>
 <use transform="scale(0.707)" xlink:href="#E1-MJMAIN-31" x="84" y="629"></use>
 <use transform="scale(0.707)" xlink:href="#E1-MJMAIN-36" x="84" y="-589"></use>
</g>
</g>
</g>
<g transform="translate(8559,0)">
 <use xlink:href="#E1-MJMAIN-30" x="106" y="3624"></use>
 <use xlink:href="#E1-MJMAIN-30" x="106" y="2224"></use>
 <use xlink:href="#E1-MJMAIN-30" x="106" y="824"></use>
 <use xlink:href="#E1-MJMAIN-30" x="106" y="-576"></use>
 <use xlink:href="#E1-MJMAIN-31" x="106" y="-1976"></use>
<g transform="translate(0,-3493)">
<g transform="translate(120,0)">
<rect stroke="none" width="473" height="60" x="0" y="220"></rect>
 <use transform="scale(0.707)" xlink:href="#E1-MJMAIN-31" x="84" y="629"></use>
 <use transform="scale(0.707)" xlink:href="#E1-MJMAIN-36" x="84" y="-589"></use>
</g>
</g>
</g>
</g>
<g transform="translate(10274,4424)">
 <use xlink:href="#E1-MJSZ4-23A4" x="0" y="-1155"></use>
<g transform="translate(0,-6590.321849482373) scale(1,8.02540936895916)">
 <use xlink:href="#E1-MJSZ4-23A5"></use>
</g>
 <use xlink:href="#E1-MJSZ4-23A6" x="0" y="-7705"></use>
</g>
<g transform="translate(12,-4439)">
 <use xlink:href="#E1-MJSZ4-E152" x="23" y="0"></use>
<g transform="translate(586.6111965783002,0) scale(10.801178587189494,1)">
 <use xlink:href="#E1-MJSZ4-E154"></use>
</g>
<g transform="translate(5020,0)">
 <use xlink:href="#E1-MJSZ4-E151"></use>
 <use xlink:href="#E1-MJSZ4-E150" x="450" y="0"></use>
</g>
<g transform="translate(6024.106203197887,0) scale(10.801178587189494,1)">
 <use xlink:href="#E1-MJSZ4-E154"></use>
</g>
 <use xlink:href="#E1-MJSZ4-E153" x="10467" y="0"></use>
</g>
<g transform="translate(4831,-5327)">
 <use transform="scale(0.707)" xlink:href="#E1-MJMAIN-3A"></use>
 <use transform="scale(0.707)" xlink:href="#E1-MJMAIN-3D" x="278" y="0"></use>
 <use transform="scale(0.707)" xlink:href="#E1-MJMATHI-41" x="1057" y="0"></use>
</g>
<g transform="translate(11108,0)">
<g transform="translate(0,4403)">
 <use xlink:href="#E1-MJSZ4-23A1" x="0" y="-1155"></use>
<g transform="translate(0,-6547.0463576158945) scale(1,7.953642384105961)">
 <use xlink:href="#E1-MJSZ4-23A2"></use>
</g>
 <use xlink:href="#E1-MJSZ4-23A3" x="0" y="-7661"></use>
</g>
<g transform="translate(834,0)">
<g transform="translate(-11,0)">
<g transform="translate(0,3603)">
 <use xlink:href="#E1-MJMATHI-50" x="0" y="0"></use>
 <use xlink:href="#E1-MJMAIN-28" x="751" y="0"></use>
 <use xlink:href="#E1-MJMATHI-6E" x="1141" y="0"></use>
 <use xlink:href="#E1-MJMAIN-2212" x="1963" y="0"></use>
 <use xlink:href="#E1-MJMAIN-36" x="2964" y="0"></use>
 <use xlink:href="#E1-MJMAIN-29" x="3464" y="0"></use>
</g>
<g transform="translate(0,2152)">
 <use xlink:href="#E1-MJMATHI-50" x="0" y="0"></use>
 <use xlink:href="#E1-MJMAIN-28" x="751" y="0"></use>
 <use xlink:href="#E1-MJMATHI-6E" x="1141" y="0"></use>
 <use xlink:href="#E1-MJMAIN-2212" x="1963" y="0"></use>
 <use xlink:href="#E1-MJMAIN-35" x="2964" y="0"></use>
 <use xlink:href="#E1-MJMAIN-29" x="3464" y="0"></use>
</g>
<g transform="translate(0,701)">
 <use xlink:href="#E1-MJMATHI-50" x="0" y="0"></use>
 <use xlink:href="#E1-MJMAIN-28" x="751" y="0"></use>
 <use xlink:href="#E1-MJMATHI-6E" x="1141" y="0"></use>
 <use xlink:href="#E1-MJMAIN-2212" x="1963" y="0"></use>
 <use xlink:href="#E1-MJMAIN-34" x="2964" y="0"></use>
 <use xlink:href="#E1-MJMAIN-29" x="3464" y="0"></use>
</g>
<g transform="translate(0,-750)">
 <use xlink:href="#E1-MJMATHI-50" x="0" y="0"></use>
 <use xlink:href="#E1-MJMAIN-28" x="751" y="0"></use>
 <use xlink:href="#E1-MJMATHI-6E" x="1141" y="0"></use>
 <use xlink:href="#E1-MJMAIN-2212" x="1963" y="0"></use>
 <use xlink:href="#E1-MJMAIN-33" x="2964" y="0"></use>
 <use xlink:href="#E1-MJMAIN-29" x="3464" y="0"></use>
</g>
<g transform="translate(0,-2201)">
 <use xlink:href="#E1-MJMATHI-50" x="0" y="0"></use>
 <use xlink:href="#E1-MJMAIN-28" x="751" y="0"></use>
 <use xlink:href="#E1-MJMATHI-6E" x="1141" y="0"></use>
 <use xlink:href="#E1-MJMAIN-2212" x="1963" y="0"></use>
 <use xlink:href="#E1-MJMAIN-32" x="2964" y="0"></use>
 <use xlink:href="#E1-MJMAIN-29" x="3464" y="0"></use>
</g>
<g transform="translate(0,-3652)">
 <use xlink:href="#E1-MJMATHI-50" x="0" y="0"></use>
 <use xlink:href="#E1-MJMAIN-28" x="751" y="0"></use>
 <use xlink:href="#E1-MJMATHI-6E" x="1141" y="0"></use>
 <use xlink:href="#E1-MJMAIN-2212" x="1963" y="0"></use>
 <use xlink:href="#E1-MJMAIN-31" x="2964" y="0"></use>
 <use xlink:href="#E1-MJMAIN-29" x="3464" y="0"></use>
</g>
</g>
</g>
<g transform="translate(4845,4403)">
 <use xlink:href="#E1-MJSZ4-23A4" x="0" y="-1155"></use>
<g transform="translate(0,-6547.0463576158945) scale(1,7.953642384105961)">
 <use xlink:href="#E1-MJSZ4-23A5"></use>
</g>
 <use xlink:href="#E1-MJSZ4-23A6" x="0" y="-7661"></use>
</g>
</g>
 <use xlink:href="#E1-MJMAIN-3D" x="16899" y="0"></use>
<g transform="translate(17955,0)">
<g transform="translate(0,4403)">
 <use xlink:href="#E1-MJSZ4-23A1" x="0" y="-1155"></use>
<g transform="translate(0,-6547.0463576158945) scale(1,7.953642384105961)">
 <use xlink:href="#E1-MJSZ4-23A2"></use>
</g>
 <use xlink:href="#E1-MJSZ4-23A3" x="0" y="-7661"></use>
</g>
<g transform="translate(834,0)">
<g transform="translate(-11,0)">
<g transform="translate(0,3603)">
 <use xlink:href="#E1-MJMATHI-50" x="0" y="0"></use>
 <use xlink:href="#E1-MJMAIN-28" x="751" y="0"></use>
 <use xlink:href="#E1-MJMATHI-6E" x="1141" y="0"></use>
 <use xlink:href="#E1-MJMAIN-2212" x="1963" y="0"></use>
 <use xlink:href="#E1-MJMAIN-35" x="2964" y="0"></use>
 <use xlink:href="#E1-MJMAIN-29" x="3464" y="0"></use>
</g>
<g transform="translate(0,2152)">
 <use xlink:href="#E1-MJMATHI-50" x="0" y="0"></use>
 <use xlink:href="#E1-MJMAIN-28" x="751" y="0"></use>
 <use xlink:href="#E1-MJMATHI-6E" x="1141" y="0"></use>
 <use xlink:href="#E1-MJMAIN-2212" x="1963" y="0"></use>
 <use xlink:href="#E1-MJMAIN-34" x="2964" y="0"></use>
 <use xlink:href="#E1-MJMAIN-29" x="3464" y="0"></use>
</g>
<g transform="translate(0,701)">
 <use xlink:href="#E1-MJMATHI-50" x="0" y="0"></use>
 <use xlink:href="#E1-MJMAIN-28" x="751" y="0"></use>
 <use xlink:href="#E1-MJMATHI-6E" x="1141" y="0"></use>
 <use xlink:href="#E1-MJMAIN-2212" x="1963" y="0"></use>
 <use xlink:href="#E1-MJMAIN-33" x="2964" y="0"></use>
 <use xlink:href="#E1-MJMAIN-29" x="3464" y="0"></use>
</g>
<g transform="translate(0,-750)">
 <use xlink:href="#E1-MJMATHI-50" x="0" y="0"></use>
 <use xlink:href="#E1-MJMAIN-28" x="751" y="0"></use>
 <use xlink:href="#E1-MJMATHI-6E" x="1141" y="0"></use>
 <use xlink:href="#E1-MJMAIN-2212" x="1963" y="0"></use>
 <use xlink:href="#E1-MJMAIN-32" x="2964" y="0"></use>
 <use xlink:href="#E1-MJMAIN-29" x="3464" y="0"></use>
</g>
<g transform="translate(0,-2201)">
 <use xlink:href="#E1-MJMATHI-50" x="0" y="0"></use>
 <use xlink:href="#E1-MJMAIN-28" x="751" y="0"></use>
 <use xlink:href="#E1-MJMATHI-6E" x="1141" y="0"></use>
 <use xlink:href="#E1-MJMAIN-2212" x="1963" y="0"></use>
 <use xlink:href="#E1-MJMAIN-31" x="2964" y="0"></use>
 <use xlink:href="#E1-MJMAIN-29" x="3464" y="0"></use>
</g>
<g transform="translate(861,-3652)">
 <use xlink:href="#E1-MJMATHI-50" x="0" y="0"></use>
 <use xlink:href="#E1-MJMAIN-28" x="751" y="0"></use>
 <use xlink:href="#E1-MJMATHI-6E" x="1141" y="0"></use>
 <use xlink:href="#E1-MJMAIN-29" x="1741" y="0"></use>
</g>
</g>
</g>
<g transform="translate(4845,4403)">
 <use xlink:href="#E1-MJSZ4-23A4" x="0" y="-1155"></use>
<g transform="translate(0,-6547.0463576158945) scale(1,7.953642384105961)">
 <use xlink:href="#E1-MJSZ4-23A5"></use>
</g>
 <use xlink:href="#E1-MJSZ4-23A6" x="0" y="-7661"></use>
</g>
</g>
</g>
</svg>