<svg xmlns:xlink="http://www.w3.org/1999/xlink" width="34.862ex" height="5.176ex" style="font-size: 15px; vertical-align: -1.838ex;" viewBox="0 -1437.2 15009.8 2228.5" role="img" focusable="false" xmlns="http://www.w3.org/2000/svg">
<defs>
<path stroke-width="1" id="E1-MJMAIN-31" d="M213 578L200 573Q186 568 160 563T102 556H83V602H102Q149 604 189 617T245 641T273 663Q275 666 285 666Q294 666 302 660V361L303 61Q310 54 315 52T339 48T401 46H427V0H416Q395 3 257 3Q121 3 100 0H88V46H114Q136 46 152 46T177 47T193 50T201 52T207 57T213 61V578Z"></path>
<path stroke-width="1" id="E1-MJMAIN-2217" d="M229 286Q216 420 216 436Q216 454 240 464Q241 464 245 464T251 465Q263 464 273 456T283 436Q283 419 277 356T270 286L328 328Q384 369 389 372T399 375Q412 375 423 365T435 338Q435 325 425 315Q420 312 357 282T289 250L355 219L425 184Q434 175 434 161Q434 146 425 136T401 125Q393 125 383 131T328 171L270 213Q283 79 283 63Q283 53 276 44T250 35Q231 35 224 44T216 63Q216 80 222 143T229 213L171 171Q115 130 110 127Q106 124 100 124Q87 124 76 134T64 161Q64 166 64 169T67 175T72 181T81 188T94 195T113 204T138 215T170 230T210 250L74 315Q65 324 65 338Q65 353 74 363T98 374Q106 374 116 368T171 328L229 286Z"></path>
<path stroke-width="1" id="E1-MJMAIN-28" d="M94 250Q94 319 104 381T127 488T164 576T202 643T244 695T277 729T302 750H315H319Q333 750 333 741Q333 738 316 720T275 667T226 581T184 443T167 250T184 58T225 -81T274 -167T316 -220T333 -241Q333 -250 318 -250H315H302L274 -226Q180 -141 137 -14T94 250Z"></path>
<path stroke-width="1" id="E1-MJMAIN-32" d="M109 429Q82 429 66 447T50 491Q50 562 103 614T235 666Q326 666 387 610T449 465Q449 422 429 383T381 315T301 241Q265 210 201 149L142 93L218 92Q375 92 385 97Q392 99 409 186V189H449V186Q448 183 436 95T421 3V0H50V19V31Q50 38 56 46T86 81Q115 113 136 137Q145 147 170 174T204 211T233 244T261 278T284 308T305 340T320 369T333 401T340 431T343 464Q343 527 309 573T212 619Q179 619 154 602T119 569T109 550Q109 549 114 549Q132 549 151 535T170 489Q170 464 154 447T109 429Z"></path>
<path stroke-width="1" id="E1-MJMAIN-29" d="M60 749L64 750Q69 750 74 750H86L114 726Q208 641 251 514T294 250Q294 182 284 119T261 12T224 -76T186 -143T145 -194T113 -227T90 -246Q87 -249 86 -250H74Q66 -250 63 -250T58 -247T55 -238Q56 -237 66 -225Q221 -64 221 250T66 725Q56 737 55 738Q55 746 60 749Z"></path>
<path stroke-width="1" id="E1-MJMAIN-2B" d="M56 237T56 250T70 270H369V420L370 570Q380 583 389 583Q402 583 409 568V270H707Q722 262 722 250T707 230H409V-68Q401 -82 391 -82H389H387Q375 -82 369 -68V230H70Q56 237 56 250Z"></path>
<path stroke-width="1" id="E1-MJMAIN-33" d="M127 463Q100 463 85 480T69 524Q69 579 117 622T233 665Q268 665 277 664Q351 652 390 611T430 522Q430 470 396 421T302 350L299 348Q299 347 308 345T337 336T375 315Q457 262 457 175Q457 96 395 37T238 -22Q158 -22 100 21T42 130Q42 158 60 175T105 193Q133 193 151 175T169 130Q169 119 166 110T159 94T148 82T136 74T126 70T118 67L114 66Q165 21 238 21Q293 21 321 74Q338 107 338 175V195Q338 290 274 322Q259 328 213 329L171 330L168 332Q166 335 166 348Q166 366 174 366Q202 366 232 371Q266 376 294 413T322 525V533Q322 590 287 612Q265 626 240 626Q208 626 181 615T143 592T132 580H135Q138 579 143 578T153 573T165 566T175 555T183 540T186 520Q186 498 172 481T127 463Z"></path>
<path stroke-width="1" id="E1-MJMAIN-2E" d="M78 60Q78 84 95 102T138 120Q162 120 180 104T199 61Q199 36 182 18T139 0T96 17T78 60Z"></path>
</defs>
<g stroke="currentColor" fill="currentColor" stroke-width="0" transform="matrix(1 0 0 -1 0 0)">
 <use xlink:href="#E1-MJMAIN-31" x="0" y="0"></use>
 <use xlink:href="#E1-MJMAIN-2217" x="722" y="0"></use>
 <use xlink:href="#E1-MJMAIN-28" x="1445" y="0"></use>
<g transform="translate(1834,0)">
<g transform="translate(120,0)">
<rect stroke="none" width="620" height="60" x="0" y="220"></rect>
 <use xlink:href="#E1-MJMAIN-31" x="60" y="676"></use>
 <use xlink:href="#E1-MJMAIN-32" x="60" y="-687"></use>
</g>
</g>
<g transform="translate(2695,0)">
 <use xlink:href="#E1-MJMAIN-29" x="0" y="0"></use>
 <use transform="scale(0.707)" xlink:href="#E1-MJMAIN-31" x="550" y="583"></use>
</g>
 <use xlink:href="#E1-MJMAIN-2B" x="3761" y="0"></use>
 <use xlink:href="#E1-MJMAIN-32" x="4761" y="0"></use>
 <use xlink:href="#E1-MJMAIN-2217" x="5484" y="0"></use>
 <use xlink:href="#E1-MJMAIN-28" x="6207" y="0"></use>
<g transform="translate(6596,0)">
<g transform="translate(120,0)">
<rect stroke="none" width="620" height="60" x="0" y="220"></rect>
 <use xlink:href="#E1-MJMAIN-31" x="60" y="676"></use>
 <use xlink:href="#E1-MJMAIN-32" x="60" y="-687"></use>
</g>
</g>
<g transform="translate(7457,0)">
 <use xlink:href="#E1-MJMAIN-29" x="0" y="0"></use>
 <use transform="scale(0.707)" xlink:href="#E1-MJMAIN-32" x="550" y="583"></use>
</g>
 <use xlink:href="#E1-MJMAIN-2B" x="8522" y="0"></use>
 <use xlink:href="#E1-MJMAIN-33" x="9523" y="0"></use>
 <use xlink:href="#E1-MJMAIN-2217" x="10246" y="0"></use>
 <use xlink:href="#E1-MJMAIN-28" x="10969" y="0"></use>
<g transform="translate(11358,0)">
<g transform="translate(120,0)">
<rect stroke="none" width="620" height="60" x="0" y="220"></rect>
 <use xlink:href="#E1-MJMAIN-31" x="60" y="676"></use>
 <use xlink:href="#E1-MJMAIN-32" x="60" y="-687"></use>
</g>
</g>
<g transform="translate(12219,0)">
 <use xlink:href="#E1-MJMAIN-29" x="0" y="0"></use>
 <use transform="scale(0.707)" xlink:href="#E1-MJMAIN-33" x="550" y="583"></use>
</g>
 <use xlink:href="#E1-MJMAIN-2B" x="13062" y="0"></use>
 <use xlink:href="#E1-MJMAIN-2E" x="13840" y="0"></use>
 <use xlink:href="#E1-MJMAIN-2E" x="14286" y="0"></use>
 <use xlink:href="#E1-MJMAIN-2E" x="14731" y="0"></use>
</g>
</svg>