<svg xmlns:xlink="http://www.w3.org/1999/xlink" width="58.091ex" height="6.176ex" style="vertical-align: -2.338ex; font-size: 15px;" viewBox="0 -1652.5 25011.3 2659.1" role="img" focusable="false" xmlns="http://www.w3.org/2000/svg">
<defs>
<path stroke-width="1" id="E1-MJMATHI-45" d="M492 213Q472 213 472 226Q472 230 477 250T482 285Q482 316 461 323T364 330H312Q311 328 277 192T243 52Q243 48 254 48T334 46Q428 46 458 48T518 61Q567 77 599 117T670 248Q680 270 683 272Q690 274 698 274Q718 274 718 261Q613 7 608 2Q605 0 322 0H133Q31 0 31 11Q31 13 34 25Q38 41 42 43T65 46Q92 46 125 49Q139 52 144 61Q146 66 215 342T285 622Q285 629 281 629Q273 632 228 634H197Q191 640 191 642T193 659Q197 676 203 680H757Q764 676 764 669Q764 664 751 557T737 447Q735 440 717 440H705Q698 445 698 453L701 476Q704 500 704 528Q704 558 697 578T678 609T643 625T596 632T532 634H485Q397 633 392 631Q388 629 386 622Q385 619 355 499T324 377Q347 376 372 376H398Q464 376 489 391T534 472Q538 488 540 490T557 493Q562 493 565 493T570 492T572 491T574 487T577 483L544 351Q511 218 508 216Q505 213 492 213Z"></path>
<path stroke-width="1" id="E1-MJMAIN-28" d="M94 250Q94 319 104 381T127 488T164 576T202 643T244 695T277 729T302 750H315H319Q333 750 333 741Q333 738 316 720T275 667T226 581T184 443T167 250T184 58T225 -81T274 -167T316 -220T333 -241Q333 -250 318 -250H315H302L274 -226Q180 -141 137 -14T94 250Z"></path>
<path stroke-width="1" id="E1-MJMAIN-7C" d="M139 -249H137Q125 -249 119 -235V251L120 737Q130 750 139 750Q152 750 159 735V-235Q151 -249 141 -249H139Z"></path>
<path stroke-width="1" id="E1-MJMATHI-78" d="M52 289Q59 331 106 386T222 442Q257 442 286 424T329 379Q371 442 430 442Q467 442 494 420T522 361Q522 332 508 314T481 292T458 288Q439 288 427 299T415 328Q415 374 465 391Q454 404 425 404Q412 404 406 402Q368 386 350 336Q290 115 290 78Q290 50 306 38T341 26Q378 26 414 59T463 140Q466 150 469 151T485 153H489Q504 153 504 145Q504 144 502 134Q486 77 440 33T333 -11Q263 -11 227 52Q186 -10 133 -10H127Q78 -10 57 16T35 71Q35 103 54 123T99 143Q142 143 142 101Q142 81 130 66T107 46T94 41L91 40Q91 39 97 36T113 29T132 26Q168 26 194 71Q203 87 217 139T245 247T261 313Q266 340 266 352Q266 380 251 392T217 404Q177 404 142 372T93 290Q91 281 88 280T72 278H58Q52 284 52 289Z"></path>
<path stroke-width="1" id="E1-MJMAIN-2212" d="M84 237T84 250T98 270H679Q694 262 694 250T679 230H98Q84 237 84 250Z"></path>
<path stroke-width="1" id="E1-MJMATHI-79" d="M21 287Q21 301 36 335T84 406T158 442Q199 442 224 419T250 355Q248 336 247 334Q247 331 231 288T198 191T182 105Q182 62 196 45T238 27Q261 27 281 38T312 61T339 94Q339 95 344 114T358 173T377 247Q415 397 419 404Q432 431 462 431Q475 431 483 424T494 412T496 403Q496 390 447 193T391 -23Q363 -106 294 -155T156 -205Q111 -205 77 -183T43 -117Q43 -95 50 -80T69 -58T89 -48T106 -45Q150 -45 150 -87Q150 -107 138 -122T115 -142T102 -147L99 -148Q101 -153 118 -160T152 -167H160Q177 -167 186 -165Q219 -156 247 -127T290 -65T313 -9T321 21L315 17Q309 13 296 6T270 -6Q250 -11 231 -11Q185 -11 150 11T104 82Q103 89 103 113Q103 170 138 262T173 379Q173 380 173 381Q173 390 173 393T169 400T158 404H154Q131 404 112 385T82 344T65 302T57 280Q55 278 41 278H27Q21 284 21 287Z"></path>
<path stroke-width="1" id="E1-MJMAIN-29" d="M60 749L64 750Q69 750 74 750H86L114 726Q208 641 251 514T294 250Q294 182 284 119T261 12T224 -76T186 -143T145 -194T113 -227T90 -246Q87 -249 86 -250H74Q66 -250 63 -250T58 -247T55 -238Q56 -237 66 -225Q221 -64 221 250T66 725Q56 737 55 738Q55 746 60 749Z"></path>
<path stroke-width="1" id="E1-MJMAIN-3D" d="M56 347Q56 360 70 367H707Q722 359 722 347Q722 336 708 328L390 327H72Q56 332 56 347ZM56 153Q56 168 72 173H708Q722 163 722 153Q722 140 707 133H70Q56 140 56 153Z"></path>
<path stroke-width="1" id="E1-MJMAIN-32" d="M109 429Q82 429 66 447T50 491Q50 562 103 614T235 666Q326 666 387 610T449 465Q449 422 429 383T381 315T301 241Q265 210 201 149L142 93L218 92Q375 92 385 97Q392 99 409 186V189H449V186Q448 183 436 95T421 3V0H50V19V31Q50 38 56 46T86 81Q115 113 136 137Q145 147 170 174T204 211T233 244T261 278T284 308T305 340T320 369T333 401T340 431T343 464Q343 527 309 573T212 619Q179 619 154 602T119 569T109 550Q109 549 114 549Q132 549 151 535T170 489Q170 464 154 447T109 429Z"></path>
<path stroke-width="1" id="E1-MJMAIN-2217" d="M229 286Q216 420 216 436Q216 454 240 464Q241 464 245 464T251 465Q263 464 273 456T283 436Q283 419 277 356T270 286L328 328Q384 369 389 372T399 375Q412 375 423 365T435 338Q435 325 425 315Q420 312 357 282T289 250L355 219L425 184Q434 175 434 161Q434 146 425 136T401 125Q393 125 383 131T328 171L270 213Q283 79 283 63Q283 53 276 44T250 35Q231 35 224 44T216 63Q216 80 222 143T229 213L171 171Q115 130 110 127Q106 124 100 124Q87 124 76 134T64 161Q64 166 64 169T67 175T72 181T81 188T94 195T113 204T138 215T170 230T210 250L74 315Q65 324 65 338Q65 353 74 363T98 374Q106 374 116 368T171 328L229 286Z"></path>
<path stroke-width="1" id="E1-MJSZ2-222B" d="M114 -798Q132 -824 165 -824H167Q195 -824 223 -764T275 -600T320 -391T362 -164Q365 -143 367 -133Q439 292 523 655T645 1127Q651 1145 655 1157T672 1201T699 1257T733 1306T777 1346T828 1360Q884 1360 912 1325T944 1245Q944 1220 932 1205T909 1186T887 1183Q866 1183 849 1198T832 1239Q832 1287 885 1296L882 1300Q879 1303 874 1307T866 1313Q851 1323 833 1323Q819 1323 807 1311T775 1255T736 1139T689 936T633 628Q574 293 510 -5T410 -437T355 -629Q278 -862 165 -862Q125 -862 92 -831T55 -746Q55 -711 74 -698T112 -685Q133 -685 150 -700T167 -741Q167 -789 114 -798Z"></path>
<path stroke-width="1" id="E1-MJMATHI-4C" d="M228 637Q194 637 192 641Q191 643 191 649Q191 673 202 682Q204 683 217 683Q271 680 344 680Q485 680 506 683H518Q524 677 524 674T522 656Q517 641 513 637H475Q406 636 394 628Q387 624 380 600T313 336Q297 271 279 198T252 88L243 52Q243 48 252 48T311 46H328Q360 46 379 47T428 54T478 72T522 106T564 161Q580 191 594 228T611 270Q616 273 628 273H641Q647 264 647 262T627 203T583 83T557 9Q555 4 553 3T537 0T494 -1Q483 -1 418 -1T294 0H116Q32 0 32 10Q32 17 34 24Q39 43 44 45Q48 46 59 46H65Q92 46 125 49Q139 52 144 61Q147 65 216 339T285 628Q285 635 228 637Z"></path>
<path stroke-width="1" id="E1-MJMAIN-30" d="M96 585Q152 666 249 666Q297 666 345 640T423 548Q460 465 460 320Q460 165 417 83Q397 41 362 16T301 -15T250 -22Q224 -22 198 -16T137 16T82 83Q39 165 39 320Q39 494 96 585ZM321 597Q291 629 250 629Q208 629 178 597Q153 571 145 525T137 333Q137 175 145 125T181 46Q209 16 250 16Q290 16 318 46Q347 76 354 130T362 333Q362 478 354 524T321 597Z"></path>
<path stroke-width="1" id="E1-MJMAIN-31" d="M213 578L200 573Q186 568 160 563T102 556H83V602H102Q149 604 189 617T245 641T273 663Q275 666 285 666Q294 666 302 660V361L303 61Q310 54 315 52T339 48T401 46H427V0H416Q395 3 257 3Q121 3 100 0H88V46H114Q136 46 152 46T177 47T193 50T201 52T207 57T213 61V578Z"></path>
<path stroke-width="1" id="E1-MJMAIN-64" d="M376 495Q376 511 376 535T377 568Q377 613 367 624T316 637H298V660Q298 683 300 683L310 684Q320 685 339 686T376 688Q393 689 413 690T443 693T454 694H457V390Q457 84 458 81Q461 61 472 55T517 46H535V0Q533 0 459 -5T380 -11H373V44L365 37Q307 -11 235 -11Q158 -11 96 50T34 215Q34 315 97 378T244 442Q319 442 376 393V495ZM373 342Q328 405 260 405Q211 405 173 369Q146 341 139 305T131 211Q131 155 138 120T173 59Q203 26 251 26Q322 26 373 103V342Z"></path>
<path stroke-width="1" id="E1-MJMAIN-33" d="M127 463Q100 463 85 480T69 524Q69 579 117 622T233 665Q268 665 277 664Q351 652 390 611T430 522Q430 470 396 421T302 350L299 348Q299 347 308 345T337 336T375 315Q457 262 457 175Q457 96 395 37T238 -22Q158 -22 100 21T42 130Q42 158 60 175T105 193Q133 193 151 175T169 130Q169 119 166 110T159 94T148 82T136 74T126 70T118 67L114 66Q165 21 238 21Q293 21 321 74Q338 107 338 175V195Q338 290 274 322Q259 328 213 329L171 330L168 332Q166 335 166 348Q166 366 174 366Q202 366 232 371Q266 376 294 413T322 525V533Q322 590 287 612Q265 626 240 626Q208 626 181 615T143 592T132 580H135Q138 579 143 578T153 573T165 566T175 555T183 540T186 520Q186 498 172 481T127 463Z"></path>
</defs>
<g stroke="currentColor" fill="currentColor" stroke-width="0" transform="matrix(1 0 0 -1 0 0)">
 <use xlink:href="#E1-MJMATHI-45" x="0" y="0"></use>
 <use xlink:href="#E1-MJMAIN-28" x="764" y="0"></use>
 <use xlink:href="#E1-MJMAIN-7C" x="1154" y="0"></use>
 <use xlink:href="#E1-MJMATHI-78" x="1432" y="0"></use>
 <use xlink:href="#E1-MJMAIN-2212" x="2227" y="0"></use>
 <use xlink:href="#E1-MJMATHI-79" x="3227" y="0"></use>
 <use xlink:href="#E1-MJMAIN-7C" x="3725" y="0"></use>
 <use xlink:href="#E1-MJMAIN-29" x="4003" y="0"></use>
 <use xlink:href="#E1-MJMAIN-3D" x="4671" y="0"></use>
 <use xlink:href="#E1-MJMAIN-32" x="5727" y="0"></use>
 <use xlink:href="#E1-MJMAIN-2217" x="6450" y="0"></use>
 <use xlink:href="#E1-MJMATHI-45" x="7172" y="0"></use>
 <use xlink:href="#E1-MJMAIN-28" x="7937" y="0"></use>
 <use xlink:href="#E1-MJMATHI-78" x="8326" y="0"></use>
 <use xlink:href="#E1-MJMAIN-2212" x="9121" y="0"></use>
 <use xlink:href="#E1-MJMATHI-79" x="10122" y="0"></use>
 <use xlink:href="#E1-MJMAIN-29" x="10619" y="0"></use>
 <use xlink:href="#E1-MJMAIN-3D" x="11287" y="0"></use>
<g transform="translate(12343,0)">
 <use xlink:href="#E1-MJSZ2-222B" x="0" y="0"></use>
 <use transform="scale(0.707)" xlink:href="#E1-MJMATHI-4C" x="1500" y="1540"></use>
 <use transform="scale(0.707)" xlink:href="#E1-MJMAIN-30" x="787" y="-1270"></use>
</g>
<g transform="translate(14152,0)">
 <use xlink:href="#E1-MJSZ2-222B" x="0" y="0"></use>
 <use transform="scale(0.707)" xlink:href="#E1-MJMATHI-78" x="1500" y="1540"></use>
 <use transform="scale(0.707)" xlink:href="#E1-MJMAIN-30" x="787" y="-1270"></use>
</g>
 <use xlink:href="#E1-MJMAIN-28" x="15718" y="0"></use>
 <use xlink:href="#E1-MJMATHI-78" x="16108" y="0"></use>
 <use xlink:href="#E1-MJMAIN-2212" x="16902" y="0"></use>
 <use xlink:href="#E1-MJMATHI-79" x="17903" y="0"></use>
 <use xlink:href="#E1-MJMAIN-29" x="18401" y="0"></use>
<g transform="translate(18790,0)">
<g transform="translate(120,0)">
<rect stroke="none" width="1255" height="60" x="0" y="220"></rect>
 <use xlink:href="#E1-MJMAIN-31" x="377" y="676"></use>
<g transform="translate(60,-780)">
 <use xlink:href="#E1-MJMATHI-4C" x="0" y="0"></use>
 <use transform="scale(0.707)" xlink:href="#E1-MJMAIN-32" x="963" y="408"></use>
</g>
</g>
</g>
 <use xlink:href="#E1-MJMAIN-64" x="20452" y="0"></use>
 <use xlink:href="#E1-MJMATHI-79" x="21009" y="0"></use>
 <use xlink:href="#E1-MJMAIN-64" x="21506" y="0"></use>
 <use xlink:href="#E1-MJMATHI-78" x="22063" y="0"></use>
 <use xlink:href="#E1-MJMAIN-3D" x="22913" y="0"></use>
<g transform="translate(23692,0)">
<g transform="translate(397,0)">
<rect stroke="none" width="801" height="60" x="0" y="220"></rect>
 <use xlink:href="#E1-MJMATHI-4C" x="60" y="676"></use>
 <use xlink:href="#E1-MJMAIN-33" x="150" y="-686"></use>
</g>
</g>
</g>
</svg>