<svg xmlns:xlink="http://www.w3.org/1999/xlink" width="37.898ex" height="6.343ex" style="vertical-align: -2.671ex; font-size: 15px;" viewBox="0 -1580.7 16317.3 2730.8" role="img" focusable="false" xmlns="http://www.w3.org/2000/svg">
<defs>
<path stroke-width="1" id="E1-MJMATHI-41" d="M208 74Q208 50 254 46Q272 46 272 35Q272 34 270 22Q267 8 264 4T251 0Q249 0 239 0T205 1T141 2Q70 2 50 0H42Q35 7 35 11Q37 38 48 46H62Q132 49 164 96Q170 102 345 401T523 704Q530 716 547 716H555H572Q578 707 578 706L606 383Q634 60 636 57Q641 46 701 46Q726 46 726 36Q726 34 723 22Q720 7 718 4T704 0Q701 0 690 0T651 1T578 2Q484 2 455 0H443Q437 6 437 9T439 27Q443 40 445 43L449 46H469Q523 49 533 63L521 213H283L249 155Q208 86 208 74ZM516 260Q516 271 504 416T490 562L463 519Q447 492 400 412L310 260L413 259Q516 259 516 260Z"></path>
<path stroke-width="1" id="E1-MJMAIN-2212" d="M84 237T84 250T98 270H679Q694 262 694 250T679 230H98Q84 237 84 250Z"></path>
<path stroke-width="1" id="E1-MJMAIN-31" d="M213 578L200 573Q186 568 160 563T102 556H83V602H102Q149 604 189 617T245 641T273 663Q275 666 285 666Q294 666 302 660V361L303 61Q310 54 315 52T339 48T401 46H427V0H416Q395 3 257 3Q121 3 100 0H88V46H114Q136 46 152 46T177 47T193 50T201 52T207 57T213 61V578Z"></path>
<path stroke-width="1" id="E1-MJMAIN-3D" d="M56 347Q56 360 70 367H707Q722 359 722 347Q722 336 708 328L390 327H72Q56 332 56 347ZM56 153Q56 168 72 173H708Q722 163 722 153Q722 140 707 133H70Q56 140 56 153Z"></path>
<path stroke-width="1" id="E1-MJMAIN-7C" d="M139 -249H137Q125 -249 119 -235V251L120 737Q130 750 139 750Q152 750 159 735V-235Q151 -249 141 -249H139Z"></path>
<path stroke-width="1" id="E1-MJMAIN-2217" d="M229 286Q216 420 216 436Q216 454 240 464Q241 464 245 464T251 465Q263 464 273 456T283 436Q283 419 277 356T270 286L328 328Q384 369 389 372T399 375Q412 375 423 365T435 338Q435 325 425 315Q420 312 357 282T289 250L355 219L425 184Q434 175 434 161Q434 146 425 136T401 125Q393 125 383 131T328 171L270 213Q283 79 283 63Q283 53 276 44T250 35Q231 35 224 44T216 63Q216 80 222 143T229 213L171 171Q115 130 110 127Q106 124 100 124Q87 124 76 134T64 161Q64 166 64 169T67 175T72 181T81 188T94 195T113 204T138 215T170 230T210 250L74 315Q65 324 65 338Q65 353 74 363T98 374Q106 374 116 368T171 328L229 286Z"></path>
<path stroke-width="1" id="E1-MJMATHI-61" d="M33 157Q33 258 109 349T280 441Q331 441 370 392Q386 422 416 422Q429 422 439 414T449 394Q449 381 412 234T374 68Q374 43 381 35T402 26Q411 27 422 35Q443 55 463 131Q469 151 473 152Q475 153 483 153H487Q506 153 506 144Q506 138 501 117T481 63T449 13Q436 0 417 -8Q409 -10 393 -10Q359 -10 336 5T306 36L300 51Q299 52 296 50Q294 48 292 46Q233 -10 172 -10Q117 -10 75 30T33 157ZM351 328Q351 334 346 350T323 385T277 405Q242 405 210 374T160 293Q131 214 119 129Q119 126 119 118T118 106Q118 61 136 44T179 26Q217 26 254 59T298 110Q300 114 325 217T351 328Z"></path>
<path stroke-width="1" id="E1-MJMATHI-64" d="M366 683Q367 683 438 688T511 694Q523 694 523 686Q523 679 450 384T375 83T374 68Q374 26 402 26Q411 27 422 35Q443 55 463 131Q469 151 473 152Q475 153 483 153H487H491Q506 153 506 145Q506 140 503 129Q490 79 473 48T445 8T417 -8Q409 -10 393 -10Q359 -10 336 5T306 36L300 51Q299 52 296 50Q294 48 292 46Q233 -10 172 -10Q117 -10 75 30T33 157Q33 205 53 255T101 341Q148 398 195 420T280 442Q336 442 364 400Q369 394 369 396Q370 400 396 505T424 616Q424 629 417 632T378 637H357Q351 643 351 645T353 664Q358 683 366 683ZM352 326Q329 405 277 405Q242 405 210 374T160 293Q131 214 119 129Q119 126 119 118T118 106Q118 61 136 44T179 26Q233 26 290 98L298 109L352 326Z"></path>
<path stroke-width="1" id="E1-MJMATHI-62" d="M73 647Q73 657 77 670T89 683Q90 683 161 688T234 694Q246 694 246 685T212 542Q204 508 195 472T180 418L176 399Q176 396 182 402Q231 442 283 442Q345 442 383 396T422 280Q422 169 343 79T173 -11Q123 -11 82 27T40 150V159Q40 180 48 217T97 414Q147 611 147 623T109 637Q104 637 101 637H96Q86 637 83 637T76 640T73 647ZM336 325V331Q336 405 275 405Q258 405 240 397T207 376T181 352T163 330L157 322L136 236Q114 150 114 114Q114 66 138 42Q154 26 178 26Q211 26 245 58Q270 81 285 114T318 219Q336 291 336 325Z"></path>
<path stroke-width="1" id="E1-MJMATHI-63" d="M34 159Q34 268 120 355T306 442Q362 442 394 418T427 355Q427 326 408 306T360 285Q341 285 330 295T319 325T330 359T352 380T366 386H367Q367 388 361 392T340 400T306 404Q276 404 249 390Q228 381 206 359Q162 315 142 235T121 119Q121 73 147 50Q169 26 205 26H209Q321 26 394 111Q403 121 406 121Q410 121 419 112T429 98T420 83T391 55T346 25T282 0T202 -11Q127 -11 81 37T34 159Z"></path>
<path stroke-width="1" id="E1-MJMAIN-22C5" d="M78 250Q78 274 95 292T138 310Q162 310 180 294T199 251Q199 226 182 208T139 190T96 207T78 250Z"></path>
<path stroke-width="1" id="E1-MJMAIN-5B" d="M118 -250V750H255V710H158V-210H255V-250H118Z"></path>
<path stroke-width="1" id="E1-MJMAIN-5D" d="M22 710V750H159V-250H22V-210H119V710H22Z"></path>
<path stroke-width="1" id="E1-MJSZ3-5B" d="M247 -949V1450H516V1388H309V-887H516V-949H247Z"></path>
<path stroke-width="1" id="E1-MJSZ3-5D" d="M11 1388V1450H280V-949H11V-887H218V1388H11Z"></path>
</defs>
<g stroke="currentColor" fill="currentColor" stroke-width="0" transform="matrix(1 0 0 -1 0 0)">
 <use xlink:href="#E1-MJMATHI-41" x="0" y="0"></use>
<g transform="translate(750,412)">
 <use transform="scale(0.707)" xlink:href="#E1-MJMAIN-2212" x="0" y="0"></use>
 <use transform="scale(0.707)" xlink:href="#E1-MJMAIN-31" x="778" y="0"></use>
</g>
 <use xlink:href="#E1-MJMAIN-3D" x="2032" y="0"></use>
<g transform="translate(2811,0)">
<g transform="translate(397,0)">
<rect stroke="none" width="1427" height="60" x="0" y="220"></rect>
 <use xlink:href="#E1-MJMAIN-31" x="463" y="676"></use>
<g transform="translate(60,-771)">
 <use xlink:href="#E1-MJMAIN-7C" x="0" y="0"></use>
 <use xlink:href="#E1-MJMATHI-41" x="278" y="0"></use>
 <use xlink:href="#E1-MJMAIN-7C" x="1029" y="0"></use>
</g>
</g>
</g>
<g transform="translate(4756,0)">
 <use xlink:href="#E1-MJMATHI-41" x="0" y="0"></use>
 <use transform="scale(0.707)" xlink:href="#E1-MJMAIN-2217" x="1061" y="583"></use>
</g>
 <use xlink:href="#E1-MJMAIN-3D" x="6238" y="0"></use>
<g transform="translate(7017,0)">
<g transform="translate(397,0)">
<rect stroke="none" width="3258" height="60" x="0" y="220"></rect>
 <use xlink:href="#E1-MJMAIN-31" x="1379" y="676"></use>
<g transform="translate(60,-715)">
 <use xlink:href="#E1-MJMATHI-61" x="0" y="0"></use>
 <use xlink:href="#E1-MJMATHI-64" x="529" y="0"></use>
 <use xlink:href="#E1-MJMAIN-2212" x="1275" y="0"></use>
 <use xlink:href="#E1-MJMATHI-62" x="2275" y="0"></use>
 <use xlink:href="#E1-MJMATHI-63" x="2705" y="0"></use>
</g>
</g>
</g>
 <use xlink:href="#E1-MJMAIN-22C5" x="11016" y="0"></use>
<g transform="translate(11516,0)">
 <use xlink:href="#E1-MJSZ3-5B"></use>
<g transform="translate(695,0)">
<g transform="translate(-11,0)">
 <use xlink:href="#E1-MJMATHI-64" x="344" y="650"></use>
<g transform="translate(0,-750)">
 <use xlink:href="#E1-MJMAIN-2212" x="0" y="0"></use>
 <use xlink:href="#E1-MJMATHI-63" x="778" y="0"></use>
</g>
</g>
<g transform="translate(2201,0)">
<g transform="translate(0,650)">
 <use xlink:href="#E1-MJMAIN-2212" x="0" y="0"></use>
 <use xlink:href="#E1-MJMATHI-62" x="778" y="0"></use>
</g>
 <use xlink:href="#E1-MJMATHI-61" x="339" y="-750"></use>
</g>
</g>
 <use xlink:href="#E1-MJSZ3-5D" x="4272" y="-1"></use>
</g>
</g>
</svg>