<svg xmlns:xlink="http://www.w3.org/1999/xlink" width="75.252ex" height="16.509ex" style="vertical-align: -7.671ex; font-size: 15px;" viewBox="0 -3805.2 32399.9 7108.1" role="img" focusable="false" xmlns="http://www.w3.org/2000/svg">
<defs>
<path stroke-width="1" id="E1-MJMATHI-61" d="M33 157Q33 258 109 349T280 441Q331 441 370 392Q386 422 416 422Q429 422 439 414T449 394Q449 381 412 234T374 68Q374 43 381 35T402 26Q411 27 422 35Q443 55 463 131Q469 151 473 152Q475 153 483 153H487Q506 153 506 144Q506 138 501 117T481 63T449 13Q436 0 417 -8Q409 -10 393 -10Q359 -10 336 5T306 36L300 51Q299 52 296 50Q294 48 292 46Q233 -10 172 -10Q117 -10 75 30T33 157ZM351 328Q351 334 346 350T323 385T277 405Q242 405 210 374T160 293Q131 214 119 129Q119 126 119 118T118 106Q118 61 136 44T179 26Q217 26 254 59T298 110Q300 114 325 217T351 328Z"></path>
<path stroke-width="1" id="E1-MJMAIN-32" d="M109 429Q82 429 66 447T50 491Q50 562 103 614T235 666Q326 666 387 610T449 465Q449 422 429 383T381 315T301 241Q265 210 201 149L142 93L218 92Q375 92 385 97Q392 99 409 186V189H449V186Q448 183 436 95T421 3V0H50V19V31Q50 38 56 46T86 81Q115 113 136 137Q145 147 170 174T204 211T233 244T261 278T284 308T305 340T320 369T333 401T340 431T343 464Q343 527 309 573T212 619Q179 619 154 602T119 569T109 550Q109 549 114 549Q132 549 151 535T170 489Q170 464 154 447T109 429Z"></path>
<path stroke-width="1" id="E1-MJMAIN-2B" d="M56 237T56 250T70 270H369V420L370 570Q380 583 389 583Q402 583 409 568V270H707Q722 262 722 250T707 230H409V-68Q401 -82 391 -82H389H387Q375 -82 369 -68V230H70Q56 237 56 250Z"></path>
<path stroke-width="1" id="E1-MJMATHI-62" d="M73 647Q73 657 77 670T89 683Q90 683 161 688T234 694Q246 694 246 685T212 542Q204 508 195 472T180 418L176 399Q176 396 182 402Q231 442 283 442Q345 442 383 396T422 280Q422 169 343 79T173 -11Q123 -11 82 27T40 150V159Q40 180 48 217T97 414Q147 611 147 623T109 637Q104 637 101 637H96Q86 637 83 637T76 640T73 647ZM336 325V331Q336 405 275 405Q258 405 240 397T207 376T181 352T163 330L157 322L136 236Q114 150 114 114Q114 66 138 42Q154 26 178 26Q211 26 245 58Q270 81 285 114T318 219Q336 291 336 325Z"></path>
<path stroke-width="1" id="E1-MJMATHI-63" d="M34 159Q34 268 120 355T306 442Q362 442 394 418T427 355Q427 326 408 306T360 285Q341 285 330 295T319 325T330 359T352 380T366 386H367Q367 388 361 392T340 400T306 404Q276 404 249 390Q228 381 206 359Q162 315 142 235T121 119Q121 73 147 50Q169 26 205 26H209Q321 26 394 111Q403 121 406 121Q410 121 419 112T429 98T420 83T391 55T346 25T282 0T202 -11Q127 -11 81 37T34 159Z"></path>
<path stroke-width="1" id="E1-MJMAIN-2212" d="M84 237T84 250T98 270H679Q694 262 694 250T679 230H98Q84 237 84 250Z"></path>
<path stroke-width="1" id="E1-MJMAIN-3D" d="M56 347Q56 360 70 367H707Q722 359 722 347Q722 336 708 328L390 327H72Q56 332 56 347ZM56 153Q56 168 72 173H708Q722 163 722 153Q722 140 707 133H70Q56 140 56 153Z"></path>
<path stroke-width="1" id="E1-MJMATHI-6B" d="M121 647Q121 657 125 670T137 683Q138 683 209 688T282 694Q294 694 294 686Q294 679 244 477Q194 279 194 272Q213 282 223 291Q247 309 292 354T362 415Q402 442 438 442Q468 442 485 423T503 369Q503 344 496 327T477 302T456 291T438 288Q418 288 406 299T394 328Q394 353 410 369T442 390L458 393Q446 405 434 405H430Q398 402 367 380T294 316T228 255Q230 254 243 252T267 246T293 238T320 224T342 206T359 180T365 147Q365 130 360 106T354 66Q354 26 381 26Q429 26 459 145Q461 153 479 153H483Q499 153 499 144Q499 139 496 130Q455 -11 378 -11Q333 -11 305 15T277 90Q277 108 280 121T283 145Q283 167 269 183T234 206T200 217T182 220H180Q168 178 159 139T145 81T136 44T129 20T122 7T111 -2Q98 -11 83 -11Q66 -11 57 -1T48 16Q48 26 85 176T158 471L195 616Q196 629 188 632T149 637H144Q134 637 131 637T124 640T121 647Z"></path>
<path stroke-width="1" id="E1-MJMAIN-28" d="M94 250Q94 319 104 381T127 488T164 576T202 643T244 695T277 729T302 750H315H319Q333 750 333 741Q333 738 316 720T275 667T226 581T184 443T167 250T184 58T225 -81T274 -167T316 -220T333 -241Q333 -250 318 -250H315H302L274 -226Q180 -141 137 -14T94 250Z"></path>
<path stroke-width="1" id="E1-MJMATHI-78" d="M52 289Q59 331 106 386T222 442Q257 442 286 424T329 379Q371 442 430 442Q467 442 494 420T522 361Q522 332 508 314T481 292T458 288Q439 288 427 299T415 328Q415 374 465 391Q454 404 425 404Q412 404 406 402Q368 386 350 336Q290 115 290 78Q290 50 306 38T341 26Q378 26 414 59T463 140Q466 150 469 151T485 153H489Q504 153 504 145Q504 144 502 134Q486 77 440 33T333 -11Q263 -11 227 52Q186 -10 133 -10H127Q78 -10 57 16T35 71Q35 103 54 123T99 143Q142 143 142 101Q142 81 130 66T107 46T94 41L91 40Q91 39 97 36T113 29T132 26Q168 26 194 71Q203 87 217 139T245 247T261 313Q266 340 266 352Q266 380 251 392T217 404Q177 404 142 372T93 290Q91 281 88 280T72 278H58Q52 284 52 289Z"></path>
<path stroke-width="1" id="E1-MJMAIN-29" d="M60 749L64 750Q69 750 74 750H86L114 726Q208 641 251 514T294 250Q294 182 284 119T261 12T224 -76T186 -143T145 -194T113 -227T90 -246Q87 -249 86 -250H74Q66 -250 63 -250T58 -247T55 -238Q56 -237 66 -225Q221 -64 221 250T66 725Q56 737 55 738Q55 746 60 749Z"></path>
<path stroke-width="1" id="E1-MJMATHI-4B" d="M285 628Q285 635 228 637Q205 637 198 638T191 647Q191 649 193 661Q199 681 203 682Q205 683 214 683H219Q260 681 355 681Q389 681 418 681T463 682T483 682Q500 682 500 674Q500 669 497 660Q496 658 496 654T495 648T493 644T490 641T486 639T479 638T470 637T456 637Q416 636 405 634T387 623L306 305Q307 305 490 449T678 597Q692 611 692 620Q692 635 667 637Q651 637 651 648Q651 650 654 662T659 677Q662 682 676 682Q680 682 711 681T791 680Q814 680 839 681T869 682Q889 682 889 672Q889 650 881 642Q878 637 862 637Q787 632 726 586Q710 576 656 534T556 455L509 418L518 396Q527 374 546 329T581 244Q656 67 661 61Q663 59 666 57Q680 47 717 46H738Q744 38 744 37T741 19Q737 6 731 0H720Q680 3 625 3Q503 3 488 0H478Q472 6 472 9T474 27Q478 40 480 43T491 46H494Q544 46 544 71Q544 75 517 141T485 216L427 354L359 301L291 248L268 155Q245 63 245 58Q245 51 253 49T303 46H334Q340 37 340 35Q340 19 333 5Q328 0 317 0Q314 0 280 1T180 2Q118 2 85 2T49 1Q31 1 31 11Q31 13 34 25Q38 41 42 43T65 46Q92 46 125 49Q139 52 144 61Q147 65 216 339T285 628Z"></path>
<path stroke-width="1" id="E1-MJMAIN-31" d="M213 578L200 573Q186 568 160 563T102 556H83V602H102Q149 604 189 617T245 641T273 663Q275 666 285 666Q294 666 302 660V361L303 61Q310 54 315 52T339 48T401 46H427V0H416Q395 3 257 3Q121 3 100 0H88V46H114Q136 46 152 46T177 47T193 50T201 52T207 57T213 61V578Z"></path>
<path stroke-width="1" id="E1-MJMAIN-34" d="M462 0Q444 3 333 3Q217 3 199 0H190V46H221Q241 46 248 46T265 48T279 53T286 61Q287 63 287 115V165H28V211L179 442Q332 674 334 675Q336 677 355 677H373L379 671V211H471V165H379V114Q379 73 379 66T385 54Q393 47 442 46H471V0H462ZM293 211V545L74 212L183 211H293Z"></path>
<path stroke-width="1" id="E1-MJMAIN-33" d="M127 463Q100 463 85 480T69 524Q69 579 117 622T233 665Q268 665 277 664Q351 652 390 611T430 522Q430 470 396 421T302 350L299 348Q299 347 308 345T337 336T375 315Q457 262 457 175Q457 96 395 37T238 -22Q158 -22 100 21T42 130Q42 158 60 175T105 193Q133 193 151 175T169 130Q169 119 166 110T159 94T148 82T136 74T126 70T118 67L114 66Q165 21 238 21Q293 21 321 74Q338 107 338 175V195Q338 290 274 322Q259 328 213 329L171 330L168 332Q166 335 166 348Q166 366 174 366Q202 366 232 371Q266 376 294 413T322 525V533Q322 590 287 612Q265 626 240 626Q208 626 181 615T143 592T132 580H135Q138 579 143 578T153 573T165 566T175 555T183 540T186 520Q186 498 172 481T127 463Z"></path>
</defs>
<g stroke="currentColor" fill="currentColor" stroke-width="0" transform="matrix(1 0 0 -1 0 0)">
<g transform="translate(167,0)">
<g transform="translate(-11,0)">
<g transform="translate(19366,2778)">
 <use xlink:href="#E1-MJMATHI-61" x="0" y="0"></use>
 <use transform="scale(0.707)" xlink:href="#E1-MJMAIN-32" x="748" y="583"></use>
 <use xlink:href="#E1-MJMAIN-2B" x="1205" y="0"></use>
<g transform="translate(2206,0)">
 <use xlink:href="#E1-MJMATHI-62" x="0" y="0"></use>
 <use transform="scale(0.707)" xlink:href="#E1-MJMAIN-32" x="607" y="583"></use>
</g>
 <use xlink:href="#E1-MJMAIN-2B" x="3311" y="0"></use>
<g transform="translate(4312,0)">
 <use xlink:href="#E1-MJMATHI-63" x="0" y="0"></use>
 <use transform="scale(0.707)" xlink:href="#E1-MJMAIN-32" x="613" y="583"></use>
</g>
 <use xlink:href="#E1-MJMAIN-2212" x="5422" y="0"></use>
 <use xlink:href="#E1-MJMATHI-61" x="6423" y="0"></use>
 <use xlink:href="#E1-MJMATHI-62" x="6952" y="0"></use>
 <use xlink:href="#E1-MJMAIN-2212" x="7604" y="0"></use>
 <use xlink:href="#E1-MJMATHI-62" x="8604" y="0"></use>
 <use xlink:href="#E1-MJMATHI-63" x="9034" y="0"></use>
 <use xlink:href="#E1-MJMAIN-2212" x="9690" y="0"></use>
 <use xlink:href="#E1-MJMATHI-63" x="10690" y="0"></use>
 <use xlink:href="#E1-MJMATHI-61" x="11124" y="0"></use>
 <use xlink:href="#E1-MJMAIN-3D" x="11931" y="0"></use>
</g>
<g transform="translate(0,1394)">
 <use xlink:href="#E1-MJMATHI-6B" x="0" y="0"></use>
 <use transform="scale(0.707)" xlink:href="#E1-MJMAIN-32" x="737" y="583"></use>
 <use xlink:href="#E1-MJMAIN-28" x="975" y="0"></use>
 <use xlink:href="#E1-MJMATHI-78" x="1364" y="0"></use>
 <use xlink:href="#E1-MJMAIN-2B" x="2159" y="0"></use>
 <use xlink:href="#E1-MJMATHI-6B" x="3160" y="0"></use>
<g transform="translate(3681,0)">
 <use xlink:href="#E1-MJMAIN-29" x="0" y="0"></use>
 <use transform="scale(0.707)" xlink:href="#E1-MJMAIN-32" x="550" y="583"></use>
</g>
 <use xlink:href="#E1-MJMAIN-2B" x="4747" y="0"></use>
 <use xlink:href="#E1-MJMAIN-28" x="5748" y="0"></use>
<g transform="translate(6137,0)">
 <use xlink:href="#E1-MJMATHI-6B" x="0" y="0"></use>
 <use transform="scale(0.707)" xlink:href="#E1-MJMAIN-32" x="737" y="583"></use>
</g>
 <use xlink:href="#E1-MJMAIN-28" x="7113" y="0"></use>
 <use xlink:href="#E1-MJMATHI-78" x="7502" y="0"></use>
 <use xlink:href="#E1-MJMAIN-2B" x="8297" y="0"></use>
 <use xlink:href="#E1-MJMATHI-6B" x="9298" y="0"></use>
<g transform="translate(9819,0)">
 <use xlink:href="#E1-MJMAIN-29" x="0" y="0"></use>
 <use transform="scale(0.707)" xlink:href="#E1-MJMAIN-32" x="550" y="583"></use>
</g>
 <use xlink:href="#E1-MJMAIN-2B" x="10885" y="0"></use>
 <use xlink:href="#E1-MJMAIN-32" x="11885" y="0"></use>
 <use xlink:href="#E1-MJMATHI-6B" x="12386" y="0"></use>
 <use xlink:href="#E1-MJMAIN-28" x="12907" y="0"></use>
 <use xlink:href="#E1-MJMATHI-78" x="13297" y="0"></use>
 <use xlink:href="#E1-MJMAIN-2B" x="14092" y="0"></use>
 <use xlink:href="#E1-MJMATHI-4B" x="15092" y="0"></use>
 <use xlink:href="#E1-MJMAIN-29" x="15982" y="0"></use>
 <use xlink:href="#E1-MJMAIN-2B" x="16594" y="0"></use>
 <use xlink:href="#E1-MJMAIN-31" x="17594" y="0"></use>
 <use xlink:href="#E1-MJMAIN-29" x="18095" y="0"></use>
 <use xlink:href="#E1-MJMAIN-2B" x="18707" y="0"></use>
 <use xlink:href="#E1-MJMAIN-28" x="19707" y="0"></use>
<g transform="translate(20097,0)">
 <use xlink:href="#E1-MJMATHI-6B" x="0" y="0"></use>
 <use transform="scale(0.707)" xlink:href="#E1-MJMAIN-32" x="737" y="583"></use>
</g>
 <use xlink:href="#E1-MJMAIN-28" x="21072" y="0"></use>
 <use xlink:href="#E1-MJMATHI-78" x="21462" y="0"></use>
 <use xlink:href="#E1-MJMAIN-2B" x="22256" y="0"></use>
 <use xlink:href="#E1-MJMATHI-6B" x="23257" y="0"></use>
<g transform="translate(23779,0)">
 <use xlink:href="#E1-MJMAIN-29" x="0" y="0"></use>
 <use transform="scale(0.707)" xlink:href="#E1-MJMAIN-32" x="550" y="583"></use>
</g>
 <use xlink:href="#E1-MJMAIN-2B" x="24844" y="0"></use>
 <use xlink:href="#E1-MJMAIN-34" x="25845" y="0"></use>
 <use xlink:href="#E1-MJMATHI-6B" x="26345" y="0"></use>
 <use xlink:href="#E1-MJMAIN-28" x="26867" y="0"></use>
 <use xlink:href="#E1-MJMATHI-78" x="27256" y="0"></use>
 <use xlink:href="#E1-MJMAIN-2B" x="28051" y="0"></use>
 <use xlink:href="#E1-MJMATHI-6B" x="29052" y="0"></use>
 <use xlink:href="#E1-MJMAIN-29" x="29573" y="0"></use>
 <use xlink:href="#E1-MJMAIN-2B" x="30185" y="0"></use>
 <use xlink:href="#E1-MJMAIN-34" x="31186" y="0"></use>
 <use xlink:href="#E1-MJMAIN-29" x="31686" y="0"></use>
</g>
<g transform="translate(22711,-42)">
 <use xlink:href="#E1-MJMAIN-2212" x="0" y="0"></use>
<g transform="translate(778,0)">
 <use xlink:href="#E1-MJMATHI-6B" x="0" y="0"></use>
 <use transform="scale(0.707)" xlink:href="#E1-MJMAIN-32" x="737" y="583"></use>
</g>
 <use xlink:href="#E1-MJMAIN-28" x="1753" y="0"></use>
 <use xlink:href="#E1-MJMATHI-78" x="2143" y="0"></use>
 <use xlink:href="#E1-MJMAIN-2B" x="2938" y="0"></use>
 <use xlink:href="#E1-MJMATHI-6B" x="3938" y="0"></use>
<g transform="translate(4460,0)">
 <use xlink:href="#E1-MJMAIN-29" x="0" y="0"></use>
 <use transform="scale(0.707)" xlink:href="#E1-MJMAIN-32" x="550" y="583"></use>
</g>
 <use xlink:href="#E1-MJMAIN-2212" x="5525" y="0"></use>
 <use xlink:href="#E1-MJMATHI-6B" x="6526" y="0"></use>
 <use xlink:href="#E1-MJMATHI-78" x="7048" y="0"></use>
 <use xlink:href="#E1-MJMAIN-2B" x="7842" y="0"></use>
 <use xlink:href="#E1-MJMATHI-6B" x="8843" y="0"></use>
</g>
<g transform="translate(20983,-1477)">
 <use xlink:href="#E1-MJMAIN-2212" x="0" y="0"></use>
<g transform="translate(778,0)">
 <use xlink:href="#E1-MJMATHI-6B" x="0" y="0"></use>
 <use transform="scale(0.707)" xlink:href="#E1-MJMAIN-32" x="737" y="583"></use>
</g>
 <use xlink:href="#E1-MJMAIN-28" x="1753" y="0"></use>
 <use xlink:href="#E1-MJMATHI-78" x="2143" y="0"></use>
 <use xlink:href="#E1-MJMAIN-2B" x="2938" y="0"></use>
 <use xlink:href="#E1-MJMATHI-6B" x="3938" y="0"></use>
<g transform="translate(4460,0)">
 <use xlink:href="#E1-MJMAIN-29" x="0" y="0"></use>
 <use transform="scale(0.707)" xlink:href="#E1-MJMAIN-32" x="550" y="583"></use>
</g>
 <use xlink:href="#E1-MJMAIN-2212" x="5525" y="0"></use>
 <use xlink:href="#E1-MJMAIN-33" x="6526" y="0"></use>
 <use xlink:href="#E1-MJMATHI-6B" x="7027" y="0"></use>
 <use xlink:href="#E1-MJMAIN-28" x="7548" y="0"></use>
<g transform="translate(7938,0)">
 <use xlink:href="#E1-MJMATHI-78" x="0" y="0"></use>
 <use transform="scale(0.707)" xlink:href="#E1-MJMATHI-6B" x="809" y="-213"></use>
</g>
 <use xlink:href="#E1-MJMAIN-29" x="8979" y="0"></use>
 <use xlink:href="#E1-MJMAIN-2212" x="9591" y="0"></use>
 <use xlink:href="#E1-MJMAIN-32" x="10591" y="0"></use>
</g>
<g transform="translate(21431,-2913)">
 <use xlink:href="#E1-MJMAIN-2212" x="0" y="0"></use>
<g transform="translate(778,0)">
 <use xlink:href="#E1-MJMATHI-6B" x="0" y="0"></use>
 <use transform="scale(0.707)" xlink:href="#E1-MJMAIN-32" x="737" y="583"></use>
</g>
 <use xlink:href="#E1-MJMAIN-28" x="1753" y="0"></use>
 <use xlink:href="#E1-MJMATHI-78" x="2143" y="0"></use>
 <use xlink:href="#E1-MJMAIN-2B" x="2938" y="0"></use>
 <use xlink:href="#E1-MJMATHI-6B" x="3938" y="0"></use>
<g transform="translate(4460,0)">
 <use xlink:href="#E1-MJMAIN-29" x="0" y="0"></use>
 <use transform="scale(0.707)" xlink:href="#E1-MJMAIN-32" x="550" y="583"></use>
</g>
 <use xlink:href="#E1-MJMAIN-2B" x="5525" y="0"></use>
 <use xlink:href="#E1-MJMAIN-32" x="6526" y="0"></use>
 <use xlink:href="#E1-MJMATHI-6B" x="7027" y="0"></use>
 <use xlink:href="#E1-MJMAIN-28" x="7548" y="0"></use>
 <use xlink:href="#E1-MJMATHI-78" x="7938" y="0"></use>
 <use xlink:href="#E1-MJMAIN-2B" x="8732" y="0"></use>
 <use xlink:href="#E1-MJMATHI-6B" x="9733" y="0"></use>
 <use xlink:href="#E1-MJMAIN-29" x="10255" y="0"></use>
</g>
</g>
</g>
</g>
</svg>