<svg xmlns:xlink="http://www.w3.org/1999/xlink" width="25.274ex" height="6.509ex" style="vertical-align: -2.671ex; font-size: 15px;" viewBox="0 -1652.5 10881.9 2802.6" role="img" focusable="false" xmlns="http://www.w3.org/2000/svg">
<defs>
<path stroke-width="1" id="E1-MJMATHI-70" d="M23 287Q24 290 25 295T30 317T40 348T55 381T75 411T101 433T134 442Q209 442 230 378L240 387Q302 442 358 442Q423 442 460 395T497 281Q497 173 421 82T249 -10Q227 -10 210 -4Q199 1 187 11T168 28L161 36Q160 35 139 -51T118 -138Q118 -144 126 -145T163 -148H188Q194 -155 194 -157T191 -175Q188 -187 185 -190T172 -194Q170 -194 161 -194T127 -193T65 -192Q-5 -192 -24 -194H-32Q-39 -187 -39 -183Q-37 -156 -26 -148H-6Q28 -147 33 -136Q36 -130 94 103T155 350Q156 355 156 364Q156 405 131 405Q109 405 94 377T71 316T59 280Q57 278 43 278H29Q23 284 23 287ZM178 102Q200 26 252 26Q282 26 310 49T356 107Q374 141 392 215T411 325V331Q411 405 350 405Q339 405 328 402T306 393T286 380T269 365T254 350T243 336T235 326L232 322Q232 321 229 308T218 264T204 212Q178 106 178 102Z"></path>
<path stroke-width="1" id="E1-MJMAIN-5B" d="M118 -250V750H255V710H158V-210H255V-250H118Z"></path>
<path stroke-width="1" id="E1-MJMAIN-30" d="M96 585Q152 666 249 666Q297 666 345 640T423 548Q460 465 460 320Q460 165 417 83Q397 41 362 16T301 -15T250 -22Q224 -22 198 -16T137 16T82 83Q39 165 39 320Q39 494 96 585ZM321 597Q291 629 250 629Q208 629 178 597Q153 571 145 525T137 333Q137 175 145 125T181 46Q209 16 250 16Q290 16 318 46Q347 76 354 130T362 333Q362 478 354 524T321 597Z"></path>
<path stroke-width="1" id="E1-MJMAIN-5D" d="M22 710V750H159V-250H22V-210H119V710H22Z"></path>
<path stroke-width="1" id="E1-MJMAIN-2212" d="M84 237T84 250T98 270H679Q694 262 694 250T679 230H98Q84 237 84 250Z"></path>
<path stroke-width="1" id="E1-MJMATHI-78" d="M52 289Q59 331 106 386T222 442Q257 442 286 424T329 379Q371 442 430 442Q467 442 494 420T522 361Q522 332 508 314T481 292T458 288Q439 288 427 299T415 328Q415 374 465 391Q454 404 425 404Q412 404 406 402Q368 386 350 336Q290 115 290 78Q290 50 306 38T341 26Q378 26 414 59T463 140Q466 150 469 151T485 153H489Q504 153 504 145Q504 144 502 134Q486 77 440 33T333 -11Q263 -11 227 52Q186 -10 133 -10H127Q78 -10 57 16T35 71Q35 103 54 123T99 143Q142 143 142 101Q142 81 130 66T107 46T94 41L91 40Q91 39 97 36T113 29T132 26Q168 26 194 71Q203 87 217 139T245 247T261 313Q266 340 266 352Q266 380 251 392T217 404Q177 404 142 372T93 290Q91 281 88 280T72 278H58Q52 284 52 289Z"></path>
<path stroke-width="1" id="E1-MJMATHI-79" d="M21 287Q21 301 36 335T84 406T158 442Q199 442 224 419T250 355Q248 336 247 334Q247 331 231 288T198 191T182 105Q182 62 196 45T238 27Q261 27 281 38T312 61T339 94Q339 95 344 114T358 173T377 247Q415 397 419 404Q432 431 462 431Q475 431 483 424T494 412T496 403Q496 390 447 193T391 -23Q363 -106 294 -155T156 -205Q111 -205 77 -183T43 -117Q43 -95 50 -80T69 -58T89 -48T106 -45Q150 -45 150 -87Q150 -107 138 -122T115 -142T102 -147L99 -148Q101 -153 118 -160T152 -167H160Q177 -167 186 -165Q219 -156 247 -127T290 -65T313 -9T321 21L315 17Q309 13 296 6T270 -6Q250 -11 231 -11Q185 -11 150 11T104 82Q103 89 103 113Q103 170 138 262T173 379Q173 380 173 381Q173 390 173 393T169 400T158 404H154Q131 404 112 385T82 344T65 302T57 280Q55 278 41 278H27Q21 284 21 287Z"></path>
<path stroke-width="1" id="E1-MJMAIN-3D" d="M56 347Q56 360 70 367H707Q722 359 722 347Q722 336 708 328L390 327H72Q56 332 56 347ZM56 153Q56 168 72 173H708Q722 163 722 153Q722 140 707 133H70Q56 140 56 153Z"></path>
<path stroke-width="1" id="E1-MJMAIN-31" d="M213 578L200 573Q186 568 160 563T102 556H83V602H102Q149 604 189 617T245 641T273 663Q275 666 285 666Q294 666 302 660V361L303 61Q310 54 315 52T339 48T401 46H427V0H416Q395 3 257 3Q121 3 100 0H88V46H114Q136 46 152 46T177 47T193 50T201 52T207 57T213 61V578Z"></path>
</defs>
<g stroke="currentColor" fill="currentColor" stroke-width="0" transform="matrix(1 0 0 -1 0 0)">
<g transform="translate(120,0)">
<rect stroke="none" width="4533" height="60" x="0" y="220"></rect>
<g transform="translate(60,770)">
 <use xlink:href="#E1-MJMATHI-70" x="0" y="0"></use>
 <use xlink:href="#E1-MJMAIN-5B" x="503" y="0"></use>
 <use xlink:href="#E1-MJMAIN-30" x="782" y="0"></use>
 <use xlink:href="#E1-MJMAIN-5D" x="1282" y="0"></use>
 <use xlink:href="#E1-MJMAIN-2212" x="1783" y="0"></use>
 <use xlink:href="#E1-MJMATHI-78" x="2783" y="0"></use>
 <use xlink:href="#E1-MJMAIN-5B" x="3356" y="0"></use>
 <use xlink:href="#E1-MJMAIN-30" x="3634" y="0"></use>
 <use xlink:href="#E1-MJMAIN-5D" x="4135" y="0"></use>
</g>
<g transform="translate(63,-771)">
 <use xlink:href="#E1-MJMATHI-79" x="0" y="0"></use>
 <use xlink:href="#E1-MJMAIN-5B" x="497" y="0"></use>
 <use xlink:href="#E1-MJMAIN-30" x="776" y="0"></use>
 <use xlink:href="#E1-MJMAIN-5D" x="1276" y="0"></use>
 <use xlink:href="#E1-MJMAIN-2212" x="1777" y="0"></use>
 <use xlink:href="#E1-MJMATHI-78" x="2777" y="0"></use>
 <use xlink:href="#E1-MJMAIN-5B" x="3350" y="0"></use>
 <use xlink:href="#E1-MJMAIN-30" x="3628" y="0"></use>
 <use xlink:href="#E1-MJMAIN-5D" x="4129" y="0"></use>
</g>
</g>
 <use xlink:href="#E1-MJMAIN-3D" x="5051" y="0"></use>
<g transform="translate(5830,0)">
<g transform="translate(397,0)">
<rect stroke="none" width="4533" height="60" x="0" y="220"></rect>
<g transform="translate(60,770)">
 <use xlink:href="#E1-MJMATHI-70" x="0" y="0"></use>
 <use xlink:href="#E1-MJMAIN-5B" x="503" y="0"></use>
 <use xlink:href="#E1-MJMAIN-31" x="782" y="0"></use>
 <use xlink:href="#E1-MJMAIN-5D" x="1282" y="0"></use>
 <use xlink:href="#E1-MJMAIN-2212" x="1783" y="0"></use>
 <use xlink:href="#E1-MJMATHI-78" x="2783" y="0"></use>
 <use xlink:href="#E1-MJMAIN-5B" x="3356" y="0"></use>
 <use xlink:href="#E1-MJMAIN-31" x="3634" y="0"></use>
 <use xlink:href="#E1-MJMAIN-5D" x="4135" y="0"></use>
</g>
<g transform="translate(63,-771)">
 <use xlink:href="#E1-MJMATHI-79" x="0" y="0"></use>
 <use xlink:href="#E1-MJMAIN-5B" x="497" y="0"></use>
 <use xlink:href="#E1-MJMAIN-31" x="776" y="0"></use>
 <use xlink:href="#E1-MJMAIN-5D" x="1276" y="0"></use>
 <use xlink:href="#E1-MJMAIN-2212" x="1777" y="0"></use>
 <use xlink:href="#E1-MJMATHI-78" x="2777" y="0"></use>
 <use xlink:href="#E1-MJMAIN-5B" x="3350" y="0"></use>
 <use xlink:href="#E1-MJMAIN-31" x="3628" y="0"></use>
 <use xlink:href="#E1-MJMAIN-5D" x="4129" y="0"></use>
</g>
</g>
</g>
</g>
</svg>