<svg xmlns:xlink="http://www.w3.org/1999/xlink" width="3.977ex" height="2.176ex" style="vertical-align: -0.338ex; font-size: 15px;" viewBox="0 -791.3 1712.5 936.9" role="img" focusable="false" xmlns="http://www.w3.org/2000/svg">
<defs>
<path stroke-width="1" id="E1-MJMATHI-63" d="M34 159Q34 268 120 355T306 442Q362 442 394 418T427 355Q427 326 408 306T360 285Q341 285 330 295T319 325T330 359T352 380T366 386H367Q367 388 361 392T340 400T306 404Q276 404 249 390Q228 381 206 359Q162 315 142 235T121 119Q121 73 147 50Q169 26 205 26H209Q321 26 394 111Q403 121 406 121Q410 121 419 112T429 98T420 83T391 55T346 25T282 0T202 -11Q127 -11 81 37T34 159Z"></path>
<path stroke-width="1" id="E1-MJMAIN-26" d="M156 540Q156 620 201 668T302 716Q354 716 377 671T401 578Q401 505 287 386L274 373Q309 285 416 148L429 132L437 142Q474 191 543 309L562 341V349Q562 368 541 376T498 385H493V431H502L626 428Q709 428 721 431H727V385H712Q688 384 669 379T639 369T618 354T603 337T591 316T578 295Q537 223 506 176T464 117T454 104Q454 102 471 85T497 62Q543 24 585 24Q618 24 648 48T682 113V121H722V112Q721 94 714 75T692 32T646 -7T574 -22Q491 -19 414 42L402 51L391 42Q312 -22 224 -22Q144 -22 93 25T42 135Q42 153 46 169T55 197T74 225T96 249T125 278T156 308L195 347L190 360Q185 372 182 382T174 411T165 448T159 491T156 540ZM361 576Q361 613 348 646T305 679Q272 679 252 649T232 572Q232 497 255 426L259 411L267 420Q361 519 361 576ZM140 164Q140 103 167 64T240 24Q271 24 304 36T356 61T374 77Q295 156 235 262L220 292L210 310L193 293Q177 277 169 268T151 229T140 164Z"></path>
<path stroke-width="1" id="E1-MJMAIN-31" d="M213 578L200 573Q186 568 160 563T102 556H83V602H102Q149 604 189 617T245 641T273 663Q275 666 285 666Q294 666 302 660V361L303 61Q310 54 315 52T339 48T401 46H427V0H416Q395 3 257 3Q121 3 100 0H88V46H114Q136 46 152 46T177 47T193 50T201 52T207 57T213 61V578Z"></path>
</defs>
<g stroke="currentColor" fill="currentColor" stroke-width="0" transform="matrix(1 0 0 -1 0 0)">
 <use xlink:href="#E1-MJMATHI-63" x="0" y="0"></use>
 <use xlink:href="#E1-MJMAIN-26" x="433" y="0"></use>
 <use xlink:href="#E1-MJMAIN-31" x="1212" y="0"></use>
</g>
</svg>