<svg xmlns:xlink="http://www.w3.org/1999/xlink" width="31.65ex" height="2.343ex" style="vertical-align: -0.338ex; font-size: 15px;" viewBox="0 -863.1 13627.1 1008.6" role="img" focusable="false" xmlns="http://www.w3.org/2000/svg">
<defs>
<path stroke-width="1" id="E1-MJMATHI-41" d="M208 74Q208 50 254 46Q272 46 272 35Q272 34 270 22Q267 8 264 4T251 0Q249 0 239 0T205 1T141 2Q70 2 50 0H42Q35 7 35 11Q37 38 48 46H62Q132 49 164 96Q170 102 345 401T523 704Q530 716 547 716H555H572Q578 707 578 706L606 383Q634 60 636 57Q641 46 701 46Q726 46 726 36Q726 34 723 22Q720 7 718 4T704 0Q701 0 690 0T651 1T578 2Q484 2 455 0H443Q437 6 437 9T439 27Q443 40 445 43L449 46H469Q523 49 533 63L521 213H283L249 155Q208 86 208 74ZM516 260Q516 271 504 416T490 562L463 519Q447 492 400 412L310 260L413 259Q516 259 516 260Z"></path>
<path stroke-width="1" id="E1-MJMAIN-3D" d="M56 347Q56 360 70 367H707Q722 359 722 347Q722 336 708 328L390 327H72Q56 332 56 347ZM56 153Q56 168 72 173H708Q722 163 722 153Q722 140 707 133H70Q56 140 56 153Z"></path>
<path stroke-width="1" id="E1-MJMATHI-61" d="M33 157Q33 258 109 349T280 441Q331 441 370 392Q386 422 416 422Q429 422 439 414T449 394Q449 381 412 234T374 68Q374 43 381 35T402 26Q411 27 422 35Q443 55 463 131Q469 151 473 152Q475 153 483 153H487Q506 153 506 144Q506 138 501 117T481 63T449 13Q436 0 417 -8Q409 -10 393 -10Q359 -10 336 5T306 36L300 51Q299 52 296 50Q294 48 292 46Q233 -10 172 -10Q117 -10 75 30T33 157ZM351 328Q351 334 346 350T323 385T277 405Q242 405 210 374T160 293Q131 214 119 129Q119 126 119 118T118 106Q118 61 136 44T179 26Q217 26 254 59T298 110Q300 114 325 217T351 328Z"></path>
<path stroke-width="1" id="E1-MJMAIN-2E" d="M78 60Q78 84 95 102T138 120Q162 120 180 104T199 61Q199 36 182 18T139 0T96 17T78 60Z"></path>
<path stroke-width="1" id="E1-MJMATHI-6E" d="M21 287Q22 293 24 303T36 341T56 388T89 425T135 442Q171 442 195 424T225 390T231 369Q231 367 232 367L243 378Q304 442 382 442Q436 442 469 415T503 336T465 179T427 52Q427 26 444 26Q450 26 453 27Q482 32 505 65T540 145Q542 153 560 153Q580 153 580 145Q580 144 576 130Q568 101 554 73T508 17T439 -10Q392 -10 371 17T350 73Q350 92 386 193T423 345Q423 404 379 404H374Q288 404 229 303L222 291L189 157Q156 26 151 16Q138 -11 108 -11Q95 -11 87 -5T76 7T74 17Q74 30 112 180T152 343Q153 348 153 366Q153 405 129 405Q91 405 66 305Q60 285 60 284Q58 278 41 278H27Q21 284 21 287Z"></path>
</defs>
<g stroke="currentColor" fill="currentColor" stroke-width="0" transform="matrix(1 0 0 -1 0 0)">
 <use xlink:href="#E1-MJMATHI-41" x="0" y="0"></use>
 <use xlink:href="#E1-MJMAIN-3D" x="1028" y="0"></use>
 <use xlink:href="#E1-MJMATHI-61" x="2084" y="0"></use>
 <use xlink:href="#E1-MJMATHI-41" x="2614" y="0"></use>
 <use xlink:href="#E1-MJMAIN-3D" x="3642" y="0"></use>
 <use xlink:href="#E1-MJMATHI-61" x="4698" y="0"></use>
 <use xlink:href="#E1-MJMATHI-61" x="5228" y="0"></use>
 <use xlink:href="#E1-MJMATHI-41" x="5757" y="0"></use>
 <use xlink:href="#E1-MJMAIN-3D" x="6785" y="0"></use>
 <use xlink:href="#E1-MJMATHI-61" x="7842" y="0"></use>
 <use xlink:href="#E1-MJMATHI-61" x="8371" y="0"></use>
 <use xlink:href="#E1-MJMATHI-61" x="8901" y="0"></use>
 <use xlink:href="#E1-MJMATHI-41" x="9430" y="0"></use>
 <use xlink:href="#E1-MJMAIN-2E" x="10181" y="0"></use>
 <use xlink:href="#E1-MJMAIN-2E" x="10626" y="0"></use>
 <use xlink:href="#E1-MJMAIN-2E" x="11071" y="0"></use>
 <use xlink:href="#E1-MJMAIN-3D" x="11516" y="0"></use>
<g transform="translate(12572,0)">
 <use xlink:href="#E1-MJMATHI-61" x="0" y="0"></use>
 <use transform="scale(0.707)" xlink:href="#E1-MJMATHI-6E" x="748" y="583"></use>
</g>
</g>
</svg>