<svg xmlns:xlink="http://www.w3.org/1999/xlink" width="24.866ex" height="12.843ex" style="vertical-align: -5.838ex; font-size: 15px;" viewBox="0 -3015.9 10706 5529.4" role="img" focusable="false" xmlns="http://www.w3.org/2000/svg">
<defs>
<path stroke-width="1" id="E1-MJAMS-2235" d="M23 411Q23 437 41 454T84 471Q108 471 125 454T143 411T126 368T83 351Q57 351 40 368T23 411ZM523 411Q523 437 541 454T584 471Q608 471 625 454T643 411T626 368T583 351Q557 351 540 368T523 411ZM274 -22Q274 4 291 21T334 38Q356 38 374 22T392 -22T375 -65T333 -82Q307 -82 291 -65T274 -22Z"></path>
<path stroke-width="1" id="E1-MJMATHI-41" d="M208 74Q208 50 254 46Q272 46 272 35Q272 34 270 22Q267 8 264 4T251 0Q249 0 239 0T205 1T141 2Q70 2 50 0H42Q35 7 35 11Q37 38 48 46H62Q132 49 164 96Q170 102 345 401T523 704Q530 716 547 716H555H572Q578 707 578 706L606 383Q634 60 636 57Q641 46 701 46Q726 46 726 36Q726 34 723 22Q720 7 718 4T704 0Q701 0 690 0T651 1T578 2Q484 2 455 0H443Q437 6 437 9T439 27Q443 40 445 43L449 46H469Q523 49 533 63L521 213H283L249 155Q208 86 208 74ZM516 260Q516 271 504 416T490 562L463 519Q447 492 400 412L310 260L413 259Q516 259 516 260Z"></path>
<path stroke-width="1" id="E1-MJMATHI-42" d="M231 637Q204 637 199 638T194 649Q194 676 205 682Q206 683 335 683Q594 683 608 681Q671 671 713 636T756 544Q756 480 698 429T565 360L555 357Q619 348 660 311T702 219Q702 146 630 78T453 1Q446 0 242 0Q42 0 39 2Q35 5 35 10Q35 17 37 24Q42 43 47 45Q51 46 62 46H68Q95 46 128 49Q142 52 147 61Q150 65 219 339T288 628Q288 635 231 637ZM649 544Q649 574 634 600T585 634Q578 636 493 637Q473 637 451 637T416 636H403Q388 635 384 626Q382 622 352 506Q352 503 351 500L320 374H401Q482 374 494 376Q554 386 601 434T649 544ZM595 229Q595 273 572 302T512 336Q506 337 429 337Q311 337 310 336Q310 334 293 263T258 122L240 52Q240 48 252 48T333 46Q422 46 429 47Q491 54 543 105T595 229Z"></path>
<path stroke-width="1" id="E1-MJMATHI-43" d="M50 252Q50 367 117 473T286 641T490 704Q580 704 633 653Q642 643 648 636T656 626L657 623Q660 623 684 649Q691 655 699 663T715 679T725 690L740 705H746Q760 705 760 698Q760 694 728 561Q692 422 692 421Q690 416 687 415T669 413H653Q647 419 647 422Q647 423 648 429T650 449T651 481Q651 552 619 605T510 659Q484 659 454 652T382 628T299 572T226 479Q194 422 175 346T156 222Q156 108 232 58Q280 24 350 24Q441 24 512 92T606 240Q610 253 612 255T628 257Q648 257 648 248Q648 243 647 239Q618 132 523 55T319 -22Q206 -22 128 53T50 252Z"></path>
<path stroke-width="1" id="E1-MJAMS-2234" d="M273 411Q273 437 291 454T334 471Q358 471 375 454T393 411T376 368T333 351Q307 351 290 368T273 411ZM84 38Q110 38 126 21T143 -22Q143 -46 127 -64T83 -82Q57 -82 41 -65T24 -22Q24 4 41 21T84 38ZM524 -22Q524 4 541 21T584 38Q608 38 625 21T643 -22Q643 -45 627 -63T583 -82Q557 -82 541 -65T524 -22Z"></path>
<path stroke-width="1" id="E1-MJMATHI-50" d="M287 628Q287 635 230 637Q206 637 199 638T192 648Q192 649 194 659Q200 679 203 681T397 683Q587 682 600 680Q664 669 707 631T751 530Q751 453 685 389Q616 321 507 303Q500 302 402 301H307L277 182Q247 66 247 59Q247 55 248 54T255 50T272 48T305 46H336Q342 37 342 35Q342 19 335 5Q330 0 319 0Q316 0 282 1T182 2Q120 2 87 2T51 1Q33 1 33 11Q33 13 36 25Q40 41 44 43T67 46Q94 46 127 49Q141 52 146 61Q149 65 218 339T287 628ZM645 554Q645 567 643 575T634 597T609 619T560 635Q553 636 480 637Q463 637 445 637T416 636T404 636Q391 635 386 627Q384 621 367 550T332 412T314 344Q314 342 395 342H407H430Q542 342 590 392Q617 419 631 471T645 554Z"></path>
<path stroke-width="1" id="E1-MJMAIN-28" d="M94 250Q94 319 104 381T127 488T164 576T202 643T244 695T277 729T302 750H315H319Q333 750 333 741Q333 738 316 720T275 667T226 581T184 443T167 250T184 58T225 -81T274 -167T316 -220T333 -241Q333 -250 318 -250H315H302L274 -226Q180 -141 137 -14T94 250Z"></path>
<path stroke-width="1" id="E1-MJMAIN-29" d="M60 749L64 750Q69 750 74 750H86L114 726Q208 641 251 514T294 250Q294 182 284 119T261 12T224 -76T186 -143T145 -194T113 -227T90 -246Q87 -249 86 -250H74Q66 -250 63 -250T58 -247T55 -238Q56 -237 66 -225Q221 -64 221 250T66 725Q56 737 55 738Q55 746 60 749Z"></path>
<path stroke-width="1" id="E1-MJMAIN-3D" d="M56 347Q56 360 70 367H707Q722 359 722 347Q722 336 708 328L390 327H72Q56 332 56 347ZM56 153Q56 168 72 173H708Q722 163 722 153Q722 140 707 133H70Q56 140 56 153Z"></path>
</defs>
<g stroke="currentColor" fill="currentColor" stroke-width="0" transform="matrix(1 0 0 -1 0 0)">
<g transform="translate(167,0)">
<g transform="translate(-11,0)">
<g transform="translate(0,2061)">
 <use xlink:href="#E1-MJAMS-2235" x="277" y="0"></use>
 <use xlink:href="#E1-MJMATHI-41" x="1223" y="0"></use>
<g transform="translate(1973,0)">
<text font-family="monospace" stroke="none" transform="scale(71.759) matrix(1 0 0 -1 0 0)">、</text>
</g>
 <use xlink:href="#E1-MJMATHI-42" x="3121" y="0"></use>
<g transform="translate(3881,0)">
<text font-family="monospace" stroke="none" transform="scale(71.759) matrix(1 0 0 -1 0 0)">、</text>
</g>
 <use xlink:href="#E1-MJMATHI-43" x="5029" y="0"></use>
<g transform="translate(5789,0)">
<text font-family="monospace" stroke="none" transform="scale(71.759) matrix(1 0 0 -1 0 0)">两</text>
</g>
<g transform="translate(6937,0)">
<text font-family="monospace" stroke="none" transform="scale(71.759) matrix(1 0 0 -1 0 0)">两</text>
</g>
<g transform="translate(8086,0)">
<text font-family="monospace" stroke="none" transform="scale(71.759) matrix(1 0 0 -1 0 0)">独</text>
</g>
<g transform="translate(9234,0)">
<text font-family="monospace" stroke="none" transform="scale(71.759) matrix(1 0 0 -1 0 0)">立</text>
</g>
</g>
<g transform="translate(0,530)">
 <use xlink:href="#E1-MJAMS-2234" x="277" y="0"></use>
 <use xlink:href="#E1-MJMATHI-50" x="1223" y="0"></use>
 <use xlink:href="#E1-MJMAIN-28" x="1974" y="0"></use>
 <use xlink:href="#E1-MJMATHI-41" x="2364" y="0"></use>
 <use xlink:href="#E1-MJMAIN-29" x="3114" y="0"></use>
 <use xlink:href="#E1-MJMATHI-50" x="3504" y="0"></use>
 <use xlink:href="#E1-MJMAIN-28" x="4255" y="0"></use>
 <use xlink:href="#E1-MJMATHI-42" x="4645" y="0"></use>
 <use xlink:href="#E1-MJMAIN-29" x="5404" y="0"></use>
 <use xlink:href="#E1-MJMAIN-3D" x="6071" y="0"></use>
 <use xlink:href="#E1-MJMATHI-50" x="7128" y="0"></use>
 <use xlink:href="#E1-MJMAIN-28" x="7879" y="0"></use>
 <use xlink:href="#E1-MJMATHI-41" x="8269" y="0"></use>
 <use xlink:href="#E1-MJMATHI-42" x="9019" y="0"></use>
 <use xlink:href="#E1-MJMAIN-29" x="9779" y="0"></use>
</g>
<g transform="translate(0,-821)">
 <use xlink:href="#E1-MJAMS-2234" x="277" y="0"></use>
 <use xlink:href="#E1-MJMATHI-50" x="1223" y="0"></use>
 <use xlink:href="#E1-MJMAIN-28" x="1974" y="0"></use>
 <use xlink:href="#E1-MJMATHI-41" x="2364" y="0"></use>
 <use xlink:href="#E1-MJMAIN-29" x="3114" y="0"></use>
 <use xlink:href="#E1-MJMATHI-50" x="3504" y="0"></use>
 <use xlink:href="#E1-MJMAIN-28" x="4255" y="0"></use>
 <use xlink:href="#E1-MJMATHI-43" x="4645" y="0"></use>
 <use xlink:href="#E1-MJMAIN-29" x="5405" y="0"></use>
 <use xlink:href="#E1-MJMAIN-3D" x="6072" y="0"></use>
 <use xlink:href="#E1-MJMATHI-50" x="7129" y="0"></use>
 <use xlink:href="#E1-MJMAIN-28" x="7880" y="0"></use>
 <use xlink:href="#E1-MJMATHI-41" x="8270" y="0"></use>
 <use xlink:href="#E1-MJMATHI-43" x="9020" y="0"></use>
 <use xlink:href="#E1-MJMAIN-29" x="9781" y="0"></use>
</g>
<g transform="translate(0,-2172)">
 <use xlink:href="#E1-MJAMS-2234" x="277" y="0"></use>
 <use xlink:href="#E1-MJMATHI-50" x="1223" y="0"></use>
 <use xlink:href="#E1-MJMAIN-28" x="1974" y="0"></use>
 <use xlink:href="#E1-MJMATHI-43" x="2364" y="0"></use>
 <use xlink:href="#E1-MJMAIN-29" x="3124" y="0"></use>
 <use xlink:href="#E1-MJMATHI-50" x="3514" y="0"></use>
 <use xlink:href="#E1-MJMAIN-28" x="4265" y="0"></use>
 <use xlink:href="#E1-MJMATHI-42" x="4655" y="0"></use>
 <use xlink:href="#E1-MJMAIN-29" x="5414" y="0"></use>
 <use xlink:href="#E1-MJMAIN-3D" x="6081" y="0"></use>
 <use xlink:href="#E1-MJMATHI-50" x="7138" y="0"></use>
 <use xlink:href="#E1-MJMAIN-28" x="7889" y="0"></use>
 <use xlink:href="#E1-MJMATHI-42" x="8279" y="0"></use>
 <use xlink:href="#E1-MJMATHI-43" x="9038" y="0"></use>
 <use xlink:href="#E1-MJMAIN-29" x="9799" y="0"></use>
</g>
</g>
</g>
</g>
</svg>