<svg xmlns:xlink="http://www.w3.org/1999/xlink" width="9.864ex" height="2.843ex" style="vertical-align: -0.838ex; font-size: 15px;" viewBox="0 -863.1 4247.1 1223.9" role="img" focusable="false" xmlns="http://www.w3.org/2000/svg">
<defs>
<path stroke-width="1" id="E1-MJMAINI-61" d="M418 53Q418 26 438 26Q466 26 494 131Q500 151 504 152Q507 153 516 153H521Q531 153 534 153T540 150T543 144Q543 141 540 126T529 88T509 43T477 5T434 -11Q404 -11 383 3T354 30T347 48H346Q345 47 342 45T337 40Q282 -11 228 -11Q172 -11 137 34T101 146Q101 260 177 351T333 442Q343 442 352 441T369 437T382 431T393 425T402 417T409 410T414 402T419 396Q423 406 436 414T461 422Q475 422 484 413T494 395Q494 384 459 244T420 88Q418 80 418 58V53ZM397 323Q397 344 382 374T333 405Q302 405 271 372Q249 349 235 316T203 215Q184 135 184 108V100V94Q184 54 207 35Q218 26 235 26Q279 26 330 91Q343 109 346 118T372 217Q397 317 397 323Z"></path>
<path stroke-width="1" id="E1-MJMAIN-5B" d="M118 -250V750H255V710H158V-210H255V-250H118Z"></path>
<path stroke-width="1" id="E1-MJMATHI-69" d="M184 600Q184 624 203 642T247 661Q265 661 277 649T290 619Q290 596 270 577T226 557Q211 557 198 567T184 600ZM21 287Q21 295 30 318T54 369T98 420T158 442Q197 442 223 419T250 357Q250 340 236 301T196 196T154 83Q149 61 149 51Q149 26 166 26Q175 26 185 29T208 43T235 78T260 137Q263 149 265 151T282 153Q302 153 302 143Q302 135 293 112T268 61T223 11T161 -11Q129 -11 102 10T74 74Q74 91 79 106T122 220Q160 321 166 341T173 380Q173 404 156 404H154Q124 404 99 371T61 287Q60 286 59 284T58 281T56 279T53 278T49 278T41 278H27Q21 284 21 287Z"></path>
<path stroke-width="1" id="E1-MJMAIN-5D" d="M22 710V750H159V-250H22V-210H119V710H22Z"></path>
<path stroke-width="1" id="E1-MJMAIN-3C" d="M694 -11T694 -19T688 -33T678 -40Q671 -40 524 29T234 166L90 235Q83 240 83 250Q83 261 91 266Q664 540 678 540Q681 540 687 534T694 519T687 505Q686 504 417 376L151 250L417 124Q686 -4 687 -5Q694 -11 694 -19Z"></path>
<path stroke-width="1" id="E1-MJMATHI-61" d="M33 157Q33 258 109 349T280 441Q331 441 370 392Q386 422 416 422Q429 422 439 414T449 394Q449 381 412 234T374 68Q374 43 381 35T402 26Q411 27 422 35Q443 55 463 131Q469 151 473 152Q475 153 483 153H487Q506 153 506 144Q506 138 501 117T481 63T449 13Q436 0 417 -8Q409 -10 393 -10Q359 -10 336 5T306 36L300 51Q299 52 296 50Q294 48 292 46Q233 -10 172 -10Q117 -10 75 30T33 157ZM351 328Q351 334 346 350T323 385T277 405Q242 405 210 374T160 293Q131 214 119 129Q119 126 119 118T118 106Q118 61 136 44T179 26Q217 26 254 59T298 110Q300 114 325 217T351 328Z"></path>
<path stroke-width="1" id="E1-MJMATHI-6A" d="M297 596Q297 627 318 644T361 661Q378 661 389 651T403 623Q403 595 384 576T340 557Q322 557 310 567T297 596ZM288 376Q288 405 262 405Q240 405 220 393T185 362T161 325T144 293L137 279Q135 278 121 278H107Q101 284 101 286T105 299Q126 348 164 391T252 441Q253 441 260 441T272 442Q296 441 316 432Q341 418 354 401T367 348V332L318 133Q267 -67 264 -75Q246 -125 194 -164T75 -204Q25 -204 7 -183T-12 -137Q-12 -110 7 -91T53 -71Q70 -71 82 -81T95 -112Q95 -148 63 -167Q69 -168 77 -168Q111 -168 139 -140T182 -74L193 -32Q204 11 219 72T251 197T278 308T289 365Q289 372 288 376Z"></path>
</defs>
<g stroke="currentColor" fill="currentColor" stroke-width="0" transform="matrix(1 0 0 -1 0 0)">
 <use xlink:href="#E1-MJMAINI-61" x="0" y="0"></use>
 <use xlink:href="#E1-MJMAIN-5B" x="511" y="0"></use>
 <use xlink:href="#E1-MJMATHI-69" x="790" y="0"></use>
 <use xlink:href="#E1-MJMAIN-5D" x="1135" y="0"></use>
 <use xlink:href="#E1-MJMAIN-3C" x="1691" y="0"></use>
 <use xlink:href="#E1-MJMATHI-61" x="2748" y="0"></use>
 <use xlink:href="#E1-MJMAIN-5B" x="3277" y="0"></use>
 <use xlink:href="#E1-MJMATHI-6A" x="3556" y="0"></use>
 <use xlink:href="#E1-MJMAIN-5D" x="3968" y="0"></use>
</g>
</svg>