<svg xmlns:xlink="http://www.w3.org/1999/xlink" width="4.545ex" height="2.176ex" style="vertical-align: -0.338ex; font-size: 15px;" viewBox="0 -791.3 1956.9 936.9" role="img" focusable="false" xmlns="http://www.w3.org/2000/svg">
<defs>
<path stroke-width="1" id="E1-MJMAINI-31" d="M248 491Q228 491 228 502Q228 516 236 532Q237 536 246 537T275 541T314 552Q350 567 382 595T430 644L446 664Q450 666 454 666Q468 666 468 658Q468 647 395 359Q321 63 321 59Q321 52 334 50T388 46H422Q428 37 428 35Q428 19 421 5Q416 0 405 0Q400 0 361 1T263 2Q215 2 185 2T142 1T127 0Q110 0 110 11Q110 13 113 25T118 40Q120 46 146 46Q196 46 212 49T235 61Q238 66 295 295L353 526L340 519Q328 512 302 503T248 491Z"></path>
<path stroke-width="1" id="E1-MJMAIN-2217" d="M229 286Q216 420 216 436Q216 454 240 464Q241 464 245 464T251 465Q263 464 273 456T283 436Q283 419 277 356T270 286L328 328Q384 369 389 372T399 375Q412 375 423 365T435 338Q435 325 425 315Q420 312 357 282T289 250L355 219L425 184Q434 175 434 161Q434 146 425 136T401 125Q393 125 383 131T328 171L270 213Q283 79 283 63Q283 53 276 44T250 35Q231 35 224 44T216 63Q216 80 222 143T229 213L171 171Q115 130 110 127Q106 124 100 124Q87 124 76 134T64 161Q64 166 64 169T67 175T72 181T81 188T94 195T113 204T138 215T170 230T210 250L74 315Q65 324 65 338Q65 353 74 363T98 374Q106 374 116 368T171 328L229 286Z"></path>
<path stroke-width="1" id="E1-MJMAIN-31" d="M213 578L200 573Q186 568 160 563T102 556H83V602H102Q149 604 189 617T245 641T273 663Q275 666 285 666Q294 666 302 660V361L303 61Q310 54 315 52T339 48T401 46H427V0H416Q395 3 257 3Q121 3 100 0H88V46H114Q136 46 152 46T177 47T193 50T201 52T207 57T213 61V578Z"></path>
</defs>
<g stroke="currentColor" fill="currentColor" stroke-width="0" transform="matrix(1 0 0 -1 0 0)">
 <use xlink:href="#E1-MJMAINI-31" x="0" y="0"></use>
 <use xlink:href="#E1-MJMAIN-2217" x="733" y="0"></use>
 <use xlink:href="#E1-MJMAIN-31" x="1456" y="0"></use>
</g>
</svg>