<svg xmlns:xlink="http://www.w3.org/1999/xlink" width="1.618ex" height="1.676ex" style="vertical-align: -0.338ex; margin-right: -0.074ex; font-size: 15px;" viewBox="0 -576.1 696.5 721.6" role="img" focusable="false" xmlns="http://www.w3.org/2000/svg">
<defs>
<path stroke-width="1" id="E1-MJMAINI-77" d="M591 386Q591 407 610 425T649 443Q670 443 683 423T696 371Q696 327 672 232T621 85Q575 -11 493 -11Q469 -11 449 -6T418 8T398 24T386 38L382 43Q347 -10 293 -10H286Q221 -10 186 21T150 115Q150 164 185 262T221 384Q221 405 206 405Q177 405 157 375T128 313T116 279Q115 278 97 278H81Q75 284 75 287T79 304T93 342T119 388T158 425T210 441H218Q243 441 268 421T293 357Q292 336 260 246T227 108Q227 26 292 26H295Q332 26 361 93L366 103V119Q366 122 367 133T369 150Q372 167 401 282T433 404Q446 431 477 431Q507 431 509 402Q509 396 500 358T474 254T446 140Q444 126 444 104V92Q444 66 459 46T502 26H505Q527 28 545 43T577 88T602 149T623 226Q633 265 633 290Q632 324 612 349T591 386Z"></path>
</defs>
<g stroke="currentColor" fill="currentColor" stroke-width="0" transform="matrix(1 0 0 -1 0 0)">
 <use xlink:href="#E1-MJMAINI-77" x="0" y="0"></use>
</g>
</svg>