<svg xmlns:xlink="http://www.w3.org/1999/xlink" width="0.92ex" height="2.509ex" style="vertical-align: -0.671ex; margin-left: -0.073ex; margin-right: -0.132ex; font-size: 15px;" viewBox="-31.5 -791.3 396 1080.4" role="img" focusable="false" xmlns="http://www.w3.org/2000/svg">
<defs>
<path stroke-width="1" id="E1-MJMAINI-6A" d="M266 600Q266 622 283 639T322 656Q340 656 352 645T364 616Q364 596 347 578T305 560Q291 560 279 569T266 600ZM75 287Q75 293 86 316T117 369T168 420T236 442Q282 442 304 415T327 358V332L278 134Q269 98 260 60T246 3T236 -36T227 -66T220 -85T213 -101T204 -114Q181 -150 139 -177T46 -204Q8 -204 -12 -186T-32 -140Q-32 -112 -14 -96T27 -79Q48 -79 57 -91T67 -114Q67 -146 38 -166Q42 -168 49 -168Q75 -168 98 -147T130 -108T146 -71Q150 -59 199 138T250 346Q253 359 253 373Q253 405 230 405Q206 405 184 386T149 345T126 301L117 280Q115 278 98 278H81Q75 284 75 287Z"></path>
</defs>
<g stroke="currentColor" fill="currentColor" stroke-width="0" transform="matrix(1 0 0 -1 0 0)">
 <use xlink:href="#E1-MJMAINI-6A" x="0" y="0"></use>
</g>
</svg>