<svg xmlns:xlink="http://www.w3.org/1999/xlink" width="1.158ex" height="2.176ex" style="vertical-align: -0.338ex; margin-right: -0.088ex; font-size: 15px;" viewBox="0 -791.3 498.5 936.9" role="img" focusable="false" xmlns="http://www.w3.org/2000/svg">
<defs>
<path stroke-width="1" id="E1-MJMAINI-6B" d="M158 683Q163 683 223 688T300 694Q312 694 312 686Q312 679 262 478L211 273Q212 272 219 276T248 299T296 349Q317 371 328 382T360 410T399 434T439 442Q462 442 480 427T498 373Q498 329 479 313T437 296Q420 296 409 305T398 331Q398 357 413 372T445 391Q454 392 448 399Q445 405 431 405Q408 405 377 385Q351 368 314 327T250 261Q243 257 243 254Q249 254 279 243T328 220Q366 192 366 146Q366 131 361 109T355 62V54Q355 26 376 26Q379 26 387 28Q420 36 443 130Q449 151 454 152Q457 153 465 153H470Q484 153 488 152T492 144Q492 141 489 126T476 88T454 42T420 5T372 -11Q331 -11 306 17T280 88Q280 100 283 119T287 146Q287 172 265 190T221 215T198 220Q197 220 173 121Q152 37 148 24T135 3Q121 -11 102 -11Q89 -11 80 -3T69 19L216 616Q216 629 209 632T170 637H149Q143 643 143 645T145 664Q150 683 158 683Z"></path>
</defs>
<g stroke="currentColor" fill="currentColor" stroke-width="0" transform="matrix(1 0 0 -1 0 0)">
 <use xlink:href="#E1-MJMAINI-6B" x="0" y="0"></use>
</g>
</svg>