<svg xmlns:xlink="http://www.w3.org/1999/xlink" width="1.553ex" height="1.676ex" style="vertical-align: -0.338ex; margin-right: -0.021ex; font-size: 15px;" viewBox="0 -576.1 668.5 721.6" role="img" focusable="false" xmlns="http://www.w3.org/2000/svg">
<defs>
<path stroke-width="1" id="E1-MJMAINI-73" d="M153 285Q153 349 197 395T311 442Q355 442 386 420T418 356Q418 321 401 308T365 294Q336 294 331 326Q331 336 334 345T343 359T353 368T362 374L366 376Q365 379 362 383T344 396T308 404Q265 404 246 377T226 325T244 289T287 275T339 258T383 212Q395 188 395 163Q395 132 379 95T333 32Q279 -11 207 -11Q154 -11 115 13T76 86Q76 108 83 123T102 145T121 153T135 156Q154 156 164 145T175 117Q175 82 142 66L132 62Q131 62 131 61Q131 57 139 49T166 34T210 26Q250 26 277 44T312 83T321 123Q321 153 301 166T248 185T204 198Q176 211 162 241Q153 258 153 285Z"></path>
</defs>
<g stroke="currentColor" fill="currentColor" stroke-width="0" transform="matrix(1 0 0 -1 0 0)">
 <use xlink:href="#E1-MJMAINI-73" x="250" y="0"></use>
</g>
</svg>