<svg xmlns:xlink="http://www.w3.org/1999/xlink" width="7.288ex" height="1.676ex" style="vertical-align: -0.338ex; margin-right: -0.079ex; font-size: 15px;" viewBox="0 -576.1 3137.9 721.6" role="img" focusable="false" xmlns="http://www.w3.org/2000/svg">
<defs>
<path stroke-width="1" id="E1-MJMAINI-6E" d="M449 44Q449 26 465 26Q482 26 502 43Q528 71 547 136Q550 148 552 150T566 153H572Q582 153 585 153T592 150T595 143Q595 133 585 105T547 41T483 -8Q475 -10 459 -10Q421 -10 399 12T377 72Q377 93 393 135Q448 288 448 349Q448 367 447 372Q437 405 408 405Q381 405 357 393T315 360T291 329T278 309Q267 290 262 274T231 151Q199 24 196 16Q182 -11 152 -11T120 18Q120 23 159 181Q199 343 199 346Q202 360 202 372Q202 406 183 406Q163 406 148 374Q142 360 135 338T124 299T117 280T98 278H81Q75 284 75 287Q76 293 78 303T90 341T110 388T141 425T184 442Q195 442 204 441T221 436T235 429T247 421T256 412T262 403T267 394T271 387T273 381L274 378V374L287 387Q342 442 414 442Q474 442 500 410T526 338Q526 290 488 178T449 44Z"></path>
<path stroke-width="1" id="E1-MJMAIN-D7" d="M630 29Q630 9 609 9Q604 9 587 25T493 118L389 222L284 117Q178 13 175 11Q171 9 168 9Q160 9 154 15T147 29Q147 36 161 51T255 146L359 250L255 354Q174 435 161 449T147 471Q147 480 153 485T168 490Q173 490 175 489Q178 487 284 383L389 278L493 382Q570 459 587 475T609 491Q630 491 630 471Q630 464 620 453T522 355L418 250L522 145Q606 61 618 48T630 29Z"></path>
<path stroke-width="1" id="E1-MJMAINI-6D" d="M81 278Q75 284 75 289Q77 299 89 338Q101 373 114 396T142 428T166 439T186 442H189Q225 440 251 417Q266 401 271 384L275 374L286 386Q342 442 414 442Q428 442 440 440T461 435T479 427T493 418T503 407T511 397T516 387T520 378T523 370L524 366Q546 395 583 418T667 442Q729 442 755 411T782 338Q782 290 743 178T704 45Q704 26 720 26Q773 26 802 136Q805 148 807 150T822 153H828Q838 153 841 153T848 150T851 143Q851 137 843 115T821 63T778 12T715 -10Q671 -10 652 16T632 71Q632 88 668 191T704 349Q704 367 703 372Q693 405 664 405Q637 405 613 393T571 360T547 329T534 309Q523 290 518 274T487 151Q455 24 452 16Q438 -11 408 -11T376 18Q376 26 411 167T447 314Q449 325 449 346Q449 372 444 384Q431 405 408 405Q334 405 276 305Q266 289 262 273T231 151Q199 24 196 16Q182 -11 152 -11T120 18Q120 26 159 182T200 347Q202 361 202 372Q202 405 181 405Q168 405 159 391Q145 374 132 328T117 280T98 278H81Z"></path>
</defs>
<g stroke="currentColor" fill="currentColor" stroke-width="0" transform="matrix(1 0 0 -1 0 0)">
 <use xlink:href="#E1-MJMAINI-6E" x="0" y="0"></use>
 <use xlink:href="#E1-MJMAIN-D7" x="1034" y="0"></use>
 <use xlink:href="#E1-MJMAINI-6D" x="2285" y="0"></use>
</g>
</svg>