<svg xmlns:xlink="http://www.w3.org/1999/xlink" width="2.184ex" height="3.009ex" style="vertical-align: -0.671ex; font-size: 15px;" viewBox="0 -1006.6 940.4 1295.7" role="img" focusable="false" xmlns="http://www.w3.org/2000/svg">
<defs>
<path stroke-width="1" id="E1-MJMAINI-79" d="M75 287Q75 299 89 333T135 404T205 441Q246 441 269 420T293 357Q292 338 259 245T225 95Q225 26 274 26Q325 26 367 93L405 245Q442 393 446 404Q460 431 490 431T522 402Q522 400 416 -24Q389 -102 327 -153T196 -205Q152 -205 122 -181T91 -119Q91 -84 110 -67T152 -49Q170 -49 180 -60T191 -87Q191 -108 174 -128Q167 -134 157 -138T146 -144Q155 -153 159 -156T173 -163T199 -167Q229 -167 255 -149T297 -105T325 -52T342 -6T347 15Q315 -10 269 -10Q204 -10 176 25T148 108Q148 161 184 262T221 383Q221 405 206 405Q178 405 158 375T128 313T116 279Q115 278 97 278H81Q75 284 75 287Z"></path>
<path stroke-width="1" id="E1-MJMAIN-32" d="M109 429Q82 429 66 447T50 491Q50 562 103 614T235 666Q326 666 387 610T449 465Q449 422 429 383T381 315T301 241Q265 210 201 149L142 93L218 92Q375 92 385 97Q392 99 409 186V189H449V186Q448 183 436 95T421 3V0H50V19V31Q50 38 56 46T86 81Q115 113 136 137Q145 147 170 174T204 211T233 244T261 278T284 308T305 340T320 369T333 401T340 431T343 464Q343 527 309 573T212 619Q179 619 154 602T119 569T109 550Q109 549 114 549Q132 549 151 535T170 489Q170 464 154 447T109 429Z"></path>
</defs>
<g stroke="currentColor" fill="currentColor" stroke-width="0" transform="matrix(1 0 0 -1 0 0)">
 <use xlink:href="#E1-MJMAINI-79" x="0" y="0"></use>
 <use transform="scale(0.707)" xlink:href="#E1-MJMAIN-32" x="688" y="583"></use>
</g>
</svg>