<svg xmlns:xlink="http://www.w3.org/1999/xlink" width="1.769ex" height="2.009ex" style="vertical-align: -0.671ex; font-size: 15px;" viewBox="0 -576.1 761.5 865.1" role="img" focusable="false" xmlns="http://www.w3.org/2000/svg">
<defs>
<path stroke-width="1" id="E1-MJMAINI-70" d="M81 278Q75 284 75 287Q93 379 131 417Q154 442 189 442Q222 440 243 423T272 382L280 390Q335 442 389 442Q446 442 482 398T518 284Q518 212 480 137T375 19Q321 -10 291 -10H282H278Q237 -10 204 28L202 32L181 -51Q160 -135 160 -139Q160 -147 205 -148H230Q236 -155 236 -157T233 -175Q230 -187 227 -190T214 -194Q211 -194 202 -194T169 -193T108 -192Q40 -192 21 -194H13Q6 -187 6 -183T9 -167Q13 -153 16 -151T39 -148Q73 -147 78 -136Q82 -128 139 104Q199 337 199 347Q202 362 202 372Q202 406 182 406Q169 406 159 391Q145 374 132 328T117 280T98 278H81ZM221 111Q234 26 286 26Q307 26 336 47T385 116Q398 147 416 217T435 332Q435 354 433 361Q420 405 383 405Q333 405 279 326L273 317L221 111Z"></path>
</defs>
<g stroke="currentColor" fill="currentColor" stroke-width="0" transform="matrix(1 0 0 -1 0 0)">
 <use xlink:href="#E1-MJMAINI-70" x="0" y="0"></use>
</g>
</svg>