<svg xmlns:xlink="http://www.w3.org/1999/xlink" width="27.904ex" height="2.176ex" style="vertical-align: -0.338ex; font-size: 15px;" viewBox="0 -791.3 12014.1 936.9" role="img" focusable="false" xmlns="http://www.w3.org/2000/svg">
<defs>
<path stroke-width="1" id="E1-MJMAIN-32" d="M109 429Q82 429 66 447T50 491Q50 562 103 614T235 666Q326 666 387 610T449 465Q449 422 429 383T381 315T301 241Q265 210 201 149L142 93L218 92Q375 92 385 97Q392 99 409 186V189H449V186Q448 183 436 95T421 3V0H50V19V31Q50 38 56 46T86 81Q115 113 136 137Q145 147 170 174T204 211T233 244T261 278T284 308T305 340T320 369T333 401T340 431T343 464Q343 527 309 573T212 619Q179 619 154 602T119 569T109 550Q109 549 114 549Q132 549 151 535T170 489Q170 464 154 447T109 429Z"></path>
<path stroke-width="1" id="E1-MJMAIN-34" d="M462 0Q444 3 333 3Q217 3 199 0H190V46H221Q241 46 248 46T265 48T279 53T286 61Q287 63 287 115V165H28V211L179 442Q332 674 334 675Q336 677 355 677H373L379 671V211H471V165H379V114Q379 73 379 66T385 54Q393 47 442 46H471V0H462ZM293 211V545L74 212L183 211H293Z"></path>
<path stroke-width="1" id="E1-MJMAIN-30" d="M96 585Q152 666 249 666Q297 666 345 640T423 548Q460 465 460 320Q460 165 417 83Q397 41 362 16T301 -15T250 -22Q224 -22 198 -16T137 16T82 83Q39 165 39 320Q39 494 96 585ZM321 597Q291 629 250 629Q208 629 178 597Q153 571 145 525T137 333Q137 175 145 125T181 46Q209 16 250 16Q290 16 318 46Q347 76 354 130T362 333Q362 478 354 524T321 597Z"></path>
<path stroke-width="1" id="E1-MJMAIN-2E" d="M78 60Q78 84 95 102T138 120Q162 120 180 104T199 61Q199 36 182 18T139 0T96 17T78 60Z"></path>
<path stroke-width="1" id="E1-MJMAIN-223C" d="M55 166Q55 241 101 304T222 367Q260 367 296 349T362 304T421 252T484 208T554 189Q616 189 655 236T694 338Q694 350 698 358T708 367Q722 367 722 334Q722 260 677 197T562 134H554Q517 134 481 152T414 196T355 248T292 293T223 311Q179 311 145 286Q109 257 96 218T80 156T69 133Q55 133 55 166Z"></path>
<path stroke-width="1" id="E1-MJMAIN-37" d="M55 458Q56 460 72 567L88 674Q88 676 108 676H128V672Q128 662 143 655T195 646T364 644H485V605L417 512Q408 500 387 472T360 435T339 403T319 367T305 330T292 284T284 230T278 162T275 80Q275 66 275 52T274 28V19Q270 2 255 -10T221 -22Q210 -22 200 -19T179 0T168 40Q168 198 265 368Q285 400 349 489L395 552H302Q128 552 119 546Q113 543 108 522T98 479L95 458V455H55V458Z"></path>
<path stroke-width="1" id="E1-MJMAIN-35" d="M164 157Q164 133 148 117T109 101H102Q148 22 224 22Q294 22 326 82Q345 115 345 210Q345 313 318 349Q292 382 260 382H254Q176 382 136 314Q132 307 129 306T114 304Q97 304 95 310Q93 314 93 485V614Q93 664 98 664Q100 666 102 666Q103 666 123 658T178 642T253 634Q324 634 389 662Q397 666 402 666Q410 666 410 648V635Q328 538 205 538Q174 538 149 544L139 546V374Q158 388 169 396T205 412T256 420Q337 420 393 355T449 201Q449 109 385 44T229 -22Q148 -22 99 32T50 154Q50 178 61 192T84 210T107 214Q132 214 148 197T164 157Z"></path>
</defs>
<g stroke="currentColor" fill="currentColor" stroke-width="0" transform="matrix(1 0 0 -1 0 0)">
 <use xlink:href="#E1-MJMAIN-32"></use>
 <use xlink:href="#E1-MJMAIN-34" x="500" y="0"></use>
 <use xlink:href="#E1-MJMAIN-30" x="1001" y="0"></use>
 <use xlink:href="#E1-MJMAIN-2E" x="1501" y="0"></use>
 <use xlink:href="#E1-MJMAIN-30" x="1780" y="0"></use>
 <use xlink:href="#E1-MJMAIN-2E" x="2280" y="0"></use>
 <use xlink:href="#E1-MJMAIN-30" x="2559" y="0"></use>
 <use xlink:href="#E1-MJMAIN-2E" x="3059" y="0"></use>
 <use xlink:href="#E1-MJMAIN-30" x="3338" y="0"></use>
 <use xlink:href="#E1-MJMAIN-223C" x="4116" y="0"></use>
<g transform="translate(5172,0)">
 <use xlink:href="#E1-MJMAIN-32"></use>
 <use xlink:href="#E1-MJMAIN-34" x="500" y="0"></use>
 <use xlink:href="#E1-MJMAIN-37" x="1001" y="0"></use>
 <use xlink:href="#E1-MJMAIN-2E" x="1501" y="0"></use>
 <use xlink:href="#E1-MJMAIN-32" x="1780" y="0"></use>
 <use xlink:href="#E1-MJMAIN-35" x="2280" y="0"></use>
 <use xlink:href="#E1-MJMAIN-35" x="2781" y="0"></use>
 <use xlink:href="#E1-MJMAIN-2E" x="3281" y="0"></use>
 <use xlink:href="#E1-MJMAIN-32" x="3560" y="0"></use>
 <use xlink:href="#E1-MJMAIN-35" x="4060" y="0"></use>
 <use xlink:href="#E1-MJMAIN-35" x="4561" y="0"></use>
 <use xlink:href="#E1-MJMAIN-2E" x="5061" y="0"></use>
 <use xlink:href="#E1-MJMAIN-32" x="5340" y="0"></use>
 <use xlink:href="#E1-MJMAIN-35" x="5840" y="0"></use>
 <use xlink:href="#E1-MJMAIN-35" x="6341" y="0"></use>
</g>
</g>
</svg>