<svg xmlns:xlink="http://www.w3.org/1999/xlink" width="1.325ex" height="1.676ex" style="vertical-align: -0.338ex; margin-right: -0.077ex; font-size: 15px;" viewBox="0 -576.1 570.5 721.6" role="img" focusable="false" xmlns="http://www.w3.org/2000/svg">
<defs>
<path stroke-width="1" id="E1-MJMAINI-75" d="M75 287Q75 299 89 333T135 404T205 441Q246 441 269 420T293 357Q292 338 259 245T225 95Q225 26 274 26Q301 26 324 43T358 77T369 99Q369 102 406 249T446 404Q460 431 490 431T522 402Q522 394 485 245T446 89Q443 74 443 56Q443 28 461 26Q487 26 507 86Q524 130 524 146Q524 147 530 153H547Q570 153 570 144Q570 138 561 109T544 62Q530 29 512 12Q492 -11 454 -11Q429 -9 410 2T385 23T376 41L363 28Q350 16 325 3T269 -10Q204 -10 176 25T148 108Q148 161 184 262T221 383Q221 405 206 405Q178 405 158 375T128 313T116 279Q115 278 97 278H81Q75 284 75 287Z"></path>
</defs>
<g stroke="currentColor" fill="currentColor" stroke-width="0" transform="matrix(1 0 0 -1 0 0)">
 <use xlink:href="#E1-MJMAINI-75" x="0" y="0"></use>
</g>
</svg>