<svg xmlns:xlink="http://www.w3.org/1999/xlink" width="1.887ex" height="2.176ex" style="vertical-align: -0.338ex; margin-right: -0.223ex; font-size: 15px;" viewBox="0 -791.3 812.5 936.9" role="img" focusable="false" xmlns="http://www.w3.org/2000/svg">
<defs>
<path stroke-width="1" id="E1-MJMAINI-43" d="M395 -21Q279 -21 215 56T150 244Q150 402 265 543Q339 630 421 667T562 704Q596 704 604 703Q627 698 647 689T679 669T699 649T711 633T716 627L753 665Q790 704 792 704Q793 705 798 705Q812 705 812 698Q812 694 780 561Q744 422 744 421Q742 416 739 415T721 413H705Q699 419 699 426Q701 432 701 444Q705 464 705 493Q705 524 700 551T681 604T643 644T583 659Q480 659 387 570Q321 502 287 397T252 213Q252 123 297 74Q347 24 421 24Q500 24 564 89T653 240Q656 253 659 255T677 257Q700 257 700 248Q700 242 694 222Q681 183 656 143T593 65T504 3T395 -21Z"></path>
</defs>
<g stroke="currentColor" fill="currentColor" stroke-width="0" transform="matrix(1 0 0 -1 0 0)">
 <use xlink:href="#E1-MJMAINI-43" x="0" y="0"></use>
</g>
</svg>