<svg xmlns:xlink="http://www.w3.org/1999/xlink" width="1.807ex" height="2.509ex" style="vertical-align: -0.671ex; font-size: 15px;" viewBox="0 -791.3 777.9 1080.4" role="img" focusable="false" xmlns="http://www.w3.org/2000/svg">
<defs>
<path stroke-width="1" id="E1-MJMAINI-62" d="M158 683Q163 683 223 688T300 694Q312 694 312 685T279 544Q243 405 243 403L256 412Q268 422 292 432T338 442Q395 442 431 398T467 284Q467 175 393 82T229 -11Q175 -11 142 32T108 142Q108 176 115 207T166 412Q177 458 190 510T209 588T216 616Q216 629 209 632T170 637H149Q143 643 143 645T145 664Q150 683 158 683ZM178 109Q178 27 234 27Q247 27 254 29Q295 44 323 94Q343 129 363 208T384 332Q384 354 382 361Q369 405 332 405Q282 405 228 326L222 317L205 250Q178 142 178 109Z"></path>
<path stroke-width="1" id="E1-MJMAINI-69" d="M234 599Q234 620 251 638T292 656Q306 656 319 647T332 617Q332 594 313 577T273 560Q260 560 247 569T234 599ZM75 287Q75 292 82 313T103 362T142 413T196 441H214Q248 441 270 419T293 357Q292 338 289 330T245 208Q193 72 193 46Q193 26 209 26Q228 26 247 43Q273 71 292 136Q295 148 297 150T311 153H317Q327 153 330 153T337 150T340 143Q340 133 330 105T292 41T228 -8Q220 -10 204 -10Q160 -10 141 15T122 71Q122 98 171 227T221 384Q221 396 218 400T203 405Q175 403 156 374T128 312T116 279Q115 278 97 278H81Q75 284 75 287Z"></path>
</defs>
<g stroke="currentColor" fill="currentColor" stroke-width="0" transform="matrix(1 0 0 -1 0 0)">
 <use xlink:href="#E1-MJMAINI-62" x="0" y="0"></use>
 <use transform="scale(0.707)" xlink:href="#E1-MJMAINI-69" x="651" y="-213"></use>
</g>
</svg>