<svg xmlns:xlink="http://www.w3.org/1999/xlink" width="14.43ex" height="2.676ex" style="vertical-align: -0.505ex; font-size: 15px;" viewBox="0 -934.9 6212.8 1152.1" role="img" focusable="false" xmlns="http://www.w3.org/2000/svg">
<defs>
<path stroke-width="1" id="E1-MJMAINI-78" d="M275 356Q275 383 262 394T233 405Q196 405 166 371T121 289Q119 280 116 279T98 278H81Q77 282 76 283T75 288T78 300Q88 332 109 363T153 411Q195 442 235 442Q306 442 333 386Q373 442 427 442Q461 442 487 421T513 364T494 312T453 296Q436 296 425 305T414 331Q414 352 424 366T446 386L456 390Q448 404 421 404H418Q382 404 358 341Q355 332 328 227T298 105Q295 90 295 75Q295 26 339 26Q365 26 388 43T424 82T444 123T451 146L457 153H474Q490 153 493 152T496 144Q496 133 486 110T456 58T404 10T333 -11Q276 -11 237 45Q197 -11 146 -11Q108 -11 83 10T58 67Q58 99 76 117T119 135Q136 135 147 124T158 96Q158 89 157 85Q149 57 125 45L115 41Q125 26 151 26Q171 26 187 45T214 93Q217 102 244 210T273 330Q275 339 275 356Z"></path>
<path stroke-width="1" id="E1-MJMAIN-2B" d="M56 237T56 250T70 270H369V420L370 570Q380 583 389 583Q402 583 409 568V270H707Q722 262 722 250T707 230H409V-68Q401 -82 391 -82H389H387Q375 -82 369 -68V230H70Q56 237 56 250Z"></path>
<path stroke-width="1" id="E1-MJMATHI-78" d="M52 289Q59 331 106 386T222 442Q257 442 286 424T329 379Q371 442 430 442Q467 442 494 420T522 361Q522 332 508 314T481 292T458 288Q439 288 427 299T415 328Q415 374 465 391Q454 404 425 404Q412 404 406 402Q368 386 350 336Q290 115 290 78Q290 50 306 38T341 26Q378 26 414 59T463 140Q466 150 469 151T485 153H489Q504 153 504 145Q504 144 502 134Q486 77 440 33T333 -11Q263 -11 227 52Q186 -10 133 -10H127Q78 -10 57 16T35 71Q35 103 54 123T99 143Q142 143 142 101Q142 81 130 66T107 46T94 41L91 40Q91 39 97 36T113 29T132 26Q168 26 194 71Q203 87 217 139T245 247T261 313Q266 340 266 352Q266 380 251 392T217 404Q177 404 142 372T93 290Q91 281 88 280T72 278H58Q52 284 52 289Z"></path>
<path stroke-width="1" id="E1-MJMAIN-2032" d="M79 43Q73 43 52 49T30 61Q30 68 85 293T146 528Q161 560 198 560Q218 560 240 545T262 501Q262 496 260 486Q259 479 173 263T84 45T79 43Z"></path>
<path stroke-width="1" id="E1-MJMAIN-3D" d="M56 347Q56 360 70 367H707Q722 359 722 347Q722 336 708 328L390 327H72Q56 332 56 347ZM56 153Q56 168 72 173H708Q722 163 722 153Q722 140 707 133H70Q56 140 56 153Z"></path>
<path stroke-width="1" id="E1-MJMATHI-6E" d="M21 287Q22 293 24 303T36 341T56 388T89 425T135 442Q171 442 195 424T225 390T231 369Q231 367 232 367L243 378Q304 442 382 442Q436 442 469 415T503 336T465 179T427 52Q427 26 444 26Q450 26 453 27Q482 32 505 65T540 145Q542 153 560 153Q580 153 580 145Q580 144 576 130Q568 101 554 73T508 17T439 -10Q392 -10 371 17T350 73Q350 92 386 193T423 345Q423 404 379 404H374Q288 404 229 303L222 291L189 157Q156 26 151 16Q138 -11 108 -11Q95 -11 87 -5T76 7T74 17Q74 30 112 180T152 343Q153 348 153 366Q153 405 129 405Q91 405 66 305Q60 285 60 284Q58 278 41 278H27Q21 284 21 287Z"></path>
<path stroke-width="1" id="E1-MJMAIN-31" d="M213 578L200 573Q186 568 160 563T102 556H83V602H102Q149 604 189 617T245 641T273 663Q275 666 285 666Q294 666 302 660V361L303 61Q310 54 315 52T339 48T401 46H427V0H416Q395 3 257 3Q121 3 100 0H88V46H114Q136 46 152 46T177 47T193 50T201 52T207 57T213 61V578Z"></path>
</defs>
<g stroke="currentColor" fill="currentColor" stroke-width="0" transform="matrix(1 0 0 -1 0 0)">
 <use xlink:href="#E1-MJMAINI-78" x="0" y="0"></use>
 <use xlink:href="#E1-MJMAIN-2B" x="686" y="0"></use>
<g transform="translate(1687,0)">
 <use xlink:href="#E1-MJMATHI-78" x="0" y="0"></use>
 <use transform="scale(0.707)" xlink:href="#E1-MJMAIN-2032" x="809" y="583"></use>
</g>
 <use xlink:href="#E1-MJMAIN-3D" x="2832" y="0"></use>
 <use xlink:href="#E1-MJMATHI-6E" x="3888" y="0"></use>
 <use xlink:href="#E1-MJMAIN-2B" x="4711" y="0"></use>
 <use xlink:href="#E1-MJMAIN-31" x="5712" y="0"></use>
</g>
</svg>