<svg xmlns:xlink="http://www.w3.org/1999/xlink" width="28.878ex" height="2.843ex" style="vertical-align: -0.838ex; font-size: 15px;" viewBox="0 -863.1 12433.7 1223.9" role="img" focusable="false" xmlns="http://www.w3.org/2000/svg">
<defs>
<path stroke-width="1" id="E1-MJMAINI-77" d="M591 386Q591 407 610 425T649 443Q670 443 683 423T696 371Q696 327 672 232T621 85Q575 -11 493 -11Q469 -11 449 -6T418 8T398 24T386 38L382 43Q347 -10 293 -10H286Q221 -10 186 21T150 115Q150 164 185 262T221 384Q221 405 206 405Q177 405 157 375T128 313T116 279Q115 278 97 278H81Q75 284 75 287T79 304T93 342T119 388T158 425T210 441H218Q243 441 268 421T293 357Q292 336 260 246T227 108Q227 26 292 26H295Q332 26 361 93L366 103V119Q366 122 367 133T369 150Q372 167 401 282T433 404Q446 431 477 431Q507 431 509 402Q509 396 500 358T474 254T446 140Q444 126 444 104V92Q444 66 459 46T502 26H505Q527 28 545 43T577 88T602 149T623 226Q633 265 633 290Q632 324 612 349T591 386Z"></path>
<path stroke-width="1" id="E1-MJMAINI-6B" d="M158 683Q163 683 223 688T300 694Q312 694 312 686Q312 679 262 478L211 273Q212 272 219 276T248 299T296 349Q317 371 328 382T360 410T399 434T439 442Q462 442 480 427T498 373Q498 329 479 313T437 296Q420 296 409 305T398 331Q398 357 413 372T445 391Q454 392 448 399Q445 405 431 405Q408 405 377 385Q351 368 314 327T250 261Q243 257 243 254Q249 254 279 243T328 220Q366 192 366 146Q366 131 361 109T355 62V54Q355 26 376 26Q379 26 387 28Q420 36 443 130Q449 151 454 152Q457 153 465 153H470Q484 153 488 152T492 144Q492 141 489 126T476 88T454 42T420 5T372 -11Q331 -11 306 17T280 88Q280 100 283 119T287 146Q287 172 265 190T221 215T198 220Q197 220 173 121Q152 37 148 24T135 3Q121 -11 102 -11Q89 -11 80 -3T69 19L216 616Q216 629 209 632T170 637H149Q143 643 143 645T145 664Q150 683 158 683Z"></path>
<path stroke-width="1" id="E1-MJMAIN-3D" d="M56 347Q56 360 70 367H707Q722 359 722 347Q722 336 708 328L390 327H72Q56 332 56 347ZM56 153Q56 168 72 173H708Q722 163 722 153Q722 140 707 133H70Q56 140 56 153Z"></path>
<path stroke-width="1" id="E1-MJMAINI-6D" d="M81 278Q75 284 75 289Q77 299 89 338Q101 373 114 396T142 428T166 439T186 442H189Q225 440 251 417Q266 401 271 384L275 374L286 386Q342 442 414 442Q428 442 440 440T461 435T479 427T493 418T503 407T511 397T516 387T520 378T523 370L524 366Q546 395 583 418T667 442Q729 442 755 411T782 338Q782 290 743 178T704 45Q704 26 720 26Q773 26 802 136Q805 148 807 150T822 153H828Q838 153 841 153T848 150T851 143Q851 137 843 115T821 63T778 12T715 -10Q671 -10 652 16T632 71Q632 88 668 191T704 349Q704 367 703 372Q693 405 664 405Q637 405 613 393T571 360T547 329T534 309Q523 290 518 274T487 151Q455 24 452 16Q438 -11 408 -11T376 18Q376 26 411 167T447 314Q449 325 449 346Q449 372 444 384Q431 405 408 405Q334 405 276 305Q266 289 262 273T231 151Q199 24 196 16Q182 -11 152 -11T120 18Q120 26 159 182T200 347Q202 361 202 372Q202 405 181 405Q168 405 159 391Q145 374 132 328T117 280T98 278H81Z"></path>
<path stroke-width="1" id="E1-MJMAINI-69" d="M234 599Q234 620 251 638T292 656Q306 656 319 647T332 617Q332 594 313 577T273 560Q260 560 247 569T234 599ZM75 287Q75 292 82 313T103 362T142 413T196 441H214Q248 441 270 419T293 357Q292 338 289 330T245 208Q193 72 193 46Q193 26 209 26Q228 26 247 43Q273 71 292 136Q295 148 297 150T311 153H317Q327 153 330 153T337 150T340 143Q340 133 330 105T292 41T228 -8Q220 -10 204 -10Q160 -10 141 15T122 71Q122 98 171 227T221 384Q221 396 218 400T203 405Q175 403 156 374T128 312T116 279Q115 278 97 278H81Q75 284 75 287Z"></path>
<path stroke-width="1" id="E1-MJMAINI-6E" d="M449 44Q449 26 465 26Q482 26 502 43Q528 71 547 136Q550 148 552 150T566 153H572Q582 153 585 153T592 150T595 143Q595 133 585 105T547 41T483 -8Q475 -10 459 -10Q421 -10 399 12T377 72Q377 93 393 135Q448 288 448 349Q448 367 447 372Q437 405 408 405Q381 405 357 393T315 360T291 329T278 309Q267 290 262 274T231 151Q199 24 196 16Q182 -11 152 -11T120 18Q120 23 159 181Q199 343 199 346Q202 360 202 372Q202 406 183 406Q163 406 148 374Q142 360 135 338T124 299T117 280T98 278H81Q75 284 75 287Q76 293 78 303T90 341T110 388T141 425T184 442Q195 442 204 441T221 436T235 429T247 421T256 412T262 403T267 394T271 387T273 381L274 378V374L287 387Q342 442 414 442Q474 442 500 410T526 338Q526 290 488 178T449 44Z"></path>
<path stroke-width="1" id="E1-MJMAIN-7B" d="M434 -231Q434 -244 428 -250H410Q281 -250 230 -184Q225 -177 222 -172T217 -161T213 -148T211 -133T210 -111T209 -84T209 -47T209 0Q209 21 209 53Q208 142 204 153Q203 154 203 155Q189 191 153 211T82 231Q71 231 68 234T65 250T68 266T82 269Q116 269 152 289T203 345Q208 356 208 377T209 529V579Q209 634 215 656T244 698Q270 724 324 740Q361 748 377 749Q379 749 390 749T408 750H428Q434 744 434 732Q434 719 431 716Q429 713 415 713Q362 710 332 689T296 647Q291 634 291 499V417Q291 370 288 353T271 314Q240 271 184 255L170 250L184 245Q202 239 220 230T262 196T290 137Q291 131 291 1Q291 -134 296 -147Q306 -174 339 -192T415 -213Q429 -213 431 -216Q434 -219 434 -231Z"></path>
<path stroke-width="1" id="E1-MJMAIN-31" d="M213 578L200 573Q186 568 160 563T102 556H83V602H102Q149 604 189 617T245 641T273 663Q275 666 285 666Q294 666 302 660V361L303 61Q310 54 315 52T339 48T401 46H427V0H416Q395 3 257 3Q121 3 100 0H88V46H114Q136 46 152 46T177 47T193 50T201 52T207 57T213 61V578Z"></path>
<path stroke-width="1" id="E1-MJMAIN-2C" d="M78 35T78 60T94 103T137 121Q165 121 187 96T210 8Q210 -27 201 -60T180 -117T154 -158T130 -185T117 -194Q113 -194 104 -185T95 -172Q95 -168 106 -156T131 -126T157 -76T173 -3V9L172 8Q170 7 167 6T161 3T152 1T140 0Q113 0 96 17Z"></path>
<path stroke-width="1" id="E1-MJMAIN-32" d="M109 429Q82 429 66 447T50 491Q50 562 103 614T235 666Q326 666 387 610T449 465Q449 422 429 383T381 315T301 241Q265 210 201 149L142 93L218 92Q375 92 385 97Q392 99 409 186V189H449V186Q448 183 436 95T421 3V0H50V19V31Q50 38 56 46T86 81Q115 113 136 137Q145 147 170 174T204 211T233 244T261 278T284 308T305 340T320 369T333 401T340 431T343 464Q343 527 309 573T212 619Q179 619 154 602T119 569T109 550Q109 549 114 549Q132 549 151 535T170 489Q170 464 154 447T109 429Z"></path>
<path stroke-width="1" id="E1-MJMAIN-2E" d="M78 60Q78 84 95 102T138 120Q162 120 180 104T199 61Q199 36 182 18T139 0T96 17T78 60Z"></path>
<path stroke-width="1" id="E1-MJMAIN-7D" d="M65 731Q65 745 68 747T88 750Q171 750 216 725T279 670Q288 649 289 635T291 501Q292 362 293 357Q306 312 345 291T417 269Q428 269 431 266T434 250T431 234T417 231Q380 231 345 210T298 157Q293 143 292 121T291 -28V-79Q291 -134 285 -156T256 -198Q202 -250 89 -250Q71 -250 68 -247T65 -230Q65 -224 65 -223T66 -218T69 -214T77 -213Q91 -213 108 -210T146 -200T183 -177T207 -139Q208 -134 209 3L210 139Q223 196 280 230Q315 247 330 250Q305 257 280 270Q225 304 212 352L210 362L209 498Q208 635 207 640Q195 680 154 696T77 713Q68 713 67 716T65 731Z"></path>
</defs>
<g stroke="currentColor" fill="currentColor" stroke-width="0" transform="matrix(1 0 0 -1 0 0)">
 <use xlink:href="#E1-MJMAINI-77" x="0" y="0"></use>
 <use transform="scale(0.707)" xlink:href="#E1-MJMAINI-6B" x="939" y="-213"></use>
 <use xlink:href="#E1-MJMAIN-3D" x="1617" y="0"></use>
<g transform="translate(2924,0)">
 <use xlink:href="#E1-MJMAINI-6D" x="0" y="0"></use>
 <use xlink:href="#E1-MJMAINI-69" x="818" y="0"></use>
 <use xlink:href="#E1-MJMAINI-6E" x="1126" y="0"></use>
</g>
 <use xlink:href="#E1-MJMAIN-7B" x="4612" y="0"></use>
<g transform="translate(5113,0)">
 <use xlink:href="#E1-MJMAINI-77" x="0" y="0"></use>
 <use transform="scale(0.707)" xlink:href="#E1-MJMAIN-31" x="939" y="-213"></use>
</g>
 <use xlink:href="#E1-MJMAIN-2C" x="6231" y="0"></use>
<g transform="translate(6926,0)">
 <use xlink:href="#E1-MJMAINI-77" x="0" y="0"></use>
 <use transform="scale(0.707)" xlink:href="#E1-MJMAIN-32" x="939" y="-213"></use>
</g>
 <use xlink:href="#E1-MJMAIN-2C" x="8045" y="0"></use>
 <use xlink:href="#E1-MJMAIN-2E" x="8740" y="0"></use>
 <use xlink:href="#E1-MJMAIN-2E" x="9185" y="0"></use>
 <use xlink:href="#E1-MJMAIN-2E" x="9630" y="0"></use>
 <use xlink:href="#E1-MJMAIN-2C" x="10075" y="0"></use>
<g transform="translate(10770,0)">
 <use xlink:href="#E1-MJMAINI-77" x="0" y="0"></use>
 <use transform="scale(0.707)" xlink:href="#E1-MJMAINI-6E" x="939" y="-213"></use>
</g>
 <use xlink:href="#E1-MJMAIN-7D" x="11933" y="0"></use>
</g>
</svg>