<svg xmlns:xlink="http://www.w3.org/1999/xlink" width="4.076ex" height="2.009ex" style="vertical-align: -0.338ex; font-size: 15px;" viewBox="0 -719.6 1755 865.1" role="img" focusable="false" xmlns="http://www.w3.org/2000/svg">
<defs>
<path stroke-width="1" id="E1-MJMAINI-72" d="M81 278Q75 284 75 289Q77 301 89 339Q122 442 183 442Q219 442 241 425T271 384L283 396Q327 442 384 442Q424 442 454 421T484 362Q484 327 464 312T424 296Q407 296 396 305T385 331Q385 352 394 365T414 384T424 390Q409 405 378 405Q322 405 276 315L268 300L234 161Q200 25 196 16Q182 -11 152 -11T120 18Q120 23 159 181Q199 343 199 346Q202 360 202 372Q202 405 182 405Q164 405 150 377T128 316T117 280Q115 278 98 278H81Z"></path>
<path stroke-width="1" id="E1-MJMATHI-6F" d="M201 -11Q126 -11 80 38T34 156Q34 221 64 279T146 380Q222 441 301 441Q333 441 341 440Q354 437 367 433T402 417T438 387T464 338T476 268Q476 161 390 75T201 -11ZM121 120Q121 70 147 48T206 26Q250 26 289 58T351 142Q360 163 374 216T388 308Q388 352 370 375Q346 405 306 405Q243 405 195 347Q158 303 140 230T121 120Z"></path>
<path stroke-width="1" id="E1-MJMATHI-74" d="M26 385Q19 392 19 395Q19 399 22 411T27 425Q29 430 36 430T87 431H140L159 511Q162 522 166 540T173 566T179 586T187 603T197 615T211 624T229 626Q247 625 254 615T261 596Q261 589 252 549T232 470L222 433Q222 431 272 431H323Q330 424 330 420Q330 398 317 385H210L174 240Q135 80 135 68Q135 26 162 26Q197 26 230 60T283 144Q285 150 288 151T303 153H307Q322 153 322 145Q322 142 319 133Q314 117 301 95T267 48T216 6T155 -11Q125 -11 98 4T59 56Q57 64 57 83V101L92 241Q127 382 128 383Q128 385 77 385H26Z"></path>
</defs>
<g stroke="currentColor" fill="currentColor" stroke-width="0" transform="matrix(1 0 0 -1 0 0)">
 <use xlink:href="#E1-MJMAINI-72" x="0" y="0"></use>
 <use xlink:href="#E1-MJMATHI-6F" x="422" y="0"></use>
 <use xlink:href="#E1-MJMATHI-6F" x="908" y="0"></use>
 <use xlink:href="#E1-MJMATHI-74" x="1393" y="0"></use>
</g>
</svg>