<svg xmlns:xlink="http://www.w3.org/1999/xlink" width="1.149ex" height="2.009ex" style="vertical-align: -0.671ex; margin-right: -0.079ex; font-size: 15px;" viewBox="0 -576.1 494.5 865.1" role="img" focusable="false" xmlns="http://www.w3.org/2000/svg">
<defs>
<path stroke-width="1" id="E1-MJMAINI-67" d="M103 163Q106 263 173 347T320 441Q322 441 329 441T341 442Q387 439 419 398Q420 399 420 400Q421 402 425 406T440 416T464 422Q476 421 485 413T494 396Q494 386 465 268T407 38T377 -77Q365 -123 310 -164T179 -205Q46 -205 46 -139Q46 -114 64 -97T106 -79Q127 -79 136 -91T146 -115Q146 -127 141 -138T130 -155T124 -162T125 -163Q133 -166 170 -168Q200 -168 217 -162Q242 -153 264 -130T297 -78Q298 -74 305 -46T320 10T327 38Q326 38 317 31T291 15T256 2Q249 1 231 1Q182 1 143 38T103 163ZM398 324Q398 330 395 346T375 383T332 405Q330 405 326 405T320 404Q291 396 263 365Q230 324 208 239T185 115Q185 38 238 38Q258 38 279 50T312 77T336 106L348 122Q349 125 373 223T398 324Z"></path>
</defs>
<g stroke="currentColor" fill="currentColor" stroke-width="0" transform="matrix(1 0 0 -1 0 0)">
 <use xlink:href="#E1-MJMAINI-67" x="0" y="0"></use>
</g>
</svg>