<svg xmlns:xlink="http://www.w3.org/1999/xlink" width="6.694ex" height="1.676ex" style="vertical-align: -0.338ex; margin-right: -0.079ex; font-size: 15px;" viewBox="0 -576.1 2881.9 721.6" role="img" focusable="false" xmlns="http://www.w3.org/2000/svg">
<defs>
<path stroke-width="1" id="E1-MJMAINI-6E" d="M449 44Q449 26 465 26Q482 26 502 43Q528 71 547 136Q550 148 552 150T566 153H572Q582 153 585 153T592 150T595 143Q595 133 585 105T547 41T483 -8Q475 -10 459 -10Q421 -10 399 12T377 72Q377 93 393 135Q448 288 448 349Q448 367 447 372Q437 405 408 405Q381 405 357 393T315 360T291 329T278 309Q267 290 262 274T231 151Q199 24 196 16Q182 -11 152 -11T120 18Q120 23 159 181Q199 343 199 346Q202 360 202 372Q202 406 183 406Q163 406 148 374Q142 360 135 338T124 299T117 280T98 278H81Q75 284 75 287Q76 293 78 303T90 341T110 388T141 425T184 442Q195 442 204 441T221 436T235 429T247 421T256 412T262 403T267 394T271 387T273 381L274 378V374L287 387Q342 442 414 442Q474 442 500 410T526 338Q526 290 488 178T449 44Z"></path>
<path stroke-width="1" id="E1-MJMAIN-D7" d="M630 29Q630 9 609 9Q604 9 587 25T493 118L389 222L284 117Q178 13 175 11Q171 9 168 9Q160 9 154 15T147 29Q147 36 161 51T255 146L359 250L255 354Q174 435 161 449T147 471Q147 480 153 485T168 490Q173 490 175 489Q178 487 284 383L389 278L493 382Q570 459 587 475T609 491Q630 491 630 471Q630 464 620 453T522 355L418 250L522 145Q606 61 618 48T630 29Z"></path>
</defs>
<g stroke="currentColor" fill="currentColor" stroke-width="0" transform="matrix(1 0 0 -1 0 0)">
 <use xlink:href="#E1-MJMAINI-6E" x="0" y="0"></use>
 <use xlink:href="#E1-MJMAIN-D7" x="1034" y="0"></use>
 <use xlink:href="#E1-MJMAINI-6E" x="2285" y="0"></use>
</g>
</svg>