<svg xmlns:xlink="http://www.w3.org/1999/xlink" width="28.989ex" height="3.343ex" style="vertical-align: -1.171ex; font-size: 15px;" viewBox="0 -934.9 12481.4 1439.2" role="img" focusable="false" xmlns="http://www.w3.org/2000/svg">
<defs></defs>
<g stroke="currentColor" fill="currentColor" stroke-width="0" transform="matrix(1 0 0 -1 0 0)">
<text font-family="monospace" stroke="none" transform="scale(71.759) matrix(1 0 0 -1 0 0)">白</text>
<g transform="translate(1148,0)">
<text font-family="monospace" stroke="none" transform="scale(71.759) matrix(1 0 0 -1 0 0)">球</text>
</g>
<g transform="translate(2546,0)">
<text font-family="monospace" stroke="none" transform="scale(71.759) matrix(1 0 0 -1 0 0)">白</text>
</g>
<g transform="translate(3694,0)">
<text font-family="monospace" stroke="none" transform="scale(71.759) matrix(1 0 0 -1 0 0)">球</text>
</g>
<g transform="translate(5092,0)">
<text font-family="monospace" stroke="none" transform="scale(71.759) matrix(1 0 0 -1 0 0)">黑</text>
</g>
<g transform="translate(6240,0)">
<text font-family="monospace" stroke="none" transform="scale(71.759) matrix(1 0 0 -1 0 0)">球</text>
</g>
<g transform="translate(7638,0)">
<text font-family="monospace" stroke="none" transform="scale(71.759) matrix(1 0 0 -1 0 0)">白</text>
</g>
<g transform="translate(8787,0)">
<text font-family="monospace" stroke="none" transform="scale(71.759) matrix(1 0 0 -1 0 0)">球</text>
</g>
<g transform="translate(10185,0)">
<text font-family="monospace" stroke="none" transform="scale(71.759) matrix(1 0 0 -1 0 0)">白</text>
</g>
<g transform="translate(11333,0)">
<text font-family="monospace" stroke="none" transform="scale(71.759) matrix(1 0 0 -1 0 0)">球</text>
</g>
</g>
</svg>