<svg xmlns:xlink="http://www.w3.org/1999/xlink" width="1.532ex" height="1.676ex" style="vertical-align: -0.338ex; font-size: 15px;" viewBox="0 -576.1 659.5 721.6" role="img" focusable="false" xmlns="http://www.w3.org/2000/svg">
<defs>
<path stroke-width="1" id="E1-MJMAINI-7A" d="M160 317Q158 317 155 317Q136 317 136 324Q136 351 171 396T260 442Q292 442 321 410T365 375H369Q384 375 404 408L425 441Q427 442 444 442H460Q466 436 466 434Q466 419 426 367Q387 314 294 222T178 105L170 95L181 94Q198 93 236 81T295 68Q328 68 356 89T395 141Q398 150 401 151T419 153Q441 153 441 144Q441 110 394 50T282 -11Q251 -11 221 23T171 57Q157 57 143 47T121 26T104 3T95 -10Q93 -11 76 -11H60Q54 -5 54 -2Q54 3 61 14Q103 88 233 215Q349 329 349 338L302 351Q269 362 247 362Q227 362 212 356T192 342T183 327T178 320Q175 317 160 317Z"></path>
</defs>
<g stroke="currentColor" fill="currentColor" stroke-width="0" transform="matrix(1 0 0 -1 0 0)">
 <use xlink:href="#E1-MJMAINI-7A" x="0" y="0"></use>
</g>
</svg>