<svg xmlns:xlink="http://www.w3.org/1999/xlink" width="3.081ex" height="2.176ex" style="vertical-align: -0.338ex; font-size: 15px;" viewBox="0 -791.3 1326.5 936.9" role="img" focusable="false" xmlns="http://www.w3.org/2000/svg">
<defs>
<path stroke-width="1" id="E1-MJMAINI-64" d="M418 54Q418 26 438 26Q466 26 494 131Q500 151 504 152Q507 153 516 153H521H526Q543 153 543 144Q543 143 541 129Q531 91 521 65T487 14T434 -11T383 3T354 30T347 48H346Q345 47 342 45T337 40Q282 -11 228 -11Q172 -11 137 34T101 146Q101 255 174 348T337 441Q354 441 368 437T390 427T404 414T413 404T417 400L471 616Q471 629 464 632T425 637H404Q398 643 398 645T400 664Q405 683 413 683Q418 683 478 688T555 694Q567 694 567 686Q567 676 495 389L419 86Q418 80 418 61V54ZM397 323Q397 329 394 340T385 367T365 394T333 405Q302 405 271 372Q249 349 235 316T203 215Q184 135 184 108V100Q184 71 191 56Q204 26 235 26Q267 26 300 57T344 112Q347 117 372 217T397 323Z"></path>
<path stroke-width="1" id="E1-MJMATHI-69" d="M184 600Q184 624 203 642T247 661Q265 661 277 649T290 619Q290 596 270 577T226 557Q211 557 198 567T184 600ZM21 287Q21 295 30 318T54 369T98 420T158 442Q197 442 223 419T250 357Q250 340 236 301T196 196T154 83Q149 61 149 51Q149 26 166 26Q175 26 185 29T208 43T235 78T260 137Q263 149 265 151T282 153Q302 153 302 143Q302 135 293 112T268 61T223 11T161 -11Q129 -11 102 10T74 74Q74 91 79 106T122 220Q160 321 166 341T173 380Q173 404 156 404H154Q124 404 99 371T61 287Q60 286 59 284T58 281T56 279T53 278T49 278T41 278H27Q21 284 21 287Z"></path>
<path stroke-width="1" id="E1-MJMATHI-73" d="M131 289Q131 321 147 354T203 415T300 442Q362 442 390 415T419 355Q419 323 402 308T364 292Q351 292 340 300T328 326Q328 342 337 354T354 372T367 378Q368 378 368 379Q368 382 361 388T336 399T297 405Q249 405 227 379T204 326Q204 301 223 291T278 274T330 259Q396 230 396 163Q396 135 385 107T352 51T289 7T195 -10Q118 -10 86 19T53 87Q53 126 74 143T118 160Q133 160 146 151T160 120Q160 94 142 76T111 58Q109 57 108 57T107 55Q108 52 115 47T146 34T201 27Q237 27 263 38T301 66T318 97T323 122Q323 150 302 164T254 181T195 196T148 231Q131 256 131 289Z"></path>
</defs>
<g stroke="currentColor" fill="currentColor" stroke-width="0" transform="matrix(1 0 0 -1 0 0)">
 <use xlink:href="#E1-MJMAINI-64" x="0" y="0"></use>
 <use xlink:href="#E1-MJMATHI-69" x="511" y="0"></use>
 <use xlink:href="#E1-MJMATHI-73" x="857" y="0"></use>
</g>
</svg>