<svg xmlns:xlink="http://www.w3.org/1999/xlink" width="1.999ex" height="2.176ex" style="vertical-align: -0.338ex; margin-right: -0.272ex; font-size: 15px;" viewBox="0 -791.3 860.5 936.9" role="img" focusable="false" xmlns="http://www.w3.org/2000/svg">
<defs>
<path stroke-width="1" id="E1-MJMAINI-48" d="M61 0Q54 7 54 11Q54 27 61 41Q65 46 95 46Q131 47 142 50T159 62Q161 66 230 344T300 626Q300 627 300 629L299 631Q293 637 238 637H220Q214 642 214 645T216 664Q220 677 226 683H239Q307 681 372 681Q480 681 486 683H496Q502 677 502 674T500 656Q496 643 490 637H472Q418 637 406 630Q400 627 396 612T367 500Q360 474 352 442T340 395L336 380Q336 378 466 378H596Q657 622 657 626Q657 627 656 629V631Q650 637 595 637H577Q571 642 571 645T573 664Q577 677 583 683H596Q664 681 729 681Q837 681 843 683H853Q860 676 860 672Q858 647 848 637H819Q783 636 772 634T756 623Q753 618 684 340T614 57Q614 50 621 49T666 46Q697 46 699 40Q701 37 698 21Q693 3 689 1Q686 0 677 0Q673 0 657 0T611 1T546 2Q453 2 428 0H418Q411 7 411 11Q411 27 418 41Q422 46 452 46Q488 47 499 50T516 62Q517 64 550 196T584 331Q584 332 454 332H324L291 197Q257 64 257 56Q257 50 265 49T309 46Q340 46 342 40Q344 37 341 21Q336 3 332 1Q329 0 320 0Q316 0 300 0T254 1T189 2Q96 2 71 0H61Z"></path>
</defs>
<g stroke="currentColor" fill="currentColor" stroke-width="0" transform="matrix(1 0 0 -1 0 0)">
 <use xlink:href="#E1-MJMAINI-48" x="0" y="0"></use>
</g>
</svg>