<svg xmlns:xlink="http://www.w3.org/1999/xlink" width="14.251ex" height="2.009ex" style="vertical-align: -0.671ex; font-size: 15px;" viewBox="0 -576.1 6135.9 865.1" role="img" focusable="false" xmlns="http://www.w3.org/2000/svg">
<defs>
<path stroke-width="1" id="E1-MJMAINI-63" d="M257 -10Q183 -10 143 37T103 155Q103 257 173 341T337 440Q341 441 348 441H358Q421 441 445 415T469 356Q469 320 450 305T410 289Q392 289 381 299T370 325Q370 362 404 378L414 383Q392 402 365 405Q322 405 285 375T227 294Q217 271 202 213T187 119Q187 27 263 27Q299 27 330 40Q361 51 386 71T424 106T440 121Q444 121 455 110T466 96Q466 92 458 81T432 54T390 24T331 0T257 -10Z"></path>
<path stroke-width="1" id="E1-MJMAIN-31" d="M213 578L200 573Q186 568 160 563T102 556H83V602H102Q149 604 189 617T245 641T273 663Q275 666 285 666Q294 666 302 660V361L303 61Q310 54 315 52T339 48T401 46H427V0H416Q395 3 257 3Q121 3 100 0H88V46H114Q136 46 152 46T177 47T193 50T201 52T207 57T213 61V578Z"></path>
<path stroke-width="1" id="E1-MJMAIN-2C" d="M78 35T78 60T94 103T137 121Q165 121 187 96T210 8Q210 -27 201 -60T180 -117T154 -158T130 -185T117 -194Q113 -194 104 -185T95 -172Q95 -168 106 -156T131 -126T157 -76T173 -3V9L172 8Q170 7 167 6T161 3T152 1T140 0Q113 0 96 17Z"></path>
<path stroke-width="1" id="E1-MJMAIN-32" d="M109 429Q82 429 66 447T50 491Q50 562 103 614T235 666Q326 666 387 610T449 465Q449 422 429 383T381 315T301 241Q265 210 201 149L142 93L218 92Q375 92 385 97Q392 99 409 186V189H449V186Q448 183 436 95T421 3V0H50V19V31Q50 38 56 46T86 81Q115 113 136 137Q145 147 170 174T204 211T233 244T261 278T284 308T305 340T320 369T333 401T340 431T343 464Q343 527 309 573T212 619Q179 619 154 602T119 569T109 550Q109 549 114 549Q132 549 151 535T170 489Q170 464 154 447T109 429Z"></path>
<path stroke-width="1" id="E1-MJMAIN-2E" d="M78 60Q78 84 95 102T138 120Q162 120 180 104T199 61Q199 36 182 18T139 0T96 17T78 60Z"></path>
<path stroke-width="1" id="E1-MJMAINI-6B" d="M158 683Q163 683 223 688T300 694Q312 694 312 686Q312 679 262 478L211 273Q212 272 219 276T248 299T296 349Q317 371 328 382T360 410T399 434T439 442Q462 442 480 427T498 373Q498 329 479 313T437 296Q420 296 409 305T398 331Q398 357 413 372T445 391Q454 392 448 399Q445 405 431 405Q408 405 377 385Q351 368 314 327T250 261Q243 257 243 254Q249 254 279 243T328 220Q366 192 366 146Q366 131 361 109T355 62V54Q355 26 376 26Q379 26 387 28Q420 36 443 130Q449 151 454 152Q457 153 465 153H470Q484 153 488 152T492 144Q492 141 489 126T476 88T454 42T420 5T372 -11Q331 -11 306 17T280 88Q280 100 283 119T287 146Q287 172 265 190T221 215T198 220Q197 220 173 121Q152 37 148 24T135 3Q121 -11 102 -11Q89 -11 80 -3T69 19L216 616Q216 629 209 632T170 637H149Q143 643 143 645T145 664Q150 683 158 683Z"></path>
</defs>
<g stroke="currentColor" fill="currentColor" stroke-width="0" transform="matrix(1 0 0 -1 0 0)">
 <use xlink:href="#E1-MJMAINI-63" x="0" y="0"></use>
 <use transform="scale(0.707)" xlink:href="#E1-MJMAIN-31" x="651" y="-213"></use>
 <use xlink:href="#E1-MJMAIN-2C" x="914" y="0"></use>
<g transform="translate(1609,0)">
 <use xlink:href="#E1-MJMAINI-63" x="0" y="0"></use>
 <use transform="scale(0.707)" xlink:href="#E1-MJMAIN-32" x="651" y="-213"></use>
</g>
 <use xlink:href="#E1-MJMAIN-2C" x="2523" y="0"></use>
 <use xlink:href="#E1-MJMAIN-2E" x="3219" y="0"></use>
 <use xlink:href="#E1-MJMAIN-2E" x="3664" y="0"></use>
 <use xlink:href="#E1-MJMAIN-2E" x="4109" y="0"></use>
 <use xlink:href="#E1-MJMAIN-2C" x="4554" y="0"></use>
<g transform="translate(5249,0)">
 <use xlink:href="#E1-MJMAINI-63" x="0" y="0"></use>
 <use transform="scale(0.707)" xlink:href="#E1-MJMAINI-6B" x="651" y="-213"></use>
</g>
</g>
</svg>