<svg xmlns:xlink="http://www.w3.org/1999/xlink" width="1.999ex" height="2.176ex" style="vertical-align: -0.338ex; margin-right: -0.272ex; font-size: 15px;" viewBox="0 -791.3 860.5 936.9" role="img" focusable="false" xmlns="http://www.w3.org/2000/svg">
<defs>
<path stroke-width="1" id="E1-MJMAINI-4E" d="M633 637Q624 637 621 639T617 650Q617 670 630 683H641Q682 680 736 680Q836 680 845 683H853Q860 676 860 672Q858 647 848 637H832Q764 633 750 598Q746 590 673 300Q656 230 638 156T610 44L600 7Q598 0 576 0H559Q553 6 448 297L342 588Q341 588 279 336T216 81Q216 49 274 46Q293 46 295 40Q297 37 294 21Q293 19 292 16T291 11T290 7T289 4T287 2T284 1T280 1T275 0T263 0T229 1T167 2Q91 2 70 0H61Q54 7 54 11T57 27Q61 41 64 43T83 46Q146 50 164 84Q167 90 235 362L303 634Q300 635 253 637H220Q214 643 214 645T216 664Q220 677 226 683H314Q386 683 397 683T410 677Q412 675 501 428L591 179Q591 178 592 180T595 189T600 209T610 246T624 303T645 385Q698 595 698 606Q698 618 683 627T633 637Z"></path>
</defs>
<g stroke="currentColor" fill="currentColor" stroke-width="0" transform="matrix(1 0 0 -1 0 0)">
 <use xlink:href="#E1-MJMAINI-4E" x="0" y="0"></use>
</g>
</svg>