<svg xmlns:xlink="http://www.w3.org/1999/xlink" width="15.195ex" height="2.009ex" style="vertical-align: -0.671ex; font-size: 15px;" viewBox="0 -576.1 6542.1 865.1" role="img" focusable="false" xmlns="http://www.w3.org/2000/svg">
<defs>
<path stroke-width="1" id="E1-MJMAINI-61" d="M418 53Q418 26 438 26Q466 26 494 131Q500 151 504 152Q507 153 516 153H521Q531 153 534 153T540 150T543 144Q543 141 540 126T529 88T509 43T477 5T434 -11Q404 -11 383 3T354 30T347 48H346Q345 47 342 45T337 40Q282 -11 228 -11Q172 -11 137 34T101 146Q101 260 177 351T333 442Q343 442 352 441T369 437T382 431T393 425T402 417T409 410T414 402T419 396Q423 406 436 414T461 422Q475 422 484 413T494 395Q494 384 459 244T420 88Q418 80 418 58V53ZM397 323Q397 344 382 374T333 405Q302 405 271 372Q249 349 235 316T203 215Q184 135 184 108V100V94Q184 54 207 35Q218 26 235 26Q279 26 330 91Q343 109 346 118T372 217Q397 317 397 323Z"></path>
<path stroke-width="1" id="E1-MJMAIN-31" d="M213 578L200 573Q186 568 160 563T102 556H83V602H102Q149 604 189 617T245 641T273 663Q275 666 285 666Q294 666 302 660V361L303 61Q310 54 315 52T339 48T401 46H427V0H416Q395 3 257 3Q121 3 100 0H88V46H114Q136 46 152 46T177 47T193 50T201 52T207 57T213 61V578Z"></path>
<path stroke-width="1" id="E1-MJMAIN-2C" d="M78 35T78 60T94 103T137 121Q165 121 187 96T210 8Q210 -27 201 -60T180 -117T154 -158T130 -185T117 -194Q113 -194 104 -185T95 -172Q95 -168 106 -156T131 -126T157 -76T173 -3V9L172 8Q170 7 167 6T161 3T152 1T140 0Q113 0 96 17Z"></path>
<path stroke-width="1" id="E1-MJMAIN-32" d="M109 429Q82 429 66 447T50 491Q50 562 103 614T235 666Q326 666 387 610T449 465Q449 422 429 383T381 315T301 241Q265 210 201 149L142 93L218 92Q375 92 385 97Q392 99 409 186V189H449V186Q448 183 436 95T421 3V0H50V19V31Q50 38 56 46T86 81Q115 113 136 137Q145 147 170 174T204 211T233 244T261 278T284 308T305 340T320 369T333 401T340 431T343 464Q343 527 309 573T212 619Q179 619 154 602T119 569T109 550Q109 549 114 549Q132 549 151 535T170 489Q170 464 154 447T109 429Z"></path>
<path stroke-width="1" id="E1-MJMAIN-2E" d="M78 60Q78 84 95 102T138 120Q162 120 180 104T199 61Q199 36 182 18T139 0T96 17T78 60Z"></path>
<path stroke-width="1" id="E1-MJMAINI-6D" d="M81 278Q75 284 75 289Q77 299 89 338Q101 373 114 396T142 428T166 439T186 442H189Q225 440 251 417Q266 401 271 384L275 374L286 386Q342 442 414 442Q428 442 440 440T461 435T479 427T493 418T503 407T511 397T516 387T520 378T523 370L524 366Q546 395 583 418T667 442Q729 442 755 411T782 338Q782 290 743 178T704 45Q704 26 720 26Q773 26 802 136Q805 148 807 150T822 153H828Q838 153 841 153T848 150T851 143Q851 137 843 115T821 63T778 12T715 -10Q671 -10 652 16T632 71Q632 88 668 191T704 349Q704 367 703 372Q693 405 664 405Q637 405 613 393T571 360T547 329T534 309Q523 290 518 274T487 151Q455 24 452 16Q438 -11 408 -11T376 18Q376 26 411 167T447 314Q449 325 449 346Q449 372 444 384Q431 405 408 405Q334 405 276 305Q266 289 262 273T231 151Q199 24 196 16Q182 -11 152 -11T120 18Q120 26 159 182T200 347Q202 361 202 372Q202 405 181 405Q168 405 159 391Q145 374 132 328T117 280T98 278H81Z"></path>
</defs>
<g stroke="currentColor" fill="currentColor" stroke-width="0" transform="matrix(1 0 0 -1 0 0)">
 <use xlink:href="#E1-MJMAINI-61" x="0" y="0"></use>
 <use transform="scale(0.707)" xlink:href="#E1-MJMAIN-31" x="723" y="-213"></use>
 <use xlink:href="#E1-MJMAIN-2C" x="965" y="0"></use>
<g transform="translate(1660,0)">
 <use xlink:href="#E1-MJMAINI-61" x="0" y="0"></use>
 <use transform="scale(0.707)" xlink:href="#E1-MJMAIN-32" x="723" y="-213"></use>
</g>
 <use xlink:href="#E1-MJMAIN-2C" x="2625" y="0"></use>
 <use xlink:href="#E1-MJMAIN-2E" x="3321" y="0"></use>
 <use xlink:href="#E1-MJMAIN-2E" x="3766" y="0"></use>
 <use xlink:href="#E1-MJMAIN-2E" x="4211" y="0"></use>
 <use xlink:href="#E1-MJMAIN-2C" x="4656" y="0"></use>
<g transform="translate(5351,0)">
 <use xlink:href="#E1-MJMAINI-61" x="0" y="0"></use>
 <use transform="scale(0.707)" xlink:href="#E1-MJMAINI-6D" x="723" y="-213"></use>
</g>
</g>
</svg>