<svg xmlns:xlink="http://www.w3.org/1999/xlink" width="1.65ex" height="2.009ex" style="vertical-align: -0.671ex; font-size: 15px;" viewBox="0 -576.1 710.5 865.1" role="img" focusable="false" xmlns="http://www.w3.org/2000/svg">
<defs>
<path stroke-width="1" id="E1-MJMAINI-71" d="M228 -11Q172 -11 137 33T101 147Q101 205 125 266T201 377T318 441Q322 442 333 442Q388 442 420 394L429 403Q439 413 455 423T481 437T494 442Q498 442 501 439T504 434Q504 425 435 149Q364 -135 364 -139Q364 -147 409 -148H434Q440 -155 440 -157T437 -175Q433 -191 429 -193Q425 -194 418 -194Q416 -194 406 -194T372 -193T309 -192Q259 -192 233 -192T204 -193Q190 -193 190 -184Q190 -181 192 -169Q196 -153 199 -151T219 -148Q266 -148 277 -141Q283 -137 305 -51L325 29L316 22Q270 -11 228 -11ZM397 323Q397 329 394 340T385 367T365 394T333 405Q302 405 271 372Q249 349 235 316T203 215Q184 135 184 108V100Q184 71 191 56Q204 26 235 26Q267 26 300 57T344 112Q347 117 372 217T397 323Z"></path>
</defs>
<g stroke="currentColor" fill="currentColor" stroke-width="0" transform="matrix(1 0 0 -1 0 0)">
 <use xlink:href="#E1-MJMAINI-71" x="0" y="0"></use>
</g>
</svg>