<svg xmlns:xlink="http://www.w3.org/1999/xlink" width="72.823ex" height="9.176ex" style="vertical-align: -4.005ex; font-size: 15px;" viewBox="0 -2226.5 31354 3950.7" role="img" focusable="false" xmlns="http://www.w3.org/2000/svg">
<defs>
<path stroke-width="1" id="E1-MJMAIN-72" d="M36 46H50Q89 46 97 60V68Q97 77 97 91T98 122T98 161T98 203Q98 234 98 269T98 328L97 351Q94 370 83 376T38 385H20V408Q20 431 22 431L32 432Q42 433 60 434T96 436Q112 437 131 438T160 441T171 442H174V373Q213 441 271 441H277Q322 441 343 419T364 373Q364 352 351 337T313 322Q288 322 276 338T263 372Q263 381 265 388T270 400T273 405Q271 407 250 401Q234 393 226 386Q179 341 179 207V154Q179 141 179 127T179 101T180 81T180 66V61Q181 59 183 57T188 54T193 51T200 49T207 48T216 47T225 47T235 46T245 46H276V0H267Q249 3 140 3Q37 3 28 0H20V46H36Z"></path>
<path stroke-width="1" id="E1-MJMAIN-65" d="M28 218Q28 273 48 318T98 391T163 433T229 448Q282 448 320 430T378 380T406 316T415 245Q415 238 408 231H126V216Q126 68 226 36Q246 30 270 30Q312 30 342 62Q359 79 369 104L379 128Q382 131 395 131H398Q415 131 415 121Q415 117 412 108Q393 53 349 21T250 -11Q155 -11 92 58T28 218ZM333 275Q322 403 238 411H236Q228 411 220 410T195 402T166 381T143 340T127 274V267H333V275Z"></path>
<path stroke-width="1" id="E1-MJMAIN-73" d="M295 316Q295 356 268 385T190 414Q154 414 128 401Q98 382 98 349Q97 344 98 336T114 312T157 287Q175 282 201 278T245 269T277 256Q294 248 310 236T342 195T359 133Q359 71 321 31T198 -10H190Q138 -10 94 26L86 19L77 10Q71 4 65 -1L54 -11H46H42Q39 -11 33 -5V74V132Q33 153 35 157T45 162H54Q66 162 70 158T75 146T82 119T101 77Q136 26 198 26Q295 26 295 104Q295 133 277 151Q257 175 194 187T111 210Q75 227 54 256T33 318Q33 357 50 384T93 424T143 442T187 447H198Q238 447 268 432L283 424L292 431Q302 440 314 448H322H326Q329 448 335 442V310L329 304H301Q295 310 295 316Z"></path>
<path stroke-width="1" id="E1-MJMAIN-75" d="M383 58Q327 -10 256 -10H249Q124 -10 105 89Q104 96 103 226Q102 335 102 348T96 369Q86 385 36 385H25V408Q25 431 27 431L38 432Q48 433 67 434T105 436Q122 437 142 438T172 441T184 442H187V261Q188 77 190 64Q193 49 204 40Q224 26 264 26Q290 26 311 35T343 58T363 90T375 120T379 144Q379 145 379 161T380 201T380 248V315Q380 361 370 372T320 385H302V431Q304 431 378 436T457 442H464V264Q464 84 465 81Q468 61 479 55T524 46H542V0Q540 0 467 -5T390 -11H383V58Z"></path>
<path stroke-width="1" id="E1-MJMAIN-6C" d="M42 46H56Q95 46 103 60V68Q103 77 103 91T103 124T104 167T104 217T104 272T104 329Q104 366 104 407T104 482T104 542T103 586T103 603Q100 622 89 628T44 637H26V660Q26 683 28 683L38 684Q48 685 67 686T104 688Q121 689 141 690T171 693T182 694H185V379Q185 62 186 60Q190 52 198 49Q219 46 247 46H263V0H255L232 1Q209 2 183 2T145 3T107 3T57 1L34 0H26V46H42Z"></path>
<path stroke-width="1" id="E1-MJMAIN-74" d="M27 422Q80 426 109 478T141 600V615H181V431H316V385H181V241Q182 116 182 100T189 68Q203 29 238 29Q282 29 292 100Q293 108 293 146V181H333V146V134Q333 57 291 17Q264 -10 221 -10Q187 -10 162 2T124 33T105 68T98 100Q97 107 97 248V385H18V422H27Z"></path>
<path stroke-width="1" id="E1-MJMAIN-3D" d="M56 347Q56 360 70 367H707Q722 359 722 347Q722 336 708 328L390 327H72Q56 332 56 347ZM56 153Q56 168 72 173H708Q722 163 722 153Q722 140 707 133H70Q56 140 56 153Z"></path>
<path stroke-width="1" id="E1-MJMAIN-64" d="M376 495Q376 511 376 535T377 568Q377 613 367 624T316 637H298V660Q298 683 300 683L310 684Q320 685 339 686T376 688Q393 689 413 690T443 693T454 694H457V390Q457 84 458 81Q461 61 472 55T517 46H535V0Q533 0 459 -5T380 -11H373V44L365 37Q307 -11 235 -11Q158 -11 96 50T34 215Q34 315 97 378T244 442Q319 442 376 393V495ZM373 342Q328 405 260 405Q211 405 173 369Q146 341 139 305T131 211Q131 155 138 120T173 59Q203 26 251 26Q322 26 373 103V342Z"></path>
<path stroke-width="1" id="E1-MJMAIN-69" d="M69 609Q69 637 87 653T131 669Q154 667 171 652T188 609Q188 579 171 564T129 549Q104 549 87 564T69 609ZM247 0Q232 3 143 3Q132 3 106 3T56 1L34 0H26V46H42Q70 46 91 49Q100 53 102 60T104 102V205V293Q104 345 102 359T88 378Q74 385 41 385H30V408Q30 431 32 431L42 432Q52 433 70 434T106 436Q123 437 142 438T171 441T182 442H185V62Q190 52 197 50T232 46H255V0H247Z"></path>
<path stroke-width="1" id="E1-MJMAIN-2212" d="M84 237T84 250T98 270H679Q694 262 694 250T679 230H98Q84 237 84 250Z"></path>
<path stroke-width="1" id="E1-MJMATHI-61" d="M33 157Q33 258 109 349T280 441Q331 441 370 392Q386 422 416 422Q429 422 439 414T449 394Q449 381 412 234T374 68Q374 43 381 35T402 26Q411 27 422 35Q443 55 463 131Q469 151 473 152Q475 153 483 153H487Q506 153 506 144Q506 138 501 117T481 63T449 13Q436 0 417 -8Q409 -10 393 -10Q359 -10 336 5T306 36L300 51Q299 52 296 50Q294 48 292 46Q233 -10 172 -10Q117 -10 75 30T33 157ZM351 328Q351 334 346 350T323 385T277 405Q242 405 210 374T160 293Q131 214 119 129Q119 126 119 118T118 106Q118 61 136 44T179 26Q217 26 254 59T298 110Q300 114 325 217T351 328Z"></path>
<path stroke-width="1" id="E1-MJMAIN-2B" d="M56 237T56 250T70 270H369V420L370 570Q380 583 389 583Q402 583 409 568V270H707Q722 262 722 250T707 230H409V-68Q401 -82 391 -82H389H387Q375 -82 369 -68V230H70Q56 237 56 250Z"></path>
<path stroke-width="1" id="E1-MJMAIN-31" d="M213 578L200 573Q186 568 160 563T102 556H83V602H102Q149 604 189 617T245 641T273 663Q275 666 285 666Q294 666 302 660V361L303 61Q310 54 315 52T339 48T401 46H427V0H416Q395 3 257 3Q121 3 100 0H88V46H114Q136 46 152 46T177 47T193 50T201 52T207 57T213 61V578Z"></path>
<path stroke-width="1" id="E1-MJMAIN-32" d="M109 429Q82 429 66 447T50 491Q50 562 103 614T235 666Q326 666 387 610T449 465Q449 422 429 383T381 315T301 241Q265 210 201 149L142 93L218 92Q375 92 385 97Q392 99 409 186V189H449V186Q448 183 436 95T421 3V0H50V19V31Q50 38 56 46T86 81Q115 113 136 137Q145 147 170 174T204 211T233 244T261 278T284 308T305 340T320 369T333 401T340 431T343 464Q343 527 309 573T212 619Q179 619 154 602T119 569T109 550Q109 549 114 549Q132 549 151 535T170 489Q170 464 154 447T109 429Z"></path>
<path stroke-width="1" id="E1-MJMAIN-33" d="M127 463Q100 463 85 480T69 524Q69 579 117 622T233 665Q268 665 277 664Q351 652 390 611T430 522Q430 470 396 421T302 350L299 348Q299 347 308 345T337 336T375 315Q457 262 457 175Q457 96 395 37T238 -22Q158 -22 100 21T42 130Q42 158 60 175T105 193Q133 193 151 175T169 130Q169 119 166 110T159 94T148 82T136 74T126 70T118 67L114 66Q165 21 238 21Q293 21 321 74Q338 107 338 175V195Q338 290 274 322Q259 328 213 329L171 330L168 332Q166 335 166 348Q166 366 174 366Q202 366 232 371Q266 376 294 413T322 525V533Q322 590 287 612Q265 626 240 626Q208 626 181 615T143 592T132 580H135Q138 579 143 578T153 573T165 566T175 555T183 540T186 520Q186 498 172 481T127 463Z"></path>
<path stroke-width="1" id="E1-MJMAIN-2E" d="M78 60Q78 84 95 102T138 120Q162 120 180 104T199 61Q199 36 182 18T139 0T96 17T78 60Z"></path>
<path stroke-width="1" id="E1-MJMATHI-6B" d="M121 647Q121 657 125 670T137 683Q138 683 209 688T282 694Q294 694 294 686Q294 679 244 477Q194 279 194 272Q213 282 223 291Q247 309 292 354T362 415Q402 442 438 442Q468 442 485 423T503 369Q503 344 496 327T477 302T456 291T438 288Q418 288 406 299T394 328Q394 353 410 369T442 390L458 393Q446 405 434 405H430Q398 402 367 380T294 316T228 255Q230 254 243 252T267 246T293 238T320 224T342 206T359 180T365 147Q365 130 360 106T354 66Q354 26 381 26Q429 26 459 145Q461 153 479 153H483Q499 153 499 144Q499 139 496 130Q455 -11 378 -11Q333 -11 305 15T277 90Q277 108 280 121T283 145Q283 167 269 183T234 206T200 217T182 220H180Q168 178 159 139T145 81T136 44T129 20T122 7T111 -2Q98 -11 83 -11Q66 -11 57 -1T48 16Q48 26 85 176T158 471L195 616Q196 629 188 632T149 637H144Q134 637 131 637T124 640T121 647Z"></path>
<path stroke-width="1" id="E1-MJMAIN-2217" d="M229 286Q216 420 216 436Q216 454 240 464Q241 464 245 464T251 465Q263 464 273 456T283 436Q283 419 277 356T270 286L328 328Q384 369 389 372T399 375Q412 375 423 365T435 338Q435 325 425 315Q420 312 357 282T289 250L355 219L425 184Q434 175 434 161Q434 146 425 136T401 125Q393 125 383 131T328 171L270 213Q283 79 283 63Q283 53 276 44T250 35Q231 35 224 44T216 63Q216 80 222 143T229 213L171 171Q115 130 110 127Q106 124 100 124Q87 124 76 134T64 161Q64 166 64 169T67 175T72 181T81 188T94 195T113 204T138 215T170 230T210 250L74 315Q65 324 65 338Q65 353 74 363T98 374Q106 374 116 368T171 328L229 286Z"></path>
<path stroke-width="1" id="E1-MJMAIN-28" d="M94 250Q94 319 104 381T127 488T164 576T202 643T244 695T277 729T302 750H315H319Q333 750 333 741Q333 738 316 720T275 667T226 581T184 443T167 250T184 58T225 -81T274 -167T316 -220T333 -241Q333 -250 318 -250H315H302L274 -226Q180 -141 137 -14T94 250Z"></path>
<path stroke-width="1" id="E1-MJMAIN-29" d="M60 749L64 750Q69 750 74 750H86L114 726Q208 641 251 514T294 250Q294 182 284 119T261 12T224 -76T186 -143T145 -194T113 -227T90 -246Q87 -249 86 -250H74Q66 -250 63 -250T58 -247T55 -238Q56 -237 66 -225Q221 -64 221 250T66 725Q56 737 55 738Q55 746 60 749Z"></path>
<path stroke-width="1" id="E1-MJMAIN-2F" d="M423 750Q432 750 438 744T444 730Q444 725 271 248T92 -240Q85 -250 75 -250Q68 -250 62 -245T56 -231Q56 -221 230 257T407 740Q411 750 423 750Z"></path>
</defs>
<g stroke="currentColor" fill="currentColor" stroke-width="0" transform="matrix(1 0 0 -1 0 0)">
<g transform="translate(167,0)">
<g transform="translate(-11,0)">
<g transform="translate(0,1301)">
 <use xlink:href="#E1-MJMAIN-72"></use>
 <use xlink:href="#E1-MJMAIN-65" x="392" y="0"></use>
 <use xlink:href="#E1-MJMAIN-73" x="837" y="0"></use>
 <use xlink:href="#E1-MJMAIN-75" x="1231" y="0"></use>
 <use xlink:href="#E1-MJMAIN-6C" x="1788" y="0"></use>
 <use xlink:href="#E1-MJMAIN-74" x="2066" y="0"></use>
</g>
</g>
<g transform="translate(2445,0)">
<g transform="translate(0,1301)">
 <use xlink:href="#E1-MJMAIN-3D" x="277" y="0"></use>
<g transform="translate(1334,0)">
 <use xlink:href="#E1-MJMAIN-64"></use>
 <use xlink:href="#E1-MJMAIN-69" x="556" y="0"></use>
 <use xlink:href="#E1-MJMAIN-73" x="835" y="0"></use>
 <use xlink:href="#E1-MJMAIN-74" x="1229" y="0"></use>
</g>
 <use xlink:href="#E1-MJMAIN-2212" x="3175" y="0"></use>
 <use xlink:href="#E1-MJMATHI-61" x="4176" y="0"></use>
 <use xlink:href="#E1-MJMAIN-2B" x="4927" y="0"></use>
 <use xlink:href="#E1-MJMAIN-31" x="5928" y="0"></use>
 <use xlink:href="#E1-MJMAIN-2B" x="6651" y="0"></use>
<g transform="translate(7651,0)">
 <use xlink:href="#E1-MJMAIN-64"></use>
 <use xlink:href="#E1-MJMAIN-69" x="556" y="0"></use>
 <use xlink:href="#E1-MJMAIN-73" x="835" y="0"></use>
 <use xlink:href="#E1-MJMAIN-74" x="1229" y="0"></use>
</g>
 <use xlink:href="#E1-MJMAIN-2212" x="9493" y="0"></use>
 <use xlink:href="#E1-MJMAIN-32" x="10493" y="0"></use>
 <use xlink:href="#E1-MJMATHI-61" x="10994" y="0"></use>
 <use xlink:href="#E1-MJMAIN-2B" x="11746" y="0"></use>
 <use xlink:href="#E1-MJMAIN-31" x="12746" y="0"></use>
 <use xlink:href="#E1-MJMAIN-2B" x="13469" y="0"></use>
<g transform="translate(14470,0)">
 <use xlink:href="#E1-MJMAIN-64"></use>
 <use xlink:href="#E1-MJMAIN-69" x="556" y="0"></use>
 <use xlink:href="#E1-MJMAIN-73" x="835" y="0"></use>
 <use xlink:href="#E1-MJMAIN-74" x="1229" y="0"></use>
</g>
 <use xlink:href="#E1-MJMAIN-2212" x="16311" y="0"></use>
 <use xlink:href="#E1-MJMAIN-33" x="17312" y="0"></use>
 <use xlink:href="#E1-MJMATHI-61" x="17812" y="0"></use>
 <use xlink:href="#E1-MJMAIN-2B" x="18564" y="0"></use>
 <use xlink:href="#E1-MJMAIN-31" x="19565" y="0"></use>
 <use xlink:href="#E1-MJMAIN-2B" x="20065" y="0"></use>
 <use xlink:href="#E1-MJMAIN-2E" x="20844" y="0"></use>
 <use xlink:href="#E1-MJMAIN-2E" x="21289" y="0"></use>
 <use xlink:href="#E1-MJMAIN-2E" x="21734" y="0"></use>
 <use xlink:href="#E1-MJMAIN-2B" x="22179" y="0"></use>
<g transform="translate(22958,0)">
 <use xlink:href="#E1-MJMAIN-64"></use>
 <use xlink:href="#E1-MJMAIN-69" x="556" y="0"></use>
 <use xlink:href="#E1-MJMAIN-73" x="835" y="0"></use>
 <use xlink:href="#E1-MJMAIN-74" x="1229" y="0"></use>
</g>
 <use xlink:href="#E1-MJMAIN-2212" x="24799" y="0"></use>
 <use xlink:href="#E1-MJMATHI-6B" x="25800" y="0"></use>
 <use xlink:href="#E1-MJMATHI-61" x="26321" y="0"></use>
 <use xlink:href="#E1-MJMAIN-2B" x="27073" y="0"></use>
 <use xlink:href="#E1-MJMAIN-31" x="28074" y="0"></use>
</g>
<g transform="translate(0,1)">
 <use xlink:href="#E1-MJMAIN-3D" x="277" y="0"></use>
 <use xlink:href="#E1-MJMATHI-6B" x="1334" y="0"></use>
 <use xlink:href="#E1-MJMAIN-2217" x="2077" y="0"></use>
 <use xlink:href="#E1-MJMAIN-28" x="2800" y="0"></use>
<g transform="translate(3190,0)">
 <use xlink:href="#E1-MJMAIN-64"></use>
 <use xlink:href="#E1-MJMAIN-69" x="556" y="0"></use>
 <use xlink:href="#E1-MJMAIN-73" x="835" y="0"></use>
 <use xlink:href="#E1-MJMAIN-74" x="1229" y="0"></use>
</g>
 <use xlink:href="#E1-MJMAIN-2B" x="5031" y="0"></use>
 <use xlink:href="#E1-MJMAIN-31" x="6031" y="0"></use>
 <use xlink:href="#E1-MJMAIN-29" x="6532" y="0"></use>
 <use xlink:href="#E1-MJMAIN-2212" x="7144" y="0"></use>
 <use xlink:href="#E1-MJMAIN-28" x="8144" y="0"></use>
 <use xlink:href="#E1-MJMAIN-31" x="8534" y="0"></use>
 <use xlink:href="#E1-MJMAIN-2B" x="9257" y="0"></use>
 <use xlink:href="#E1-MJMAIN-32" x="10257" y="0"></use>
 <use xlink:href="#E1-MJMAIN-2B" x="10758" y="0"></use>
 <use xlink:href="#E1-MJMAIN-2E" x="11536" y="0"></use>
 <use xlink:href="#E1-MJMAIN-2E" x="11982" y="0"></use>
 <use xlink:href="#E1-MJMAIN-2E" x="12427" y="0"></use>
 <use xlink:href="#E1-MJMAIN-2B" x="12872" y="0"></use>
 <use xlink:href="#E1-MJMATHI-6B" x="13650" y="0"></use>
 <use xlink:href="#E1-MJMAIN-29" x="14172" y="0"></use>
 <use xlink:href="#E1-MJMAIN-2217" x="14784" y="0"></use>
 <use xlink:href="#E1-MJMATHI-61" x="15506" y="0"></use>
</g>
<g transform="translate(0,-1350)">
 <use xlink:href="#E1-MJMAIN-3D" x="277" y="0"></use>
 <use xlink:href="#E1-MJMATHI-6B" x="1334" y="0"></use>
 <use xlink:href="#E1-MJMAIN-2217" x="2077" y="0"></use>
 <use xlink:href="#E1-MJMAIN-28" x="2800" y="0"></use>
<g transform="translate(3190,0)">
 <use xlink:href="#E1-MJMAIN-64"></use>
 <use xlink:href="#E1-MJMAIN-69" x="556" y="0"></use>
 <use xlink:href="#E1-MJMAIN-73" x="835" y="0"></use>
 <use xlink:href="#E1-MJMAIN-74" x="1229" y="0"></use>
</g>
 <use xlink:href="#E1-MJMAIN-2B" x="5031" y="0"></use>
 <use xlink:href="#E1-MJMAIN-31" x="6031" y="0"></use>
 <use xlink:href="#E1-MJMAIN-29" x="6532" y="0"></use>
 <use xlink:href="#E1-MJMAIN-2212" x="7144" y="0"></use>
 <use xlink:href="#E1-MJMAIN-28" x="8144" y="0"></use>
 <use xlink:href="#E1-MJMAIN-28" x="8534" y="0"></use>
 <use xlink:href="#E1-MJMATHI-6B" x="8923" y="0"></use>
 <use xlink:href="#E1-MJMAIN-2B" x="9667" y="0"></use>
 <use xlink:href="#E1-MJMAIN-31" x="10668" y="0"></use>
 <use xlink:href="#E1-MJMAIN-29" x="11168" y="0"></use>
 <use xlink:href="#E1-MJMAIN-2217" x="11780" y="0"></use>
 <use xlink:href="#E1-MJMATHI-6B" x="12503" y="0"></use>
 <use xlink:href="#E1-MJMAIN-2F" x="13024" y="0"></use>
 <use xlink:href="#E1-MJMAIN-32" x="13525" y="0"></use>
 <use xlink:href="#E1-MJMAIN-29" x="14025" y="0"></use>
 <use xlink:href="#E1-MJMAIN-2217" x="14637" y="0"></use>
 <use xlink:href="#E1-MJMATHI-61" x="15360" y="0"></use>
</g>
</g>
</g>
</g>
</svg>