<svg xmlns:xlink="http://www.w3.org/1999/xlink" width="9.764ex" height="2.009ex" style="vertical-align: -0.338ex; font-size: 15px;" viewBox="0 -719.6 4204 865.1" role="img" focusable="false" xmlns="http://www.w3.org/2000/svg">
<defs>
<path stroke-width="1" id="E1-MJTT-43" d="M40 305Q40 437 110 529T281 622Q315 622 343 611T387 589T404 578Q409 585 415 596T425 611T435 618T452 622Q472 622 478 609T485 566Q485 559 485 540T484 508V460Q484 413 478 403T442 393Q417 393 409 402Q400 409 400 420Q400 428 395 445T380 487T347 528T295 546Q235 546 180 483T124 306Q124 245 141 197T186 121T241 80T296 66Q346 66 373 103T400 178Q400 209 435 209H442H450Q484 209 484 172Q480 96 421 43T281 -11Q177 -11 109 84T40 305Z"></path>
<path stroke-width="1" id="E1-MJTT-53" d="M52 454Q52 524 107 572T229 621Q266 621 274 620Q326 610 360 588L371 581Q377 594 379 598T386 610T397 619T412 622Q433 622 439 610T446 570Q446 563 446 545T445 515V479Q445 441 444 432T436 417Q428 408 403 408T370 417Q361 424 361 434Q361 439 360 448T351 476T331 509T295 535T238 546Q194 546 163 522T132 458Q132 435 148 412Q155 401 166 393T192 380T218 371T247 364T270 359Q341 342 349 339Q389 325 418 296T461 229Q472 201 472 164Q469 92 417 41T287 -11Q240 -11 200 -1T143 19L126 29Q117 6 109 -2Q100 -11 84 -11Q64 -11 58 1T51 42Q51 49 51 66T52 95V135Q52 173 53 180T61 194Q70 203 95 203Q119 203 127 194Q136 186 136 168Q143 66 284 66H290Q325 66 350 85Q391 115 391 165Q391 204 369 228T322 260Q320 260 255 275T185 293Q123 309 88 355T52 454Z"></path>
<path stroke-width="1" id="E1-MJTT-50" d="M41 1Q19 9 19 32V38Q19 63 36 73Q42 76 65 76H89V535H65H55Q38 535 29 543T19 576Q19 603 41 610H49Q57 610 70 610T100 610T136 611T175 611Q190 611 216 611T255 612Q321 612 363 598T441 537Q480 486 480 427V421Q480 354 447 311T378 251Q339 230 275 230H239H173V76H197Q220 76 227 73Q244 62 244 38Q244 10 222 1H41ZM396 421Q396 461 369 491T300 533Q294 534 233 535H173V306H233Q294 307 300 308Q345 319 370 352T396 421Z"></path>
<path stroke-width="1" id="E1-MJTT-2D" d="M57 306Q57 333 86 341H438Q468 332 468 306T438 271H86Q57 280 57 306Z"></path>
<path stroke-width="1" id="E1-MJTT-32" d="M52 462Q52 528 110 575T247 622H250Q343 622 407 565T472 421Q472 371 446 324T390 248T308 178Q307 177 275 151T214 101L185 77Q185 76 286 76H388V87Q388 105 397 114T430 123T463 114Q470 107 471 100T472 61V42Q472 24 468 16T450 1H75Q53 10 53 32V38V48Q53 57 63 67T127 122Q153 144 169 157L289 256Q388 345 388 419Q388 473 346 509T231 545H224Q176 545 146 499L144 494Q155 476 155 459Q154 459 155 455T154 444T148 430T136 417T114 408Q113 408 110 408T104 407Q80 407 66 422T52 462Z"></path>
<path stroke-width="1" id="E1-MJTT-30" d="M42 305Q42 450 111 535T257 621Q335 621 390 562Q482 468 482 306Q482 174 418 82T262 -10T106 82T42 305ZM257 545Q209 545 168 481T126 320Q126 220 162 147Q204 65 262 65Q318 65 358 139T398 320V328Q395 411 364 470T284 543Q270 545 257 545Z"></path>
<path stroke-width="1" id="E1-MJTT-31" d="M99 461Q99 470 99 474T104 487T120 498T151 502Q213 517 251 596Q264 622 283 622Q308 622 319 597V76H373H401Q428 76 439 69T450 38Q450 11 428 1H127Q104 10 104 38Q104 62 115 69T153 76H181H235V269Q235 461 234 461Q184 426 137 424H133Q124 424 119 425T109 431T99 447V461Z"></path>
</defs>
<g stroke="currentColor" fill="currentColor" stroke-width="0" transform="matrix(1 0 0 -1 0 0)">
 <use xlink:href="#E1-MJTT-43"></use>
 <use xlink:href="#E1-MJTT-53" x="525" y="0"></use>
 <use xlink:href="#E1-MJTT-50" x="1051" y="0"></use>
 <use xlink:href="#E1-MJTT-2D" x="1576" y="0"></use>
 <use xlink:href="#E1-MJTT-32" x="2102" y="0"></use>
 <use xlink:href="#E1-MJTT-30" x="2627" y="0"></use>
 <use xlink:href="#E1-MJTT-32" x="3153" y="0"></use>
 <use xlink:href="#E1-MJTT-31" x="3678" y="0"></use>
</g>
</svg>