<svg xmlns:xlink="http://www.w3.org/1999/xlink" width="2.347ex" height="2.176ex" style="vertical-align: -0.338ex; margin-right: -0.262ex; font-size: 15px;" viewBox="0 -791.3 1010.5 936.9" role="img" focusable="false" xmlns="http://www.w3.org/2000/svg">
<defs>
<path stroke-width="1" id="E1-MJMAINI-4D" d="M72 1Q58 1 58 11Q58 33 66 41Q68 46 87 46Q150 50 168 84Q172 91 238 356T304 626Q304 627 304 629L303 631Q297 637 242 637H224Q218 642 218 645T220 664Q224 677 230 683H326H394Q417 683 422 682T429 676L480 127L502 163Q523 199 560 262T642 400Q801 668 805 676L817 683H1003Q1010 678 1010 672Q1010 650 997 637H979Q915 637 906 623Q903 618 834 340T764 57Q764 50 771 49T817 46H845Q851 38 851 37T848 19Q845 7 838 0H824Q789 2 701 2Q670 2 644 2T603 2T584 1Q569 1 569 11Q569 13 571 25Q576 42 581 45L586 46Q590 46 597 46T611 46Q646 47 657 50T674 62L813 616L634 313Q453 7 452 7Q446 0 428 0Q409 0 407 6Q405 10 379 304T351 604L285 348Q220 83 220 82Q220 65 233 57T279 46H295Q301 38 301 37T298 19Q295 7 288 0H275Q244 2 171 2Q145 2 123 2T88 2T72 1Z"></path>
</defs>
<g stroke="currentColor" fill="currentColor" stroke-width="0" transform="matrix(1 0 0 -1 0 0)">
 <use xlink:href="#E1-MJMAINI-4D" x="0" y="0"></use>
</g>
</svg>