<svg xmlns:xlink="http://www.w3.org/1999/xlink" width="100ex" height="32.509ex" style="vertical-align: -29.171ex; max-width: 60000px; font-size: 15px;" viewBox="0 -1437.2 43055.4 13997" role="img" focusable="false" xmlns="http://www.w3.org/2000/svg">
<defs>
<path stroke-width="1" id="E1-MJMATHI-3C3" d="M184 -11Q116 -11 74 34T31 147Q31 247 104 333T274 430Q275 431 414 431H552Q553 430 555 429T559 427T562 425T565 422T567 420T569 416T570 412T571 407T572 401Q572 357 507 357Q500 357 490 357T476 358H416L421 348Q439 310 439 263Q439 153 359 71T184 -11ZM361 278Q361 358 276 358Q152 358 115 184Q114 180 114 178Q106 141 106 117Q106 67 131 47T188 26Q242 26 287 73Q316 103 334 153T356 233T361 278Z"></path>
<path stroke-width="1" id="E1-MJMAIN-28" d="M94 250Q94 319 104 381T127 488T164 576T202 643T244 695T277 729T302 750H315H319Q333 750 333 741Q333 738 316 720T275 667T226 581T184 443T167 250T184 58T225 -81T274 -167T316 -220T333 -241Q333 -250 318 -250H315H302L274 -226Q180 -141 137 -14T94 250Z"></path>
<path stroke-width="1" id="E1-MJMATHI-74" d="M26 385Q19 392 19 395Q19 399 22 411T27 425Q29 430 36 430T87 431H140L159 511Q162 522 166 540T173 566T179 586T187 603T197 615T211 624T229 626Q247 625 254 615T261 596Q261 589 252 549T232 470L222 433Q222 431 272 431H323Q330 424 330 420Q330 398 317 385H210L174 240Q135 80 135 68Q135 26 162 26Q197 26 230 60T283 144Q285 150 288 151T303 153H307Q322 153 322 145Q322 142 319 133Q314 117 301 95T267 48T216 6T155 -11Q125 -11 98 4T59 56Q57 64 57 83V101L92 241Q127 382 128 383Q128 385 77 385H26Z"></path>
<path stroke-width="1" id="E1-MJMAIN-29" d="M60 749L64 750Q69 750 74 750H86L114 726Q208 641 251 514T294 250Q294 182 284 119T261 12T224 -76T186 -143T145 -194T113 -227T90 -246Q87 -249 86 -250H74Q66 -250 63 -250T58 -247T55 -238Q56 -237 66 -225Q221 -64 221 250T66 725Q56 737 55 738Q55 746 60 749Z"></path>
<path stroke-width="1" id="E1-MJMAIN-3D" d="M56 347Q56 360 70 367H707Q722 359 722 347Q722 336 708 328L390 327H72Q56 332 56 347ZM56 153Q56 168 72 173H708Q722 163 722 153Q722 140 707 133H70Q56 140 56 153Z"></path>
<path stroke-width="1" id="E1-MJMAIN-31" d="M213 578L200 573Q186 568 160 563T102 556H83V602H102Q149 604 189 617T245 641T273 663Q275 666 285 666Q294 666 302 660V361L303 61Q310 54 315 52T339 48T401 46H427V0H416Q395 3 257 3Q121 3 100 0H88V46H114Q136 46 152 46T177 47T193 50T201 52T207 57T213 61V578Z"></path>
<path stroke-width="1" id="E1-MJMAIN-2B" d="M56 237T56 250T70 270H369V420L370 570Q380 583 389 583Q402 583 409 568V270H707Q722 262 722 250T707 230H409V-68Q401 -82 391 -82H389H387Q375 -82 369 -68V230H70Q56 237 56 250Z"></path>
<path stroke-width="1" id="E1-MJMATHI-65" d="M39 168Q39 225 58 272T107 350T174 402T244 433T307 442H310Q355 442 388 420T421 355Q421 265 310 237Q261 224 176 223Q139 223 138 221Q138 219 132 186T125 128Q125 81 146 54T209 26T302 45T394 111Q403 121 406 121Q410 121 419 112T429 98T420 82T390 55T344 24T281 -1T205 -11Q126 -11 83 42T39 168ZM373 353Q367 405 305 405Q272 405 244 391T199 357T170 316T154 280T149 261Q149 260 169 260Q282 260 327 284T373 353Z"></path>
<path stroke-width="1" id="E1-MJMAIN-2212" d="M84 237T84 250T98 270H679Q694 262 694 250T679 230H98Q84 237 84 250Z"></path>
<path stroke-width="1" id="E1-MJMAIN-2202" d="M202 508Q179 508 169 520T158 547Q158 557 164 577T185 624T230 675T301 710L333 715H345Q378 715 384 714Q447 703 489 661T549 568T566 457Q566 362 519 240T402 53Q321 -22 223 -22Q123 -22 73 56Q42 102 42 148V159Q42 276 129 370T322 465Q383 465 414 434T455 367L458 378Q478 461 478 515Q478 603 437 639T344 676Q266 676 223 612Q264 606 264 572Q264 547 246 528T202 508ZM430 306Q430 372 401 400T333 428Q270 428 222 382Q197 354 183 323T150 221Q132 149 132 116Q132 21 232 21Q244 21 250 22Q327 35 374 112Q389 137 409 196T430 306Z"></path>
<path stroke-width="1" id="E1-MJMAIN-32" d="M109 429Q82 429 66 447T50 491Q50 562 103 614T235 666Q326 666 387 610T449 465Q449 422 429 383T381 315T301 241Q265 210 201 149L142 93L218 92Q375 92 385 97Q392 99 409 186V189H449V186Q448 183 436 95T421 3V0H50V19V31Q50 38 56 46T86 81Q115 113 136 137Q145 147 170 174T204 211T233 244T261 278T284 308T305 340T320 369T333 401T340 431T343 464Q343 527 309 573T212 619Q179 619 154 602T119 569T109 550Q109 549 114 549Q132 549 151 535T170 489Q170 464 154 447T109 429Z"></path>
<path stroke-width="1" id="E1-MJMAIN-22C5" d="M78 250Q78 274 95 292T138 310Q162 310 180 294T199 251Q199 226 182 208T139 190T96 207T78 250Z"></path>
</defs>
<g stroke="currentColor" fill="currentColor" stroke-width="0" transform="matrix(1 0 0 -1 0 0)">
<g transform="translate(18276,0)">
 <use xlink:href="#E1-MJMATHI-3C3" x="0" y="0"></use>
 <use xlink:href="#E1-MJMAIN-28" x="572" y="0"></use>
 <use xlink:href="#E1-MJMATHI-74" x="962" y="0"></use>
 <use xlink:href="#E1-MJMAIN-29" x="1323" y="0"></use>
 <use xlink:href="#E1-MJMAIN-3D" x="1990" y="0"></use>
<g transform="translate(2769,0)">
<g transform="translate(397,0)">
<rect stroke="none" width="3216" height="60" x="0" y="220"></rect>
 <use xlink:href="#E1-MJMAIN-31" x="1357" y="676"></use>
<g transform="translate(60,-752)">
 <use xlink:href="#E1-MJMAIN-31" x="0" y="0"></use>
 <use xlink:href="#E1-MJMAIN-2B" x="722" y="0"></use>
<g transform="translate(1723,0)">
 <use xlink:href="#E1-MJMATHI-65" x="0" y="0"></use>
<g transform="translate(466,288)">
 <use transform="scale(0.707)" xlink:href="#E1-MJMAIN-2212" x="0" y="0"></use>
 <use transform="scale(0.707)" xlink:href="#E1-MJMATHI-74" x="778" y="0"></use>
</g>
</g>
</g>
</g>
</g>
</g>
<g transform="translate(16806,-2787)">
<g transform="translate(120,0)">
<rect stroke="none" width="2400" height="60" x="0" y="220"></rect>
<g transform="translate(60,770)">
 <use xlink:href="#E1-MJMAIN-2202" x="0" y="0"></use>
 <use xlink:href="#E1-MJMATHI-3C3" x="567" y="0"></use>
 <use xlink:href="#E1-MJMAIN-28" x="1140" y="0"></use>
 <use xlink:href="#E1-MJMATHI-74" x="1529" y="0"></use>
 <use xlink:href="#E1-MJMAIN-29" x="1891" y="0"></use>
</g>
<g transform="translate(735,-736)">
 <use xlink:href="#E1-MJMAIN-2202" x="0" y="0"></use>
 <use xlink:href="#E1-MJMATHI-74" x="567" y="0"></use>
</g>
</g>
 <use xlink:href="#E1-MJMAIN-3D" x="2918" y="0"></use>
 <use xlink:href="#E1-MJMAIN-2212" x="3974" y="0"></use>
<g transform="translate(4753,0)">
<g transform="translate(120,0)">
<rect stroke="none" width="4448" height="60" x="0" y="220"></rect>
<g transform="translate(1148,676)">
 <use xlink:href="#E1-MJMAIN-2212" x="0" y="0"></use>
<g transform="translate(778,0)">
 <use xlink:href="#E1-MJMATHI-65" x="0" y="0"></use>
<g transform="translate(466,362)">
 <use transform="scale(0.707)" xlink:href="#E1-MJMAIN-2212" x="0" y="0"></use>
 <use transform="scale(0.707)" xlink:href="#E1-MJMATHI-74" x="778" y="0"></use>
</g>
</g>
</g>
<g transform="translate(60,-780)">
 <use xlink:href="#E1-MJMAIN-28" x="0" y="0"></use>
 <use xlink:href="#E1-MJMAIN-31" x="389" y="0"></use>
 <use xlink:href="#E1-MJMAIN-2B" x="1112" y="0"></use>
<g transform="translate(2112,0)">
 <use xlink:href="#E1-MJMATHI-65" x="0" y="0"></use>
<g transform="translate(466,288)">
 <use transform="scale(0.707)" xlink:href="#E1-MJMAIN-2212" x="0" y="0"></use>
 <use transform="scale(0.707)" xlink:href="#E1-MJMATHI-74" x="778" y="0"></use>
</g>
</g>
<g transform="translate(3485,0)">
 <use xlink:href="#E1-MJMAIN-29" x="0" y="0"></use>
 <use transform="scale(0.707)" xlink:href="#E1-MJMAIN-32" x="550" y="408"></use>
</g>
</g>
</g>
</g>
</g>
<g transform="translate(17195,-5770)">
<g transform="translate(120,0)">
<rect stroke="none" width="2400" height="60" x="0" y="220"></rect>
<g transform="translate(60,770)">
 <use xlink:href="#E1-MJMAIN-2202" x="0" y="0"></use>
 <use xlink:href="#E1-MJMATHI-3C3" x="567" y="0"></use>
 <use xlink:href="#E1-MJMAIN-28" x="1140" y="0"></use>
 <use xlink:href="#E1-MJMATHI-74" x="1529" y="0"></use>
 <use xlink:href="#E1-MJMAIN-29" x="1891" y="0"></use>
</g>
<g transform="translate(735,-736)">
 <use xlink:href="#E1-MJMAIN-2202" x="0" y="0"></use>
 <use xlink:href="#E1-MJMATHI-74" x="567" y="0"></use>
</g>
</g>
 <use xlink:href="#E1-MJMAIN-3D" x="2918" y="0"></use>
<g transform="translate(3696,0)">
<g transform="translate(397,0)">
<rect stroke="none" width="4448" height="60" x="0" y="220"></rect>
<g transform="translate(1538,676)">
 <use xlink:href="#E1-MJMATHI-65" x="0" y="0"></use>
<g transform="translate(466,362)">
 <use transform="scale(0.707)" xlink:href="#E1-MJMAIN-2212" x="0" y="0"></use>
 <use transform="scale(0.707)" xlink:href="#E1-MJMATHI-74" x="778" y="0"></use>
</g>
</g>
<g transform="translate(60,-780)">
 <use xlink:href="#E1-MJMAIN-28" x="0" y="0"></use>
 <use xlink:href="#E1-MJMAIN-31" x="389" y="0"></use>
 <use xlink:href="#E1-MJMAIN-2B" x="1112" y="0"></use>
<g transform="translate(2112,0)">
 <use xlink:href="#E1-MJMATHI-65" x="0" y="0"></use>
<g transform="translate(466,288)">
 <use transform="scale(0.707)" xlink:href="#E1-MJMAIN-2212" x="0" y="0"></use>
 <use transform="scale(0.707)" xlink:href="#E1-MJMATHI-74" x="778" y="0"></use>
</g>
</g>
<g transform="translate(3485,0)">
 <use xlink:href="#E1-MJMAIN-29" x="0" y="0"></use>
 <use transform="scale(0.707)" xlink:href="#E1-MJMAIN-32" x="550" y="408"></use>
</g>
</g>
</g>
</g>
</g>
<g transform="translate(14943,-8753)">
<g transform="translate(120,0)">
<rect stroke="none" width="2400" height="60" x="0" y="220"></rect>
<g transform="translate(60,770)">
 <use xlink:href="#E1-MJMAIN-2202" x="0" y="0"></use>
 <use xlink:href="#E1-MJMATHI-3C3" x="567" y="0"></use>
 <use xlink:href="#E1-MJMAIN-28" x="1140" y="0"></use>
 <use xlink:href="#E1-MJMATHI-74" x="1529" y="0"></use>
 <use xlink:href="#E1-MJMAIN-29" x="1891" y="0"></use>
</g>
<g transform="translate(735,-736)">
 <use xlink:href="#E1-MJMAIN-2202" x="0" y="0"></use>
 <use xlink:href="#E1-MJMATHI-74" x="567" y="0"></use>
</g>
</g>
 <use xlink:href="#E1-MJMAIN-3D" x="2918" y="0"></use>
<g transform="translate(3696,0)">
<g transform="translate(397,0)">
<rect stroke="none" width="3995" height="60" x="0" y="220"></rect>
 <use xlink:href="#E1-MJMAIN-31" x="1747" y="676"></use>
<g transform="translate(60,-771)">
 <use xlink:href="#E1-MJMAIN-28" x="0" y="0"></use>
 <use xlink:href="#E1-MJMAIN-31" x="389" y="0"></use>
 <use xlink:href="#E1-MJMAIN-2B" x="1112" y="0"></use>
<g transform="translate(2112,0)">
 <use xlink:href="#E1-MJMATHI-65" x="0" y="0"></use>
<g transform="translate(466,288)">
 <use transform="scale(0.707)" xlink:href="#E1-MJMAIN-2212" x="0" y="0"></use>
 <use transform="scale(0.707)" xlink:href="#E1-MJMATHI-74" x="778" y="0"></use>
</g>
</g>
 <use xlink:href="#E1-MJMAIN-29" x="3485" y="0"></use>
</g>
</g>
</g>
 <use xlink:href="#E1-MJMAIN-22C5" x="8431" y="0"></use>
<g transform="translate(8710,0)">
<g transform="translate(342,0)">
<rect stroke="none" width="3995" height="60" x="0" y="220"></rect>
<g transform="translate(1311,676)">
 <use xlink:href="#E1-MJMATHI-65" x="0" y="0"></use>
<g transform="translate(466,362)">
 <use transform="scale(0.707)" xlink:href="#E1-MJMAIN-2212" x="0" y="0"></use>
 <use transform="scale(0.707)" xlink:href="#E1-MJMATHI-74" x="778" y="0"></use>
</g>
</g>
<g transform="translate(60,-771)">
 <use xlink:href="#E1-MJMAIN-28" x="0" y="0"></use>
 <use xlink:href="#E1-MJMAIN-31" x="389" y="0"></use>
 <use xlink:href="#E1-MJMAIN-2B" x="1112" y="0"></use>
<g transform="translate(2112,0)">
 <use xlink:href="#E1-MJMATHI-65" x="0" y="0"></use>
<g transform="translate(466,288)">
 <use transform="scale(0.707)" xlink:href="#E1-MJMAIN-2212" x="0" y="0"></use>
 <use transform="scale(0.707)" xlink:href="#E1-MJMATHI-74" x="778" y="0"></use>
</g>
</g>
 <use xlink:href="#E1-MJMAIN-29" x="3485" y="0"></use>
</g>
</g>
</g>
</g>
<g transform="translate(16178,-11726)">
<g>
<g transform="translate(120,0)">
<rect stroke="none" width="2400" height="60" x="0" y="220"></rect>
<g transform="translate(60,770)">
 <use xlink:href="#E1-MJMAIN-2202" x="0" y="0"></use>
 <use xlink:href="#E1-MJMATHI-3C3" x="567" y="0"></use>
 <use xlink:href="#E1-MJMAIN-28" x="1140" y="0"></use>
 <use xlink:href="#E1-MJMATHI-74" x="1529" y="0"></use>
 <use xlink:href="#E1-MJMAIN-29" x="1891" y="0"></use>
</g>
<g transform="translate(735,-736)">
 <use xlink:href="#E1-MJMAIN-2202" x="0" y="0"></use>
 <use xlink:href="#E1-MJMATHI-74" x="567" y="0"></use>
</g>
</g>
 <use xlink:href="#E1-MJMAIN-3D" x="2918" y="0"></use>
 <use xlink:href="#E1-MJMATHI-3C3" x="3974" y="0"></use>
 <use xlink:href="#E1-MJMAIN-28" x="4547" y="0"></use>
 <use xlink:href="#E1-MJMATHI-74" x="4936" y="0"></use>
 <use xlink:href="#E1-MJMAIN-29" x="5298" y="0"></use>
 <use xlink:href="#E1-MJMAIN-22C5" x="5909" y="0"></use>
 <use xlink:href="#E1-MJMAIN-28" x="6410" y="0"></use>
 <use xlink:href="#E1-MJMAIN-31" x="6800" y="0"></use>
 <use xlink:href="#E1-MJMAIN-2212" x="7522" y="0"></use>
 <use xlink:href="#E1-MJMATHI-3C3" x="8523" y="0"></use>
 <use xlink:href="#E1-MJMAIN-28" x="9095" y="0"></use>
 <use xlink:href="#E1-MJMATHI-74" x="9485" y="0"></use>
 <use xlink:href="#E1-MJMAIN-29" x="9846" y="0"></use>
 <use xlink:href="#E1-MJMAIN-29" x="10236" y="0"></use>
</g>
<g transform="translate(71,0)">
<g transform="translate(120,0)">
<rect stroke="none" width="2400" height="60" x="0" y="220"></rect>
<g transform="translate(60,770)">
 <use xlink:href="#E1-MJMAIN-2202" x="0" y="0"></use>
 <use xlink:href="#E1-MJMATHI-3C3" x="567" y="0"></use>
 <use xlink:href="#E1-MJMAIN-28" x="1140" y="0"></use>
 <use xlink:href="#E1-MJMATHI-74" x="1529" y="0"></use>
 <use xlink:href="#E1-MJMAIN-29" x="1891" y="0"></use>
</g>
<g transform="translate(735,-736)">
 <use xlink:href="#E1-MJMAIN-2202" x="0" y="0"></use>
 <use xlink:href="#E1-MJMATHI-74" x="567" y="0"></use>
</g>
</g>
 <use xlink:href="#E1-MJMAIN-3D" x="2918" y="0"></use>
 <use xlink:href="#E1-MJMATHI-3C3" x="3974" y="0"></use>
 <use xlink:href="#E1-MJMAIN-28" x="4547" y="0"></use>
 <use xlink:href="#E1-MJMATHI-74" x="4936" y="0"></use>
 <use xlink:href="#E1-MJMAIN-29" x="5298" y="0"></use>
 <use xlink:href="#E1-MJMAIN-22C5" x="5909" y="0"></use>
 <use xlink:href="#E1-MJMAIN-28" x="6410" y="0"></use>
 <use xlink:href="#E1-MJMAIN-31" x="6800" y="0"></use>
 <use xlink:href="#E1-MJMAIN-2212" x="7522" y="0"></use>
 <use xlink:href="#E1-MJMATHI-3C3" x="8523" y="0"></use>
 <use xlink:href="#E1-MJMAIN-28" x="9095" y="0"></use>
 <use xlink:href="#E1-MJMATHI-74" x="9485" y="0"></use>
 <use xlink:href="#E1-MJMAIN-29" x="9846" y="0"></use>
 <use xlink:href="#E1-MJMAIN-29" x="10236" y="0"></use>
</g>
</g>
</g>
</svg>